<svg xmlns="http://www.w3.org/2000/svg" data-name="Layer 1" viewBox="0 0 512 512"><path d="M255,43a8,8,0,0,0-8,8V75H222a8,8,0,0,0,0,16h25v62h16V91h27a8,8,0,0,0,0-16H263V51A8,8,0,0,0,255,43Z"/><rect width="80" height="89" x="216" y="380"/><path d="M236,282.385V304h40V282.385a20,20,0,0,0-40,0Z"/><polygon points="36 469 106 469 106 295.594 36 328.295 36 469"/><path d="M122,272.35V469h78V371.618c0-4.419,3.813-7.618,8.232-7.618h95.536c4.419,0,8.232,3.2,8.232,7.618V469h78V272.35L256,163.7Zm170,10.035v29.233A8.535,8.535,0,0,1,283.768,320H228.232A8.535,8.535,0,0,1,220,311.618V282.385a36,36,0,0,1,72,0Z"/><polygon points="406 469 476 469 476 328.295 406 295.594 406 469"/></svg>