<svg xmlns="http://www.w3.org/2000/svg" xmlns:xlink="http://www.w3.org/1999/xlink" width="50" height="50" viewBox="0 0 83.815 69.863">
  <defs>
    <linearGradient id="linear-gradient" x1="0.5" y1="1" x2="0.5" gradientUnits="objectBoundingBox">
      <stop offset="0" stop-color="gray" stop-opacity="0.251"/>
      <stop offset="0.54" stop-color="gray" stop-opacity="0.122"/>
      <stop offset="1" stop-color="gray" stop-opacity="0.102"/>
    </linearGradient>
  </defs>
  <g id="Group_154" data-name="Group 154" transform="translate(-0.004 0)">
    <ellipse id="Ellipse_30" data-name="Ellipse 30" cx="8.563" cy="0.844" rx="8.563" ry="0.844" transform="translate(51.012 68.174)" fill="#6c63ff" opacity="0.1"/>
    <path id="Path_299" data-name="Path 299" d="M134.741,37.118c3.771-1.4,8.362-.2,12.283,1.562,12.314,5.524,21.285,16.009,28.413,26.692,2.581,3.868,5.032,7.907,6,12.225,1.975,8.789-3.177,17.888-11.939,21.076a35.856,35.856,0,0,1-9.532,1.778,50.741,50.741,0,0,1-17.65-1.369,55.914,55.914,0,0,1-11.768-5.126c-10.451-5.8-19.994-13.342-26.867-22.549-3.014-4.038-5.564-8.591-5.637-13.251s2.963-9.342,7.959-10.134a20.36,20.36,0,0,1,6.382.364,40.647,40.647,0,0,0,9.422.835c3.205-.235,7.374-1.487,7.958-4.547C130.386,41.388,130.974,38.518,134.741,37.118Z" transform="translate(-98.04 -36.096)" fill="#f4f6fc" opacity="0.1"/>
    <path id="Path_300" data-name="Path 300" d="M341.222,800.363s4.029-.243,3.554,2.581a.688.688,0,0,1-.358.725s-.007-.21-.413-.139a1.824,1.824,0,0,1-.437.022.912.912,0,0,1-.535-.221h0a3.2,3.2,0,0,1-1.573-2.319s-.326-.4-.313-.508l.68.291a1.22,1.22,0,0,0-.049.9s.022-.88.153-.86c.026,0,.353.167.353.167a2.01,2.01,0,0,0-.1,1.475s-.114-1.053.223-1.414l.479.28a2.11,2.11,0,0,0-.15,1.6,2.985,2.985,0,0,1,.25-1.535l.434.334a2.067,2.067,0,0,0-.171,1.468s.034-1.287.265-1.384a2.6,2.6,0,0,1,.438.473s-.3.631-.114.964c0,0,.114-.857.209-.861a2.863,2.863,0,0,1,.417.957,2.066,2.066,0,0,0-.326-1.011,1.139,1.139,0,0,1,.579.3s-.059-.4-.672-.437a2.629,2.629,0,0,0-.4-.457,2.482,2.482,0,0,1,.98.114,1.1,1.1,0,0,0-1.092-.207l-.428-.349a3.522,3.522,0,0,1,1.144.012,1.394,1.394,0,0,0-1.259-.091l-.466-.279a4.215,4.215,0,0,1,1.093-.094,1.678,1.678,0,0,0-1.23.019l-.334-.149s.5-.1.649-.114.154-.056.154-.056a1.737,1.737,0,0,0-.943.1A3.875,3.875,0,0,1,341.222,800.363Z" transform="translate(-320.844 -736.174)" fill="#6c63ff"/>
    <ellipse id="Ellipse_31" data-name="Ellipse 31" cx="2.852" cy="0.482" rx="2.852" ry="0.482" transform="translate(20.301 67.259)" fill="#6c63ff" opacity="0.1"/>
    <path id="Path_301" data-name="Path 301" d="M276.922,777.638s2.272-.137,2,1.455a.387.387,0,0,1-.2.409s0-.118-.233-.078a1.009,1.009,0,0,1-.246.012.505.505,0,0,1-.3-.124h0a1.811,1.811,0,0,1-.888-1.308s-.184-.228-.177-.286l.384.167a.69.69,0,0,0-.028.507s.013-.5.083-.485c.015,0,.2.1.2.1a1.138,1.138,0,0,0-.055.835s-.065-.594.125-.8l.27.158a1.192,1.192,0,0,0-.083.9,1.7,1.7,0,0,1,.141-.865l.245.19a1.147,1.147,0,0,0-.1.827s.019-.726.149-.78a1.488,1.488,0,0,1,.246.266s-.167.356-.064.543c0,0,.064-.483.118-.485a1.6,1.6,0,0,1,.235.539,1.169,1.169,0,0,0-.184-.57.637.637,0,0,1,.326.167s-.033-.226-.379-.246a1.477,1.477,0,0,0-.223-.257,1.4,1.4,0,0,1,.553.063.621.621,0,0,0-.616-.117l-.241-.2a2,2,0,0,1,.645.007.786.786,0,0,0-.711-.051l-.262-.158a2.382,2.382,0,0,1,.615-.053.943.943,0,0,0-.693.011l-.188-.084s.283-.056.366-.064.088-.032.088-.032a.984.984,0,0,0-.532.059A2.211,2.211,0,0,1,276.922,777.638Z" transform="translate(-261.943 -715.349)" fill="#6c63ff"/>
    <ellipse id="Ellipse_32" data-name="Ellipse 32" cx="1.608" cy="0.272" rx="1.608" ry="0.272" transform="translate(14.936 64.019)" fill="#6c63ff" opacity="0.1"/>
    <path id="Path_302" data-name="Path 302" d="M946.267,795.96s2.743-.167,2.421,1.753a.471.471,0,0,1-.244.494s-.005-.143-.281-.094a1.236,1.236,0,0,1-.3.014.614.614,0,0,1-.364-.15h0a2.175,2.175,0,0,1-1.071-1.579s-.222-.275-.213-.345l.462.2a.832.832,0,0,0-.033.612s.015-.6.1-.584c.018,0,.24.115.24.115a1.366,1.366,0,0,0-.067,1s-.078-.716.152-.962l.326.189a1.437,1.437,0,0,0-.1,1.091,2.068,2.068,0,0,1,.167-1.045l.3.23a1.413,1.413,0,0,0-.117,1s.024-.875.181-.942a1.8,1.8,0,0,1,.3.322s-.2.43-.078.657c0,0,.078-.584.142-.584a1.94,1.94,0,0,1,.284.651,1.4,1.4,0,0,0-.221-.688.774.774,0,0,1,.394.2s-.04-.273-.458-.3a1.781,1.781,0,0,0-.269-.311,1.688,1.688,0,0,1,.668.077.752.752,0,0,0-.744-.14l-.291-.238a2.406,2.406,0,0,1,.779.008.948.948,0,0,0-.857-.062l-.317-.189a2.892,2.892,0,0,1,.744-.064,1.137,1.137,0,0,0-.835.013l-.227-.1s.341-.068.442-.078.105-.038.105-.038a1.186,1.186,0,0,0-.641.071A2.777,2.777,0,0,1,946.267,795.96Z" transform="translate(-875.398 -732.14)" fill="#6c63ff"/>
    <ellipse id="Ellipse_33" data-name="Ellipse 33" cx="1.941" cy="0.328" rx="1.941" ry="0.328" transform="translate(70.817 65.91)" fill="#6c63ff" opacity="0.1"/>
    <path id="Path_303" data-name="Path 303" d="M696.174,408.227a5.965,5.965,0,0,1-.091-.89c0-.358-.487-.675-.487-.675s-.3-.7-.5-.8a6.131,6.131,0,0,1-.819-1.013.828.828,0,0,0-.186-.491,7.048,7.048,0,0,1-.507-.765h0c-.083-.1-.042-.174-.167-.767-.007-.031-.014-.061-.023-.089a.118.118,0,0,0-.013-.038,1,1,0,0,0,.236-1.038.417.417,0,0,0-.119-.184c-.141-.115-.367-.068-.512-.177l.155-.683c.037-.167.056-.378-.09-.468a.758.758,0,0,0-.172-.058.811.811,0,0,1-.461-.6,2.065,2.065,0,0,1-.05-.751c.028-.242.1-.478.125-.72a1.979,1.979,0,0,0-.306-1.281.986.986,0,0,0-.4-.382c-.154-.069-.334-.083-.478-.167-.31-.2-.295-.668-.543-.938a1.071,1.071,0,0,0-1.049-.176,3.165,3.165,0,0,1-1.092.211c-.239-.027-.463-.135-.7-.16a.739.739,0,0,0-.205.009v-.008a.446.446,0,0,0-.382.3.456.456,0,0,0-.012.122c0,.1.023.2.025.293a.279.279,0,0,1-.068.206c-.047.051-.118.078-.167.13a.209.209,0,0,0-.061.154c0,.149.185.28.31.34h.005c-.033.033-.067.068-.1.1a2.2,2.2,0,0,0-.553,1.46,2.229,2.229,0,0,0,1.356,2.036l-.018.054a3.1,3.1,0,0,1-.123.316.625.625,0,0,0-.524.058,1.324,1.324,0,0,1-.83.123,11.271,11.271,0,0,0-1.524-.154c-.1.041-.311-.143-.445.1s-.2.378-.334.44-.373.255-.341.3-.342.286-.342.286a1.7,1.7,0,0,1-.508.378,2.982,2.982,0,0,0-.58.3l-.457.357s-.341.052-.238-.184-.187-.532-.187-.532a8.44,8.44,0,0,1-.58-1.419,7.222,7.222,0,0,0-.477-1.279l-.058-.006-.027-.076c-.088-.246-.2-.549-.288-.726-.167-.338-.27-.373-.27-.373s-2.01-1.51-3.316-1.049,2.384,1.831,2.715,1.975a.626.626,0,0,1,.258.4,1.718,1.718,0,0,0-.714.642,13.65,13.65,0,0,1,.819,2.209,8.49,8.49,0,0,0,.549,1.67,1.165,1.165,0,0,0,1.264.859s1.472.271,1.793,0a2.544,2.544,0,0,1,.767-.513.606.606,0,0,0,.29-.2,21.909,21.909,0,0,1-.726,3.335c-.239.266-2.349,3.711-1.591,4.327a15.124,15.124,0,0,0,1.9,1.252c.064.032.257-.29.533-.518v.178a13.211,13.211,0,0,0,.391,3.507,3.883,3.883,0,0,1,.2,1.8,1.419,1.419,0,0,0,.56.134c.01.04.022.084.033.125a16.68,16.68,0,0,0,.63,2.042,8.306,8.306,0,0,1,.393,1.791,12.438,12.438,0,0,1,.083,1.524,8.967,8.967,0,0,0,.205,1.336h0c-.083.959-.242,2.809-.269,3.477h0v.048a.2.2,0,0,1,0,.023v.041h0a.618.618,0,0,0,.005.126.411.411,0,0,1-.014.19,3.324,3.324,0,0,1-.225.536,2.554,2.554,0,0,0-.1.259.468.468,0,0,0-.242.344c-.1.4-.259,1.5-.259,1.5a2.716,2.716,0,0,1-.186.829.855.855,0,0,0,.632,1.237,1.276,1.276,0,0,0,1.264-.468l-.031-2.678v-.005a.4.4,0,0,0,.046-.073v-.007c.006-.013.013-.026.018-.041l.008-.02.013-.033a.047.047,0,0,1,0-.012,1.77,1.77,0,0,0,.075-.8v-.113a.315.315,0,0,1,.005-.055v-.01l0-.033v-.014a.062.062,0,0,1,.007-.033.038.038,0,0,1,0-.008c.008-.038.018-.084.029-.12v-.009l.013-.04h0c.013-.043.027-.083.042-.129v-.008a.117.117,0,0,1,.014-.039v-.005c.015-.041.031-.083.046-.119l0-.011.013-.033,0-.01.032-.074h0l.245.756a1.909,1.909,0,0,1,.063.7c-.073.133.083.685.186.7l-.1.7a10.656,10.656,0,0,0-.093,1.156c-.007.044-.013.083-.018.11a2.508,2.508,0,0,0,.094.909,1.222,1.222,0,0,0,1.793.075s.113-.512,0-.614-.063-.471-.063-.471.052-.911.062-1.575a2.082,2.082,0,0,0-.543-1.252l-.031.027a1.97,1.97,0,0,1-.192-.7c.042-.235-.114-2.721-.114-2.721a14.746,14.746,0,0,0,.037-2h0c.013-.113.026-.224.038-.334.063-.534.114-.991.134-1.231h0v-.028c.005-.064.008-.11.007-.132,0-.083,0-.179.008-.283.019-.287.064-.607.064-.607l.217-1.32a4.126,4.126,0,0,1,.4-1l.028-.045h0l.028-.052,0-.008c.009-.018.019-.036.028-.055l0-.008c.033-.066.069-.142.107-.225,0-.007.006-.013.008-.019l.028-.063a.065.065,0,0,1,.011-.025c0-.008.018-.043.027-.063a.228.228,0,0,0,.011-.026c.011-.025.023-.051.033-.078l.016-.038c.008-.019.016-.038.024-.058l.02-.051c.006-.013.011-.025.016-.038l.023-.058c0-.008.008-.018.011-.026.059-.148.116-.294.167-.427h0l.046-.12c.531.033.892.062.892.062a12.233,12.233,0,0,0,.114-1.984,7.379,7.379,0,0,1,.131-1.586c.008-.041.014-.078.021-.111l.014.012c.26.2.446-.471.446-.471s-.07-.63-.167-1.394l-.01-.076a3.925,3.925,0,0,0,.453.069s.083-.008.2-.022a5.481,5.481,0,0,0,1,.451l.552-1.019a4.159,4.159,0,0,1,.363-.6,5.5,5.5,0,0,0,.746-.982,3.457,3.457,0,0,1,.4-1.146A2.53,2.53,0,0,0,696.174,408.227Zm-2.3.777c-.218.092-.425.6-.435.757s-.239.828-.477.91a3.177,3.177,0,0,0-.706.523c-.068.006-.146.015-.227.028a7.96,7.96,0,0,0-.239-1.287c-.167-.307.183-1.289.183-1.289a3.12,3.12,0,0,1,.25-1.227c.216-.235.167-.829.167-.829s.052-.245.073-.357.308,0,.311,0h0a1.358,1.358,0,0,1,.643.766,4.4,4.4,0,0,0,.695,1.258s-.094.276,0,.417S694.091,408.913,693.873,409Z" transform="translate(-628.037 -364.677)" fill="url(#linear-gradient)"/>
    <path id="Path_304" data-name="Path 304" d="M707,449a1.67,1.67,0,0,1,1.67-.786v1.195h-.726l-.568-.144Z" transform="translate(-656.153 -413.417)" fill="#4c4981"/>
    <path id="Path_305" data-name="Path 305" d="M707,449a1.67,1.67,0,0,1,1.67-.786v1.195h-.726l-.568-.144Z" transform="translate(-656.153 -413.417)" opacity="0.1"/>
    <path id="Path_306" data-name="Path 306" d="M681.274,423.334l-.889.623s-.008-.124-.03-.295c-.044-.322-.143-.806-.358-.9-.326-.144-3.961-1.511-2.672-1.971s3.267,1.048,3.267,1.048.1.035.265.371c.083.177.2.478.284.725C681.22,423.158,681.274,423.334,681.274,423.334Z" transform="translate(-628.704 -388.219)" fill="#ae6e79"/>
    <path id="Path_307" data-name="Path 307" d="M712.023,431.558l.1-.048.284.324-.232.5-.4-.159.092-.4Z" transform="translate(-652.349 -395.483)" fill="#4c4981"/>
    <path id="Path_308" data-name="Path 308" d="M786.93,810.994s-.255-.03-.357.368-.255,1.5-.255,1.5a2.716,2.716,0,0,1-.184.827.856.856,0,0,0,.623,1.235,1.256,1.256,0,0,0,1.246-.467l-.031-2.677Z" transform="translate(-728.601 -745.923)" fill="#444053"/>
    <path id="Path_309" data-name="Path 309" d="M818.189,812.44a2.078,2.078,0,0,1,.536,1.247c-.01.663-.062,1.572-.062,1.572s-.05.368.062.47,0,.613,0,.613a1.193,1.193,0,0,1-1.767-.075,2.553,2.553,0,0,1-.092-.908c.065-.356.247-1.954.247-1.954Z" transform="translate(-756.832 -747.248)" fill="#444053"/>
    <path id="Path_310" data-name="Path 310" d="M793.622,660.042a17.045,17.045,0,0,1-.786,1.9,4.085,4.085,0,0,0-.4,1l-.215,1.317a7.347,7.347,0,0,0-.072.888c.01.3-.531,4.614-.531,4.614l-.857,1.093a2.8,2.8,0,0,0-.316,1.085,1.576,1.576,0,0,1-.167.98s-.02,1-.051,1.225.113.858,0,.97-1.613.062-1.654-.123a5.446,5.446,0,0,1,.184-1.072l.133-.857s.266-.469.2-.623.112-.51.122-.541.286-.531.235-.725.321-4.313.321-4.313l1.051-7.381Z" transform="translate(-730.913 -607.059)" fill="#ae6e79"/>
    <path id="Path_311" data-name="Path 311" d="M793.622,660.06s-.083.232-.2.537a10.379,10.379,0,0,1-.589,1.362,4.141,4.141,0,0,0-.4,1l-.215,1.318a7.409,7.409,0,0,0-.071.888c0,.117-.078.862-.179,1.722-.154,1.313-.352,2.893-.352,2.893l-.857,1.093s-.043.083-.1.215a2,2,0,0,0-.219.867,1.581,1.581,0,0,1-.167.98s-.021,1-.051,1.225.113.857,0,.97-1.613.062-1.654-.122a5.457,5.457,0,0,1,.184-1.072l.133-.858s.266-.469.2-.623.113-.51.123-.541.286-.531.235-.725c-.039-.148.167-2.567.263-3.714.033-.361.053-.6.053-.6l.9-6.35.073-.512.073-.519Z" transform="translate(-730.913 -607.077)" opacity="0.1"/>
    <path id="Path_312" data-name="Path 312" d="M789.413,680.966a3.605,3.605,0,0,1-1.647.154c-.207-.123,0-1.644,0-1.644l.094-.694c-.1-.011-.255-.562-.184-.695a1.948,1.948,0,0,0-.061-.694l-.24-.751-.147-.46a20.451,20.451,0,0,1-.8-3.152,9.132,9.132,0,0,1-.2-1.331,12.617,12.617,0,0,0-.083-1.521,8.642,8.642,0,0,0-.387-1.787,16.8,16.8,0,0,1-.621-2.038c-.092-.353-.155-.607-.155-.607s1.543-.129,2.479-.175c.43-.021.732-.023.7.012a1.267,1.267,0,0,0-.043.493,12.867,12.867,0,0,0,.205,2.264,7.816,7.816,0,0,1,.225,1.97,6.218,6.218,0,0,0-.041,1.021,4.6,4.6,0,0,1,.18,1.108,14.963,14.963,0,0,1-.035,1.995s.153,2.481.112,2.716.326.97.326,1.113.1,1.113.1,1.113S789.407,680.855,789.413,680.966Z" transform="translate(-727.623 -612.628)" fill="#ae6e79"/>
    <path id="Path_313" data-name="Path 313" d="M805.7,445.476l-.175.19-.114.124-.668.718-1.726.195-.918-.245-.227-.061s0-.461.041-1.014c.058-.709.2-1.57.531-1.8a1.327,1.327,0,0,0,.388-.492,2.775,2.775,0,0,0,.167-.412c.007-.018.012-.036.018-.054a4.616,4.616,0,0,0,.162-.757s.22-.122.527-.264c.8-.373,2.179-.888,1.7.264a4.485,4.485,0,0,0-.18.518c-.008.026-.014.052-.02.077a1.676,1.676,0,0,0,.065,1.245h0a.775.775,0,0,0,.069.106.558.558,0,0,0,.116.118l.2,1.262.017.1Z" transform="translate(-743.103 -406.961)" fill="#ae6e79"/>
    <path id="Path_314" data-name="Path 314" d="M817.785,442.6c-.091.219.044-.179,0,0-.364.259-1.221,1-1.7,1a1.338,1.338,0,0,1-.7-.185,4.56,4.56,0,0,0,.18-.811S818.449,441.005,817.785,442.6Z" transform="translate(-755.485 -407.636)" opacity="0.1"/>
    <path id="Path_315" data-name="Path 315" d="M804.132,409.866a2.228,2.228,0,0,1-1.993,2.213c-.077.008-.154.013-.233.013a2.226,2.226,0,1,1,2.226-2.226Z" transform="translate(-741.095 -376.245)" fill="#ae6e79"/>
    <path id="Path_316" data-name="Path 316" d="M796.3,492.045l-.317.827s-.258.011-.66.023c-1.358.043-4.352.1-4.485-.25a.884.884,0,0,1-.047-.275,5.38,5.38,0,0,1,.23-1.348s.143-1.634.143-1.7-.123-1.216-.123-1.216l.245-.918.684-.48s.306.47.49.51a1.272,1.272,0,0,1,.429.266s.6.367.8.163,1.7-1.1,1.7-1.1l.8.878Z" transform="translate(-732.947 -448.558)" opacity="0.1"/>
    <path id="Path_317" data-name="Path 317" d="M796.327,493.565l-.317.827s-.258.012-.66.024h-.039c-.174.006-.372.012-.584.016a25.153,25.153,0,0,1-3.344-.083c-.292-.042-.483-.1-.515-.184a.74.74,0,0,1-.037-.152c-.005-.038-.008-.083-.01-.123a5.384,5.384,0,0,1,.23-1.348s.143-1.634.143-1.7-.123-1.216-.123-1.216l.245-.918.47-.329.214-.15a3.214,3.214,0,0,0,.235.309.624.624,0,0,0,.255.2,1.277,1.277,0,0,1,.429.266s.6.367.8.163a15.473,15.473,0,0,1,1.49-.974c.13-.079.215-.129.215-.129l.107.119.69.76Z" transform="translate(-732.975 -449.951)" fill="#fff"/>
    <path id="Path_318" data-name="Path 318" d="M717.559,447.828l-.889.623s-.008-.124-.03-.295a1.8,1.8,0,0,0,.783-.726C717.5,447.652,717.559,447.828,717.559,447.828Z" transform="translate(-664.989 -412.713)" opacity="0.1"/>
    <path id="Path_319" data-name="Path 319" d="M711.793,450.84l-.194-.052a1.684,1.684,0,0,1-.5.378,2.922,2.922,0,0,0-.571.3l-.45.357s-.334.052-.235-.184-.184-.531-.184-.531a8.421,8.421,0,0,1-.572-1.419,7.135,7.135,0,0,0-.473-1.276,1.461,1.461,0,0,1-1.675.786,13.7,13.7,0,0,1,.807,2.2,8.475,8.475,0,0,0,.541,1.664,1.153,1.153,0,0,0,1.246.858s1.45.27,1.767,0a2.56,2.56,0,0,1,.751-.513.619.619,0,0,0,.285-.2v-1.214Z" transform="translate(-656.098 -413.611)" fill="#4c4981"/>
    <path id="Path_320" data-name="Path 320" d="M743.3,491.33s.255.95.092,1.052Z" transform="translate(-689.423 -452.948)" opacity="0.1"/>
    <path id="Path_321" data-name="Path 321" d="M795.332,558.375c-1.358.043-4.351.1-4.485-.25a.887.887,0,0,1-.047-.275l4.438.234Z" transform="translate(-732.957 -513.914)" opacity="0.1"/>
    <path id="Path_322" data-name="Path 322" d="M790.35,660.042s-.083.232-.2.537c-.563-.034-1.31-.07-2.019-.075-.25,0-.5,0-.728.008a5.494,5.494,0,0,0-1.19.132,3.155,3.155,0,0,1-1.06.137c-.092-.353-.155-.607-.155-.607s1.543-.129,2.479-.175l.073-.519Z" transform="translate(-727.641 -607.059)" opacity="0.1"/>
    <path id="Path_323" data-name="Path 323" d="M780.483,564.379l-.174.367s-.024.109-.055.283a7.233,7.233,0,0,0-.129,1.586,12.552,12.552,0,0,1-.113,1.98,24.213,24.213,0,0,0-4.859,0,2.228,2.228,0,0,1-1.645,0,3.949,3.949,0,0,0-.194-1.8,13.3,13.3,0,0,1-.385-3.507,3.092,3.092,0,0,1,.1-1.08,32.234,32.234,0,0,0,1.184-3.032l.219.012.584.031,3.323.175.522.028.055.167Z" transform="translate(-716.579 -515.133)" fill="#444053"/>
    <path id="Path_324" data-name="Path 324" d="M866.357,590.8l.031.327s-1.646-.536-1.562-1.195,0-.584,0-.584l1.323.112Z" transform="translate(-800.8 -542.784)" fill="#4c4981"/>
    <path id="Path_325" data-name="Path 325" d="M866.357,590.8l.031.327s-1.646-.536-1.562-1.195,0-.584,0-.584l1.323.112Z" transform="translate(-800.8 -542.784)" opacity="0.1"/>
    <path id="Path_326" data-name="Path 326" d="M753.71,491.575a1.465,1.465,0,0,0,.579.3.377.377,0,0,1-.167-.083c-.118-.083-.23-.174-.343-.263a1.078,1.078,0,0,0-.319-.22A1.755,1.755,0,0,0,753.71,491.575Z" transform="translate(-698.734 -452.929)" opacity="0.1"/>
    <path id="Path_327" data-name="Path 327" d="M751.776,495.162a.739.739,0,0,1,.127.2,1.218,1.218,0,0,1-.009.632l-.264-.636c-.046-.109-.092-.217-.147-.321-.024-.044-.176-.229-.159-.267C751.371,494.663,751.727,495.1,751.776,495.162Z" transform="translate(-696.776 -456.086)" opacity="0.1"/>
    <path id="Path_328" data-name="Path 328" d="M833.317,539.375a.85.85,0,0,0,.48-.225c-.271.034-.529.141-.8.2a1.183,1.183,0,0,1-.741-.068A1.825,1.825,0,0,0,833.317,539.375Z" transform="translate(-770.955 -496.775)" opacity="0.1"/>
    <path id="Path_329" data-name="Path 329" d="M821.121,510.587a.186.186,0,0,1-.138-.034q-.306-.175-.6-.366a4.009,4.009,0,0,1-.59-.407A3,3,0,0,0,821.121,510.587Z" transform="translate(-759.526 -469.857)" opacity="0.1"/>
    <path id="Path_330" data-name="Path 330" d="M836.415,543.176a1.277,1.277,0,0,0,.319-.026.428.428,0,0,0,.262-.172.15.15,0,0,0-.111.018,1.873,1.873,0,0,1-1.025.123A1.483,1.483,0,0,0,836.415,543.176Z" transform="translate(-774.255 -500.28)" opacity="0.1"/>
    <path id="Path_331" data-name="Path 331" d="M790.823,601.2a3.351,3.351,0,0,1-.652.128,3.945,3.945,0,0,1-.516-.01l-.835-.053-.418-.027c-.049,0-.25,0-.151-.1.05-.048.329-.018.4-.02q.208-.007.417-.007c.276,0,.554,0,.83.017C790.209,601.142,790.514,601.165,790.823,601.2Z" transform="translate(-730.596 -553.562)" opacity="0.1"/>
    <path id="Path_332" data-name="Path 332" d="M786.763,606.268a3.363,3.363,0,0,0-.471.1,3.118,3.118,0,0,1-.493.019,2.745,2.745,0,0,1-.949-.194C785.487,606.223,786.126,606.242,786.763,606.268Z" transform="translate(-727.504 -558.218)" opacity="0.1"/>
    <path id="Path_333" data-name="Path 333" d="M783.149,612.067a1.371,1.371,0,0,1,.182.05,2.135,2.135,0,0,0,1.085-.077.637.637,0,0,1-.412.229,1.911,1.911,0,0,1-.8.029c-.083-.017-.293-.047-.334-.134C782.8,612.037,783.07,612.054,783.149,612.067Z" transform="translate(-725.678 -563.58)" opacity="0.1"/>
    <path id="Path_334" data-name="Path 334" d="M804.235,618.234a2.735,2.735,0,0,1,.312.083,2.641,2.641,0,0,0,1.206-.128,5.614,5.614,0,0,1,1.46-.135,1.446,1.446,0,0,0-.313.1c-.113.034-.227.066-.341.094-.225.055-.453.1-.682.133a7,7,0,0,1-1.4.061,2.029,2.029,0,0,1-.767-.1A.845.845,0,0,1,804.235,618.234Z" transform="translate(-744.789 -569.088)" opacity="0.1"/>
    <path id="Path_335" data-name="Path 335" d="M776.174,464.215a5.391,5.391,0,0,1-.133,1.369c-.048.134-.124.38-.205.656-.089.306-.187.65-.262.918l-.125.449s-.345,2.809-.434,4.147a.331.331,0,0,1,0,.07c-.005.075-.013.154-.026.235a7.512,7.512,0,0,1-1.73,3.543,1.146,1.146,0,0,0-.324.223,3.094,3.094,0,0,1,.1-1.08,32.222,32.222,0,0,0,1.184-3.032l.219.012c-.005-.038-.008-.084-.01-.123a5.381,5.381,0,0,1,.23-1.348s.143-1.634.143-1.7-.123-1.216-.123-1.216l.245-.918.47-.329c.058-.709.2-1.57.531-1.8a1.327,1.327,0,0,0,.388-.492c.066.009-.054-.049-.054-.049Z" transform="translate(-716.579 -427.661)" opacity="0.1"/>
    <path id="Path_336" data-name="Path 336" d="M748.372,462.761a.608.608,0,0,0-.517.058,1.292,1.292,0,0,1-.817.123,11.074,11.074,0,0,0-1.5-.154c-.1.041-.306-.143-.439.1s-.194.377-.326.438-.368.255-.334.3-.334.286-.334.286l.745,2.421a22.165,22.165,0,0,1-.715,3.328c-.235.266-2.318,3.706-1.572,4.319a14.845,14.845,0,0,0,1.868,1.252c.083.041.377-.51.786-.684a7.413,7.413,0,0,0,1.753-3.778c.078-1.307.439-4.216.439-4.216s.439-1.593.592-2.022a5.391,5.391,0,0,0,.133-1.369Z" transform="translate(-688.597 -426.734)" fill="#4c4981"/>
    <path id="Path_337" data-name="Path 337" d="M839.552,484.909l-.174.367s-.024.109-.055.283a.157.157,0,0,1-.083-.038,5.772,5.772,0,0,1-1.828-3.114c-.053-1.009-.028-1.879-.011-2.267.005-.122.01-.2.01-.211h0s1.164-1.409,1.031-1.909-.439-3.173-.439-3.173l-.045-.351-.078-.593-.185-1.434.192.045a.56.56,0,0,0,.116.118l.2,1.262.69.76.113,4.625-.317.827s-.258.012-.66.024h-.039Z" transform="translate(-775.648 -435.662)" opacity="0.1"/>
    <path id="Path_338" data-name="Path 338" d="M841.422,476.6s-.286-.113-.306,0-.072.357-.072.357.051.593-.167.827a3.078,3.078,0,0,0-.25,1.225s-.344.98-.181,1.287a8.264,8.264,0,0,1,.243,1.336c.058.417.116.876.167,1.295.093.761.162,1.392.162,1.392s-.185.674-.44.469a5.767,5.767,0,0,1-1.827-3.114c-.05-.961-.03-1.8-.013-2.208.007-.174.013-.273.013-.273s1.164-1.409,1.031-1.909-.439-3.173-.439-3.173l-.053-.413-.058-.444-.013-.1-.185-1.419h0a6.355,6.355,0,0,1,1.329.417,4.566,4.566,0,0,0,1.085.367.816.816,0,0,1,.579.594c.009.028.016.058.023.089.123.593.083.664.167.766A22.945,22.945,0,0,1,841.422,476.6Z" transform="translate(-776.875 -434.993)" fill="#4c4981"/>
    <path id="Path_339" data-name="Path 339" d="M853.16,591.545c-.417-.083-1.037-.276-1.023-.7.013-.4.492-.542.855-.593C853.051,590.666,853.108,591.126,853.16,591.545Z" transform="translate(-789.173 -543.609)" opacity="0.1"/>
    <path id="Path_340" data-name="Path 340" d="M855.124,590.342c-.017.036-.083.067-.179.094a4.823,4.823,0,0,1-.679.111s-1.419-.113-1.4-.756c.015-.462.656-.584,1.016-.612a2.382,2.382,0,0,1,.24-.01S855.185,590.21,855.124,590.342Z" transform="translate(-789.842 -542.618)" fill="#ae6e79"/>
    <path id="Path_341" data-name="Path 341" d="M865.438,590.342c-.017.036-.083.067-.179.094-.37-.5-.886-1.13-1.139-1.186l.077-.071a2.38,2.38,0,0,1,.24-.01S865.5,590.21,865.438,590.342Z" transform="translate(-800.155 -542.618)" opacity="0.1"/>
    <path id="Path_342" data-name="Path 342" d="M865.758,497.69l.417.062a7.25,7.25,0,0,0,.5.766.835.835,0,0,1,.184.49,6.272,6.272,0,0,0,.807,1.01c.194.1.49.8.49.8s.48.316.48.674a6.025,6.025,0,0,0,.092.888,2.516,2.516,0,0,1-.276,1,3.42,3.42,0,0,0-.4,1.142,5.41,5.41,0,0,1-.735.98,4.141,4.141,0,0,0-.357.6l-.541,1.021s-1.144-1.685-1.562-1.777a3.289,3.289,0,0,1,.7-.531c.235-.082.46-.751.47-.908s.214-.664.428-.751.327-.184.235-.327a.61.61,0,0,1,0-.417,4.407,4.407,0,0,1-.685-1.252,1.364,1.364,0,0,0-.633-.766l-.316-.776Z" transform="translate(-800.833 -458.777)" fill="#4c4981"/>
    <path id="Path_343" data-name="Path 343" d="M889.622,539.912a1.326,1.326,0,0,1,.824-.312,1,1,0,0,0-.539.211,1.267,1.267,0,0,0-.149.19c-.048.069-.443.57-.5.491C889.159,540.376,889.543,539.98,889.622,539.912Z" transform="translate(-823.179 -497.188)" opacity="0.1"/>
    <path id="Path_344" data-name="Path 344" d="M882.73,519.715a.353.353,0,0,0,.291-.206,1.153,1.153,0,0,0,.091-.362,5.443,5.443,0,0,1,.126-.62.287.287,0,0,0-.017-.25.851.851,0,0,0-.09-.185,1.112,1.112,0,0,0-.128.39c-.038.139-.073.278-.107.418C882.879,518.964,882.74,519.715,882.73,519.715Z" transform="translate(-817.211 -477.474)" opacity="0.1"/>
    <path id="Path_345" data-name="Path 345" d="M812.136,414.38a.862.862,0,0,1-.141.145c-.167.133-.388.245-.409.454a.489.489,0,0,1-.025.2c-.053.092-.184.083-.289.066a.5.5,0,0,1-.245-.09c-.109-.094-.119-.26-.2-.378a.515.515,0,0,0-.418-.185c-.156-.005-.311.03-.468.037a1.285,1.285,0,0,1-.3-.02.941.941,0,0,1-.1-.02,1.248,1.248,0,0,1-.2-.069.9.9,0,0,1-.1-.047,1.32,1.32,0,0,1-.288-.2.717.717,0,0,1-.267-.542c.008-.128.065-.245.083-.372a1.165,1.165,0,0,0-.437-.959c-.1-.1-.214-.2-.317-.306a1.526,1.526,0,0,1-.373-.533,1.584,1.584,0,0,1-.067-.668,4.61,4.61,0,0,0,.019-.686,2.411,2.411,0,0,0-1.463-1.772l-.031-.016a2.225,2.225,0,1,1,2.993,3.256c-.008.026-.014.052-.02.077a1.676,1.676,0,0,0,.065,1.245h0a6.351,6.351,0,0,1,1.329.417,4.567,4.567,0,0,0,1.085.367A.817.817,0,0,1,812.136,414.38Z" transform="translate(-746.979 -376.261)" opacity="0.1"/>
    <path id="Path_346" data-name="Path 346" d="M803.677,396.969c.046-.053.115-.079.162-.13.144-.157,0-.413.053-.62a.515.515,0,0,1,.574-.306c.235.024.456.133.691.159a3.042,3.042,0,0,0,1.076-.21,1.035,1.035,0,0,1,1.033.175c.245.273.229.738.534.936a3.041,3.041,0,0,0,.472.167.969.969,0,0,1,.4.382,2,2,0,0,1,.3,1.278c-.026.242-.1.478-.124.72a2.1,2.1,0,0,0,.05.751.8.8,0,0,0,.453.6.76.76,0,0,1,.167.058c.145.09.125.3.089.467l-.149.685c.143.109.365.062.5.176a.417.417,0,0,1,.117.184,1,1,0,0,1-.3,1.1c-.167.133-.388.245-.409.453a.472.472,0,0,1-.025.2c-.053.092-.185.083-.289.066a.5.5,0,0,1-.244-.09c-.11-.094-.119-.26-.2-.378a.517.517,0,0,0-.417-.185c-.157-.005-.311.03-.468.038a1.384,1.384,0,0,1-.984-.356.718.718,0,0,1-.268-.543c.007-.127.065-.245.083-.372a1.169,1.169,0,0,0-.437-.959,2.544,2.544,0,0,1-.691-.839,5.224,5.224,0,0,1-.048-1.35,2.411,2.411,0,0,0-1.463-1.772C803.76,397.375,803.5,397.173,803.677,396.969Z" transform="translate(-744.703 -365.398)" fill="#444053"/>
    <path id="Path_347" data-name="Path 347" d="M809.065,405.177c-.11-.094-.119-.26-.2-.378a.519.519,0,0,0-.417-.185c-.157-.005-.312.03-.468.038a1.38,1.38,0,0,1-.988-.356.716.716,0,0,1-.267-.542c.008-.128.065-.246.083-.372a1.166,1.166,0,0,0-.437-.96,2.557,2.557,0,0,1-.691-.839,5.456,5.456,0,0,1-.047-1.35,2.414,2.414,0,0,0-1.463-1.772c-.162-.079-.425-.281-.246-.485.045-.053.114-.079.161-.13.144-.156,0-.413.053-.62a.342.342,0,0,1,.053-.114.445.445,0,0,0-.376.3c-.051.207.092.463-.053.62-.047.051-.116.078-.162.129-.18.2.083.407.245.485a2.412,2.412,0,0,1,1.463,1.773,5.232,5.232,0,0,0,.048,1.351,2.52,2.52,0,0,0,.691.839,1.156,1.156,0,0,1,.437.959,3.2,3.2,0,0,0-.084.372.717.717,0,0,0,.268.542,1.377,1.377,0,0,0,.987.356c.157-.008.311-.042.468-.038a.519.519,0,0,1,.417.185c.083.118.093.285.2.378a.5.5,0,0,0,.244.089c.1.019.236.026.289-.065a.226.226,0,0,0,.023-.12A.481.481,0,0,1,809.065,405.177Z" transform="translate(-744.631 -366.594)" opacity="0.1"/>
    <path id="Path_348" data-name="Path 348" d="M569.427,65.231h-5.775V59.54h5.779Zm-.083-8.58h-5.608c0-8.843,8.406-8.327,8.406-13.921a5.575,5.575,0,0,0-5.6-5.55,5.719,5.719,0,0,0-5.6,5.638h-5.6a11.207,11.207,0,0,1,22.414-.088c0,7-8.405,7.792-8.405,13.921Z" transform="translate(-517.146 -31.61)" fill="white"/>
    <path id="Path_349" data-name="Path 349" d="M339.33,318.688H337.84v-1.471h1.489Zm-.023-2.212h-1.444c0-2.279,2.167-2.147,2.167-3.59a1.438,1.438,0,0,0-1.444-1.432,1.475,1.475,0,0,0-1.441,1.453H335.7a2.889,2.889,0,1,1,5.779-.023c0,1.8-2.171,2.009-2.171,3.588Z" transform="translate(-315.853 -286.762)" fill="#6c63ff" opacity="0.1"/>
    <path id="Path_350" data-name="Path 350" d="M474.337,441.134h-1.49v-1.467h1.49Zm-.022-2.212H472.87c0-2.28,2.167-2.147,2.167-3.59a1.437,1.437,0,0,0-1.444-1.431,1.475,1.475,0,0,0-1.449,1.454H470.7a2.889,2.889,0,1,1,5.779-.023C476.481,437.137,474.315,437.343,474.315,438.923Z" transform="translate(-439.582 -398.988)" fill="#6c63ff" opacity="0.1"/>
    <path id="Path_351" data-name="Path 351" d="M567.493,250.66h-1.08V249.6h1.08Zm-.016-1.6H566.43c0-1.651,1.57-1.555,1.57-2.6a1.042,1.042,0,0,0-1.047-1.037,1.069,1.069,0,0,0-1.047,1.054H564.86a2.094,2.094,0,0,1,4.188-.017C569.046,247.762,567.477,247.911,567.477,249.056Z" transform="translate(-525.881 -226.606)" fill="#6c63ff" opacity="0.1"/>
    <path id="Path_352" data-name="Path 352" d="M800.862,298.98h-.61v-.6h.61Zm-.009-.906h-.6c0-.933.888-.879.888-1.47a.585.585,0,0,0-.591-.584.6.6,0,0,0-.592.6h-.592a1.184,1.184,0,0,1,2.367-.009C801.74,297.34,800.853,297.427,800.853,298.074Z" transform="translate(-740.811 -273.429)" fill="#6c63ff" opacity="0.1"/>
    <path id="Path_353" data-name="Path 353" d="M912.659,626.451h-.61v-.6h.61Zm-.009-.906h-.592c0-.934.888-.879.888-1.47a.589.589,0,0,0-.592-.584.6.6,0,0,0-.592.6h-.592a1.184,1.184,0,0,1,2.367-.009c0,.737-.884.822-.884,1.469Z" transform="translate(-843.277 -573.559)" fill="#6c63ff" opacity="0.1"/>
  </g>
</svg>
