<?xml version="1.0" encoding="utf-8"?>
<!-- Generator: Adobe Illustrator 24.1.1, SVG Export Plug-In . SVG Version: 6.00 Build 0)  -->
<svg version="1.1" baseProfile="basic" id="Layer_1"
	 xmlns="http://www.w3.org/2000/svg" xmlns:xlink="http://www.w3.org/1999/xlink" x="0px" y="0px" viewBox="0 0 198.99 198.85"
	 xml:space="preserve">
<path d="M125.57,99.43c-4.81,0-8.72,3.9-8.72,8.7c0,4.8,3.91,8.7,8.72,8.7s8.72-3.9,8.72-8.7
	C134.29,103.33,130.38,99.43,125.57,99.43z M153.83,99.43c-4.81,0-8.72,3.9-8.72,8.7c0,4.8,3.91,8.7,8.72,8.7
	c4.81,0,8.72-3.9,8.72-8.7C162.54,103.33,158.63,99.43,153.83,99.43z M144.72,104.13c-2.29,1.32-5.49,4.08-5.84,10.14
	c-0.02,0.34,0.12,0.69,0.35,0.93c0.23,0.25,0.55,0.39,0.89,0.39h4.98c0.59,0,1.08-0.42,1.21-0.97c-1.51-1.74-2.45-4.01-2.45-6.49
	C143.86,106.71,144.18,105.36,144.72,104.13z M162.94,104.13c0.54,1.23,0.86,2.58,0.86,4c0.01,2.38-0.85,4.69-2.41,6.49
	c0.13,0.55,0.57,0.97,1.17,0.97h4.98c0.34,0,0.7-0.14,0.93-0.39c0.23-0.25,0.33-0.59,0.31-0.93
	C168.43,108.21,165.23,105.45,162.94,104.13z M149.78,117.89c-3.4,0-6.45,2.08-7.63,5.17l-2.65,7.31c-0.79-3.07-1.63-6.37-1.63-6.37
	c-0.9-3.56-4.16-6.02-7.94-6.02h-10.04c-3.72,0-7.06,2.53-7.94,6.02c0,0-3.83,15.31-3.85,15.43c-0.32,1.48,0.54,2.96,1.99,3.42
	c0.05,0.02,0.11,0.03,0.16,0.04c0.22,0.04,0.45,0.08,0.66,0.08c1.38,0,2.57-0.88,2.84-2.21c0.01-0.07,3.08-11.89,3.08-11.89h0.04
	v5.4h16.19v-5.4h0.04l3.11,11.89c0.24,1.22,1.27,2.03,2.49,2.18c0.16,0.02,0.31,0.04,0.47,0.04c0.17,0,0.33-0.04,0.51-0.08
	c0.05-0.01,0.11-0.02,0.16-0.04c0.8-0.18,1.48-0.64,1.91-1.4c0.01-0.01,0.03-0.02,0.04-0.04c0.04-0.04,0.08-0.1,0.12-0.16
	c0.03-0.04,0.05-0.07,0.08-0.12c0.03-0.06,0.05-0.13,0.08-0.19l4.55-12.01h0.04c0.03-0.29,0.29-0.51,0.58-0.51
	c0.34,0,0.62,0.28,0.62,0.62c0,0.07-0.02,0.13-0.04,0.2l-5.53,14.53c-0.15,0.37-0.11,0.79,0.12,1.13c0.24,0.33,0.64,0.54,1.05,0.54
	h19.58c0.41,0,0.82-0.2,1.05-0.54c0.23-0.34,0.26-0.78,0.12-1.17l-5.53-14.49c-0.03-0.08-0.04-0.15-0.04-0.23
	c0-0.34,0.28-0.62,0.62-0.62c0.31,0,0.57,0.25,0.62,0.54l4.55,12.01c0.02,0.06,0.04,0.14,0.08,0.19c0.02,0.04,0.05,0.08,0.08,0.12
	c0.04,0.05,0.08,0.11,0.12,0.16c0.01,0.01,0.03,0.02,0.04,0.04c0.51,0.94,1.5,1.53,2.57,1.52c0.32,0,0.65-0.06,0.97-0.16
	c0.78-0.23,1.42-0.78,1.75-1.52c0.34-0.73,0.35-1.57,0.04-2.29c0-0.01-0.03-0.03-0.04-0.04l-5.72-15.89
	c-1.17-3.08-4.23-5.17-7.63-5.17H149.78z M116.85,135.49v8.7h16.19v-8.7H116.85z M116.85,145.44v13.06c0,1.71,1.4,3.11,3.11,3.11
	c1.71,0,3.11-1.4,3.11-3.11v-13.06H116.85z M126.82,145.44v13.06c0,1.71,1.4,3.11,3.11,3.11c1.71,0,3.11-1.4,3.11-3.11v-13.06
	H126.82z M147.6,146.68v12.43c0,1.37,1.12,2.49,2.49,2.49c1.37,0,2.49-1.12,2.49-2.49v-12.43H147.6z M153.83,146.68v12.43
	c0,1.37,1.12,2.49,2.49,2.49c1.37,0,2.49-1.12,2.49-2.49v-12.43H153.83z"/>
<path d="M73.85,99.43c4.81,0,8.72,3.9,8.72,8.7c0,4.8-3.91,8.7-8.72,8.7s-8.72-3.9-8.72-8.7
	C65.13,103.33,69.04,99.43,73.85,99.43z M45.59,99.43c4.81,0,8.72,3.9,8.72,8.7c0,4.8-3.91,8.7-8.72,8.7s-8.72-3.9-8.72-8.7
	C36.88,103.33,40.79,99.43,45.59,99.43z M54.7,104.13c2.29,1.32,5.49,4.08,5.84,10.14c0.02,0.34-0.12,0.69-0.35,0.93
	c-0.23,0.25-0.55,0.39-0.89,0.39h-4.98c-0.59,0-1.08-0.42-1.21-0.97c1.51-1.74,2.45-4.01,2.45-6.49
	C55.56,106.71,55.24,105.36,54.7,104.13z M36.48,104.13c-0.54,1.23-0.86,2.58-0.86,4c-0.01,2.38,0.85,4.69,2.41,6.49
	c-0.13,0.55-0.57,0.97-1.17,0.97h-4.98c-0.34,0-0.7-0.14-0.93-0.39c-0.23-0.25-0.33-0.59-0.31-0.93
	C30.99,108.21,34.19,105.45,36.48,104.13z M49.64,117.89c3.4,0,6.45,2.08,7.63,5.17l2.65,7.31c0.79-3.07,1.63-6.37,1.63-6.37
	c0.9-3.56,4.16-6.02,7.94-6.02h10.04c3.72,0,7.06,2.53,7.94,6.02c0,0,3.83,15.31,3.85,15.43c0.32,1.48-0.54,2.96-1.99,3.42
	c-0.05,0.02-0.11,0.03-0.16,0.04c-0.22,0.04-0.45,0.08-0.66,0.08c-1.38,0-2.57-0.88-2.84-2.21c-0.01-0.07-3.08-11.89-3.08-11.89
	h-0.04v5.4H66.38v-5.4h-0.04l-3.11,11.89c-0.24,1.22-1.27,2.03-2.49,2.18c-0.16,0.02-0.31,0.04-0.47,0.04
	c-0.17,0-0.33-0.04-0.51-0.08c-0.05-0.01-0.11-0.02-0.16-0.04c-0.8-0.18-1.48-0.64-1.91-1.4c-0.01-0.01-0.03-0.02-0.04-0.04
	c-0.04-0.04-0.08-0.1-0.12-0.16c-0.03-0.04-0.05-0.07-0.08-0.12c-0.03-0.06-0.05-0.13-0.08-0.19l-4.55-12.01h-0.04
	c-0.03-0.29-0.29-0.51-0.58-0.51c-0.34,0-0.62,0.28-0.62,0.62c0,0.07,0.02,0.13,0.04,0.2l5.53,14.53c0.15,0.37,0.11,0.79-0.12,1.13
	c-0.24,0.33-0.64,0.54-1.05,0.54H36.41c-0.41,0-0.82-0.2-1.05-0.54c-0.23-0.34-0.26-0.78-0.12-1.17l5.53-14.49
	c0.03-0.08,0.04-0.15,0.04-0.23c0-0.34-0.28-0.62-0.62-0.62c-0.31,0-0.57,0.25-0.62,0.54l-4.55,12.01
	c-0.02,0.06-0.04,0.14-0.08,0.19c-0.02,0.04-0.05,0.08-0.08,0.12c-0.04,0.05-0.08,0.11-0.12,0.16c-0.01,0.01-0.03,0.02-0.04,0.04
	c-0.51,0.94-1.5,1.53-2.57,1.52c-0.32,0-0.65-0.06-0.97-0.16c-0.78-0.23-1.42-0.78-1.75-1.52c-0.34-0.73-0.35-1.57-0.04-2.29
	c0-0.01,0.03-0.03,0.04-0.04l5.72-15.89c1.17-3.08,4.23-5.17,7.63-5.17H49.64z M82.57,135.49v8.7H66.38v-8.7H82.57z M82.57,145.44
	v13.06c0,1.71-1.4,3.11-3.11,3.11c-1.71,0-3.11-1.4-3.11-3.11v-13.06H82.57z M72.6,145.44v13.06c0,1.71-1.4,3.11-3.11,3.11
	c-1.71,0-3.11-1.4-3.11-3.11v-13.06H72.6z M51.82,146.68v12.43c0,1.37-1.12,2.49-2.49,2.49c-1.37,0-2.49-1.12-2.49-2.49v-12.43
	H51.82z M45.59,146.68v12.43c0,1.37-1.12,2.49-2.49,2.49c-1.37,0-2.49-1.12-2.49-2.49v-12.43H45.59z"/>
<path d="M90.41,36.91c-3.69,0-6.69,2.89-6.69,6.44s3,6.44,6.69,6.44
	s6.69-2.89,6.69-6.44S94.1,36.91,90.41,36.91z M112.08,36.91c-3.69,0-6.69,2.89-6.69,6.44s3,6.44,6.69,6.44s6.69-2.89,6.69-6.44
	S115.76,36.91,112.08,36.91z M105.1,40.39c-1.76,0.97-4.21,3.02-4.48,7.5c-0.01,0.25,0.09,0.51,0.27,0.69
	c0.18,0.18,0.42,0.29,0.69,0.29h3.82c0.45,0,0.83-0.31,0.93-0.72c-1.16-1.29-1.88-2.97-1.88-4.8
	C104.44,42.3,104.68,41.3,105.1,40.39z M119.06,40.39c0.42,0.91,0.66,1.91,0.66,2.96c0.01,1.76-0.65,3.47-1.85,4.8
	c0.1,0.41,0.44,0.72,0.89,0.72h3.82c0.26,0,0.54-0.1,0.72-0.29c0.18-0.18,0.25-0.44,0.24-0.69
	C123.28,43.42,120.82,41.37,119.06,40.39z M108.97,50.57c-2.6,0-4.95,1.54-5.85,3.82l-2.03,5.41c-0.61-2.27-1.25-4.72-1.25-4.72
	c-0.69-2.63-3.19-4.46-6.09-4.46h-7.7c-2.85,0-5.42,1.87-6.09,4.46c0,0-2.94,11.33-2.96,11.42c-0.25,1.1,0.41,2.19,1.52,2.53
	c0.04,0.01,0.08,0.02,0.12,0.03c0.17,0.03,0.34,0.06,0.51,0.06c1.06,0,1.97-0.65,2.18-1.64c0.01-0.05,2.36-8.8,2.36-8.8h0.03v4
	h12.42v-4h0.03l2.39,8.8c0.19,0.9,0.97,1.51,1.91,1.61c0.12,0.02,0.24,0.03,0.36,0.03c0.13,0,0.25-0.03,0.39-0.06
	c0.04-0.01,0.08-0.02,0.12-0.03c0.61-0.13,1.14-0.47,1.46-1.04c0.01-0.01,0.02-0.02,0.03-0.03c0.03-0.03,0.06-0.08,0.09-0.12
	c0.02-0.03,0.04-0.05,0.06-0.09c0.03-0.05,0.04-0.1,0.06-0.14l3.49-8.89h0.03c0.03-0.22,0.22-0.38,0.45-0.37
	c0.26,0,0.48,0.21,0.48,0.46c0,0.06-0.02,0.1-0.03,0.14l-4.24,10.75c-0.12,0.28-0.08,0.59,0.09,0.83c0.18,0.25,0.49,0.4,0.81,0.4
	h15.01c0.31,0,0.63-0.15,0.81-0.4c0.18-0.25,0.2-0.58,0.09-0.86l-4.24-10.73c-0.02-0.06-0.03-0.11-0.03-0.17
	c0-0.25,0.22-0.46,0.48-0.46c0.24,0,0.44,0.18,0.48,0.4l3.49,8.89c0.02,0.05,0.03,0.1,0.06,0.14c0.02,0.03,0.04,0.06,0.06,0.09
	c0.03,0.04,0.06,0.08,0.09,0.12c0.01,0.01,0.02,0.02,0.03,0.03c0.39,0.7,1.15,1.13,1.97,1.12c0.24,0,0.5-0.04,0.75-0.12
	c0.6-0.17,1.09-0.58,1.34-1.12c0.26-0.54,0.27-1.16,0.03-1.7c0-0.01-0.03-0.02-0.03-0.03l-4.39-11.76c-0.9-2.28-3.25-3.82-5.85-3.82
	H108.97z M83.73,63.6v6.44h12.42V63.6H83.73z M83.73,70.96v9.66c0,1.27,1.07,2.3,2.39,2.3s2.39-1.04,2.39-2.3v-9.66H83.73z
	 M91.37,70.96v9.66c0,1.27,1.07,2.3,2.39,2.3s2.39-1.04,2.39-2.3v-9.66H91.37z M107.3,71.88v9.2c0,1.01,0.86,1.84,1.91,1.84
	c1.05,0,1.91-0.83,1.91-1.84v-9.2H107.3z M112.08,71.88v9.2c0,1.01,0.86,1.84,1.91,1.84c1.05,0,1.91-0.83,1.91-1.84v-9.2H112.08z"/>
</svg>
