<?xml version="1.0" encoding="utf-8"?>
<!-- Generator: Adobe Illustrator 24.1.1, SVG Export Plug-In . SVG Version: 6.00 Build 0)  -->
<!DOCTYPE svg PUBLIC "-//W3C//DTD SVG 1.1 Basic//EN" "http://www.w3.org/Graphics/SVG/1.1/DTD/svg11-basic.dtd">
<svg version="1.1" baseProfile="basic" id="Layer_1"
	 xmlns="http://www.w3.org/2000/svg" xmlns:xlink="http://www.w3.org/1999/xlink" x="0px" y="0px" viewBox="0 0 198.99 198.85"
	 xml:space="preserve">
<path d="M150.5,136.54c-3.92,0-7.11,3.24-7.11,7.23c0,3.99,3.19,7.23,7.11,7.23s7.11-3.24,7.11-7.23
	C157.61,139.79,154.42,136.54,150.5,136.54z M173.55,136.54c-3.92,0-7.11,3.24-7.11,7.23c0,3.99,3.19,7.23,7.11,7.23
	s7.11-3.24,7.11-7.23C180.66,139.79,177.47,136.54,173.55,136.54z M166.12,140.45c-1.87,1.09-4.48,3.39-4.76,8.43
	c-0.02,0.28,0.1,0.57,0.29,0.78c0.19,0.21,0.45,0.32,0.73,0.32h4.06c0.48,0,0.88-0.35,0.98-0.81c-1.23-1.45-2-3.33-2-5.39
	C165.42,142.59,165.68,141.47,166.12,140.45z M180.98,140.45c0.44,1.02,0.7,2.14,0.7,3.33c0.01,1.98-0.69,3.9-1.97,5.39
	c0.1,0.46,0.47,0.81,0.95,0.81h4.06c0.28,0,0.57-0.12,0.76-0.32c0.19-0.21,0.27-0.49,0.25-0.78
	C185.47,143.85,182.85,141.55,180.98,140.45z M170.25,151.88c-2.77,0-5.26,1.73-6.22,4.29l-2.16,6.07c-0.65-2.55-1.33-5.3-1.33-5.3
	c-0.73-2.96-3.39-5.01-6.48-5.01h-8.19c-3.04,0-5.76,2.1-6.48,5.01c0,0-3.12,12.73-3.14,12.82c-0.26,1.23,0.44,2.46,1.62,2.84
	c0.04,0.02,0.09,0.02,0.13,0.03c0.18,0.04,0.37,0.06,0.54,0.06c1.13,0,2.1-0.73,2.32-1.84c0.01-0.06,2.51-9.88,2.51-9.88h0.03v4.49
	h13.21v-4.49h0.03l2.54,9.88c0.2,1.01,1.03,1.69,2.03,1.81c0.13,0.02,0.25,0.03,0.38,0.03c0.14,0,0.27-0.04,0.41-0.07
	c0.04-0.01,0.09-0.02,0.13-0.03c0.65-0.15,1.21-0.53,1.56-1.16c0.01-0.01,0.02-0.02,0.03-0.03c0.03-0.04,0.06-0.08,0.1-0.13
	c0.02-0.03,0.04-0.06,0.06-0.1c0.03-0.05,0.04-0.11,0.06-0.16l3.71-9.98h0.03c0.03-0.24,0.23-0.43,0.48-0.42
	c0.28,0,0.51,0.23,0.51,0.52c0,0.06-0.02,0.11-0.03,0.16l-4.51,12.08c-0.12,0.31-0.09,0.66,0.1,0.94s0.52,0.45,0.86,0.45h15.97
	c0.33,0,0.67-0.17,0.86-0.45s0.21-0.65,0.1-0.97l-4.51-12.04c-0.02-0.06-0.03-0.13-0.03-0.19c0-0.29,0.23-0.52,0.51-0.52
	c0.25,0,0.47,0.21,0.51,0.45l3.71,9.98c0.02,0.05,0.04,0.11,0.06,0.16c0.02,0.04,0.04,0.07,0.06,0.1c0.03,0.04,0.06,0.09,0.1,0.13
	c0.01,0.01,0.02,0.02,0.03,0.03c0.42,0.78,1.22,1.27,2.1,1.26c0.26,0,0.53-0.05,0.79-0.13c0.63-0.19,1.15-0.65,1.43-1.26
	c0.27-0.61,0.29-1.31,0.03-1.9c0-0.01-0.03-0.02-0.03-0.03l-4.67-13.21c-0.96-2.56-3.45-4.29-6.22-4.29H170.25z M143.39,166.51v7.23
	h13.21v-7.23H143.39z M143.39,174.78v10.85c0,1.42,1.14,2.58,2.54,2.58s2.54-1.16,2.54-2.58v-10.85H143.39z M151.52,174.78v10.85
	c0,1.42,1.14,2.58,2.54,2.58s2.54-1.16,2.54-2.58v-10.85H151.52z M168.47,175.81v10.33c0,1.14,0.91,2.07,2.03,2.07
	s2.03-0.93,2.03-2.07v-10.33H168.47z M173.55,175.81v10.33c0,1.14,0.91,2.07,2.03,2.07s2.03-0.93,2.03-2.07v-10.33H173.55z"/>
<path d="M37.9,94.77c-3.09,0-5.6,2.54-5.6,5.65c0,3.12,2.51,5.65,5.6,5.65s5.6-2.54,5.6-5.65S40.99,94.77,37.9,94.77z M56.06,94.77
	c-3.09,0-5.6,2.54-5.6,5.65c0,3.12,2.51,5.65,5.6,5.65s5.6-2.54,5.6-5.65S59.15,94.77,56.06,94.77z M50.21,97.82
	c-1.47,0.86-3.53,2.65-3.75,6.59c-0.01,0.22,0.08,0.44,0.23,0.61c0.15,0.16,0.35,0.25,0.57,0.25h3.2c0.38,0,0.69-0.27,0.78-0.63
	c-0.97-1.13-1.58-2.6-1.58-4.21C49.66,99.5,49.86,98.62,50.21,97.82z M61.91,97.82c0.35,0.8,0.55,1.67,0.55,2.6
	c0.01,1.55-0.55,3.04-1.55,4.21c0.08,0.36,0.37,0.63,0.75,0.63h3.2c0.22,0,0.45-0.09,0.6-0.25s0.21-0.38,0.2-0.61
	C65.44,100.48,63.38,98.68,61.91,97.82z M53.46,106.76c-2.18,0-4.15,1.35-4.9,3.36l-1.7,4.74c-0.51-1.99-1.05-4.14-1.05-4.14
	c-0.58-2.31-2.67-3.91-5.1-3.91h-6.45c-2.39,0-4.54,1.64-5.1,3.91c0,0-2.46,9.94-2.48,10.02c-0.21,0.96,0.35,1.92,1.28,2.22
	c0.03,0.01,0.07,0.02,0.1,0.03c0.14,0.03,0.29,0.05,0.43,0.05c0.89,0,1.65-0.57,1.82-1.44c0.01-0.05,1.98-7.72,1.98-7.72h0.02v3.51
	h10.4v-3.51h0.03l2,7.72c0.16,0.79,0.81,1.32,1.6,1.41c0.1,0.02,0.2,0.03,0.3,0.03c0.11,0,0.21-0.03,0.32-0.05
	c0.03-0.01,0.07-0.02,0.1-0.02c0.51-0.12,0.95-0.41,1.23-0.91c0.01-0.01,0.02-0.02,0.02-0.03c0.03-0.03,0.05-0.07,0.08-0.1
	c0.02-0.03,0.03-0.04,0.05-0.08s0.03-0.08,0.05-0.13l2.93-7.8h0.03c0.02-0.19,0.18-0.33,0.38-0.33c0.22,0,0.4,0.18,0.4,0.4
	c0,0.05-0.01,0.09-0.03,0.13l-3.55,9.44c-0.1,0.24-0.07,0.52,0.08,0.73c0.15,0.22,0.41,0.35,0.67,0.35h12.58
	c0.26,0,0.52-0.13,0.67-0.35s0.17-0.51,0.08-0.76l-3.55-9.41c-0.02-0.05-0.02-0.1-0.02-0.15c0-0.22,0.18-0.4,0.4-0.4
	c0.2,0,0.37,0.16,0.4,0.35l2.93,7.8c0.02,0.04,0.03,0.09,0.05,0.13c0.02,0.03,0.03,0.05,0.05,0.08c0.03,0.03,0.05,0.07,0.08,0.1
	c0.01,0.01,0.02,0.02,0.02,0.03c0.33,0.61,0.96,0.99,1.65,0.98c0.2,0,0.42-0.04,0.62-0.1c0.5-0.15,0.91-0.51,1.13-0.98
	c0.22-0.47,0.23-1.02,0.03-1.49c0-0.01-0.02-0.02-0.03-0.03l-3.68-10.32c-0.75-2-2.72-3.36-4.9-3.36
	C57.91,106.76,53.46,106.76,53.46,106.76z M32.3,118.19v5.65h10.4v-5.65H32.3z M32.3,124.64v8.48c0,1.11,0.9,2.02,2,2.02
	s2-0.91,2-2.02v-8.48H32.3z M38.7,124.64v8.48c0,1.11,0.9,2.02,2,2.02s2-0.91,2-2.02v-8.48H38.7z M52.06,125.45v8.07
	c0,0.89,0.72,1.61,1.6,1.61c0.88,0,1.6-0.73,1.6-1.61v-8.07C55.26,125.45,52.06,125.45,52.06,125.45z M56.06,125.45v8.07
	c0,0.89,0.72,1.61,1.6,1.61c0.88,0,1.6-0.73,1.6-1.61v-8.07C59.26,125.45,56.06,125.45,56.06,125.45z"/>
<path d="M89.84,137.5c-3.92,0-7.11,3.24-7.11,7.23c0,3.99,3.19,7.23,7.11,7.23s7.11-3.24,7.11-7.23S93.76,137.5,89.84,137.5z
	 M112.89,137.5c-3.92,0-7.11,3.24-7.11,7.23c0,3.99,3.19,7.23,7.11,7.23s7.11-3.24,7.11-7.23S116.81,137.5,112.89,137.5z
	 M105.46,141.4c-1.87,1.09-4.48,3.39-4.76,8.43c-0.02,0.28,0.1,0.57,0.29,0.78c0.19,0.21,0.45,0.32,0.73,0.32h4.06
	c0.48,0,0.88-0.35,0.98-0.81c-1.23-1.45-2-3.33-2-5.39C104.76,143.55,105.02,142.43,105.46,141.4z M120.32,141.4
	c0.44,1.02,0.7,2.14,0.7,3.33c0.01,1.98-0.69,3.9-1.97,5.39c0.1,0.46,0.47,0.81,0.95,0.81h4.06c0.28,0,0.57-0.12,0.76-0.32
	c0.19-0.21,0.27-0.49,0.25-0.78C124.81,144.8,122.19,142.5,120.32,141.4z M109.59,152.84c-2.77,0-5.26,1.73-6.22,4.29l-2.16,6.07
	c-0.65-2.55-1.33-5.3-1.33-5.3c-0.73-2.96-3.39-5.01-6.48-5.01h-8.2c-3.04,0-5.76,2.1-6.48,5.01c0,0-3.12,12.73-3.14,12.82
	c-0.26,1.23,0.44,2.46,1.62,2.84c0.04,0.02,0.09,0.02,0.13,0.03c0.18,0.04,0.37,0.06,0.54,0.06c1.13,0,2.1-0.73,2.32-1.84
	c0.01-0.06,2.51-9.88,2.51-9.88h0.03v4.49h13.21v-4.49h0.03l2.54,9.88c0.2,1.01,1.03,1.69,2.03,1.81c0.13,0.02,0.25,0.03,0.38,0.03
	c0.14,0,0.27-0.04,0.41-0.07c0.04-0.01,0.09-0.02,0.13-0.03c0.65-0.15,1.21-0.53,1.56-1.16c0.01-0.01,0.02-0.02,0.03-0.03
	c0.03-0.04,0.06-0.08,0.1-0.13c0.02-0.03,0.04-0.06,0.06-0.1c0.03-0.05,0.04-0.11,0.06-0.16l3.71-9.98h0.03
	c0.03-0.24,0.23-0.43,0.48-0.42c0.28,0,0.51,0.23,0.51,0.52c0,0.06-0.02,0.11-0.03,0.16l-4.51,12.08c-0.12,0.31-0.09,0.66,0.1,0.94
	c0.19,0.28,0.52,0.45,0.86,0.45h15.97c0.33,0,0.67-0.17,0.86-0.45s0.21-0.65,0.1-0.97l-4.51-12.04c-0.02-0.06-0.03-0.13-0.03-0.19
	c0-0.29,0.23-0.52,0.51-0.52c0.25,0,0.47,0.21,0.51,0.45l3.71,9.98c0.02,0.05,0.04,0.11,0.06,0.16c0.02,0.04,0.04,0.07,0.06,0.1
	c0.03,0.04,0.06,0.09,0.1,0.13c0.01,0.01,0.02,0.02,0.03,0.03c0.42,0.78,1.22,1.27,2.1,1.26c0.26,0,0.53-0.05,0.79-0.13
	c0.63-0.19,1.15-0.65,1.43-1.26c0.27-0.61,0.29-1.31,0.03-1.9c0-0.01-0.03-0.02-0.03-0.03l-4.67-13.21
	c-0.96-2.56-3.45-4.29-6.22-4.29H109.59z M82.73,167.46v7.23h13.21v-7.23H82.73z M82.73,175.73v10.85c0,1.42,1.14,2.58,2.54,2.58
	s2.54-1.16,2.54-2.58v-10.85H82.73z M90.86,175.73v10.85c0,1.42,1.14,2.58,2.54,2.58s2.54-1.16,2.54-2.58v-10.85H90.86z
	 M107.81,176.77v10.33c0,1.14,0.91,2.07,2.03,2.07c1.12,0,2.03-0.93,2.03-2.07v-10.33H107.81z M112.89,176.77v10.33
	c0,1.14,0.91,2.07,2.03,2.07c1.12,0,2.03-0.93,2.03-2.07v-10.33H112.89z"/>
<path d="M27.55,137.5c-3.92,0-7.11,3.24-7.11,7.23c0,3.99,3.19,7.23,7.11,7.23s7.11-3.24,7.11-7.23S31.47,137.5,27.55,137.5z
	 M50.6,137.5c-3.92,0-7.11,3.24-7.11,7.23c0,3.99,3.19,7.23,7.11,7.23s7.11-3.24,7.11-7.23S54.52,137.5,50.6,137.5z M43.17,141.4
	c-1.87,1.09-4.48,3.39-4.76,8.43c-0.02,0.28,0.1,0.57,0.29,0.78c0.19,0.21,0.45,0.32,0.73,0.32h4.06c0.48,0,0.88-0.35,0.98-0.81
	c-1.23-1.45-2-3.33-2-5.39C42.47,143.55,42.73,142.43,43.17,141.4z M58.03,141.4c0.44,1.02,0.7,2.14,0.7,3.33
	c0.01,1.98-0.69,3.9-1.97,5.39c0.1,0.46,0.47,0.81,0.95,0.81h4.06c0.28,0,0.57-0.12,0.76-0.32c0.19-0.21,0.27-0.49,0.25-0.78
	C62.51,144.8,59.9,142.5,58.03,141.4z M47.3,152.84c-2.77,0-5.26,1.73-6.22,4.29l-2.16,6.07c-0.65-2.55-1.33-5.3-1.33-5.3
	c-0.73-2.96-3.39-5.01-6.48-5.01h-8.19c-3.04,0-5.76,2.1-6.48,5.01c0,0-3.12,12.73-3.14,12.82c-0.26,1.23,0.44,2.46,1.62,2.84
	c0.04,0.02,0.09,0.02,0.13,0.03c0.18,0.04,0.37,0.06,0.54,0.06c1.13,0,2.1-0.73,2.32-1.84c0.01-0.06,2.51-9.88,2.51-9.88h0.03v4.49
	h13.21v-4.49h0.03l2.54,9.88c0.2,1.01,1.03,1.69,2.03,1.81c0.13,0.02,0.25,0.03,0.38,0.03c0.14,0,0.27-0.04,0.41-0.07
	c0.04-0.01,0.09-0.02,0.13-0.03c0.65-0.15,1.21-0.53,1.56-1.16c0.01-0.01,0.02-0.02,0.03-0.03c0.03-0.04,0.06-0.08,0.1-0.13
	c0.02-0.03,0.04-0.06,0.06-0.1c0.03-0.05,0.04-0.11,0.06-0.16l3.71-9.98h0.03c0.03-0.24,0.23-0.43,0.48-0.42
	c0.28,0,0.51,0.23,0.51,0.52c0,0.06-0.02,0.11-0.03,0.16l-4.51,12.08c-0.12,0.31-0.09,0.66,0.1,0.94s0.52,0.45,0.86,0.45h15.97
	c0.33,0,0.67-0.17,0.86-0.45c0.19-0.28,0.21-0.65,0.1-0.97l-4.51-12.04c-0.02-0.06-0.03-0.13-0.03-0.19c0-0.29,0.23-0.52,0.51-0.52
	c0.25,0,0.47,0.21,0.51,0.45l3.71,9.98c0.02,0.05,0.04,0.11,0.06,0.16c0.02,0.04,0.04,0.07,0.06,0.1c0.03,0.04,0.06,0.09,0.1,0.13
	c0.01,0.01,0.02,0.02,0.03,0.03c0.42,0.78,1.22,1.27,2.1,1.26c0.26,0,0.53-0.05,0.79-0.13c0.63-0.19,1.15-0.65,1.43-1.26
	c0.27-0.61,0.29-1.31,0.03-1.9c0-0.01-0.03-0.02-0.03-0.03l-4.67-13.21c-0.96-2.56-3.45-4.29-6.22-4.29H47.3z M20.44,167.46v7.23
	h13.21v-7.23H20.44z M20.44,175.73v10.85c0,1.42,1.14,2.58,2.54,2.58s2.54-1.16,2.54-2.58v-10.85H20.44z M28.57,175.73v10.85
	c0,1.42,1.14,2.58,2.54,2.58s2.54-1.16,2.54-2.58v-10.85H28.57z M45.52,176.77v10.33c0,1.14,0.91,2.07,2.03,2.07
	s2.03-0.93,2.03-2.07v-10.33H45.52z M50.6,176.77v10.33c0,1.14,0.91,2.07,2.03,2.07s2.03-0.93,2.03-2.07v-10.33H50.6z"/>
<path d="M93.41,94.77c-3.09,0-5.6,2.54-5.6,5.65c0,3.12,2.51,5.65,5.6,5.65s5.6-2.54,5.6-5.65S96.5,94.77,93.41,94.77z
	 M111.56,94.77c-3.09,0-5.6,2.54-5.6,5.65c0,3.12,2.51,5.65,5.6,5.65s5.6-2.54,5.6-5.65C117.16,97.31,114.65,94.77,111.56,94.77z
	 M105.71,97.82c-1.47,0.86-3.53,2.65-3.75,6.59c-0.01,0.22,0.08,0.44,0.23,0.61c0.15,0.16,0.35,0.25,0.57,0.25h3.2
	c0.38,0,0.69-0.27,0.78-0.63c-0.97-1.13-1.58-2.6-1.58-4.21C105.16,99.5,105.36,98.62,105.71,97.82z M117.41,97.82
	c0.35,0.8,0.55,1.67,0.55,2.6c0.01,1.55-0.55,3.04-1.55,4.21c0.08,0.36,0.37,0.63,0.75,0.63h3.2c0.22,0,0.45-0.09,0.6-0.25
	s0.21-0.38,0.2-0.61C120.95,100.48,118.89,98.68,117.41,97.82z M108.96,106.76c-2.18,0-4.15,1.35-4.9,3.36l-1.7,4.74
	c-0.51-1.99-1.05-4.14-1.05-4.14c-0.58-2.31-2.67-3.91-5.1-3.91h-6.45c-2.39,0-4.54,1.64-5.1,3.91c0,0-2.46,9.94-2.48,10.02
	c-0.21,0.96,0.35,1.92,1.28,2.22c0.03,0.01,0.07,0.02,0.1,0.03c0.14,0.03,0.29,0.05,0.43,0.05c0.89,0,1.65-0.57,1.82-1.44
	c0.01-0.05,1.98-7.72,1.98-7.72h0.02v3.51h10.4v-3.51h0.03l2,7.72c0.16,0.79,0.81,1.32,1.6,1.41c0.1,0.02,0.2,0.03,0.3,0.03
	c0.11,0,0.21-0.03,0.32-0.05c0.03-0.01,0.07-0.02,0.1-0.02c0.51-0.12,0.95-0.41,1.23-0.91c0.01-0.01,0.02-0.02,0.02-0.03
	c0.03-0.03,0.05-0.07,0.08-0.1c0.02-0.03,0.03-0.04,0.05-0.08c0.02-0.04,0.03-0.08,0.05-0.13l2.93-7.8h0.03
	c0.02-0.19,0.18-0.33,0.38-0.33c0.22,0,0.4,0.18,0.4,0.4c0,0.05-0.01,0.09-0.03,0.13l-3.55,9.44c-0.1,0.24-0.07,0.52,0.08,0.73
	c0.15,0.22,0.41,0.35,0.67,0.35h12.58c0.26,0,0.52-0.13,0.67-0.35s0.17-0.51,0.08-0.76l-3.55-9.41c-0.02-0.05-0.02-0.1-0.02-0.15
	c0-0.22,0.18-0.4,0.4-0.4c0.2,0,0.37,0.16,0.4,0.35l2.93,7.8c0.02,0.04,0.03,0.09,0.05,0.13c0.02,0.03,0.03,0.05,0.05,0.08
	c0.03,0.03,0.05,0.07,0.08,0.1c0.01,0.01,0.02,0.02,0.02,0.03c0.33,0.61,0.96,0.99,1.65,0.98c0.2,0,0.42-0.04,0.62-0.1
	c0.5-0.15,0.91-0.51,1.13-0.98c0.22-0.47,0.23-1.02,0.03-1.49c0-0.01-0.02-0.02-0.03-0.03l-3.68-10.32c-0.75-2-2.72-3.36-4.9-3.36
	C113.41,106.76,108.96,106.76,108.96,106.76z M87.81,118.19v5.65h10.4v-5.65H87.81z M87.81,124.64v8.48c0,1.11,0.9,2.02,2,2.02
	s2-0.91,2-2.02v-8.48H87.81z M94.21,124.64v8.48c0,1.11,0.9,2.02,2,2.02s2-0.91,2-2.02v-8.48H94.21z M107.56,125.45v8.07
	c0,0.89,0.72,1.61,1.6,1.61s1.6-0.73,1.6-1.61v-8.07C110.76,125.45,107.56,125.45,107.56,125.45z M111.56,125.45v8.07
	c0,0.89,0.72,1.61,1.6,1.61s1.6-0.73,1.6-1.61v-8.07C114.76,125.45,111.56,125.45,111.56,125.45z"/>
<path d="M147.63,94.03c-3.09,0-5.6,2.54-5.6,5.65c0,3.12,2.51,5.65,5.6,5.65s5.6-2.54,5.6-5.65
	C153.23,96.56,150.72,94.03,147.63,94.03z M165.78,94.03c-3.09,0-5.6,2.54-5.6,5.65c0,3.12,2.51,5.65,5.6,5.65s5.6-2.54,5.6-5.65
	C171.38,96.56,168.87,94.03,165.78,94.03z M159.93,97.08c-1.47,0.86-3.53,2.65-3.75,6.59c-0.01,0.22,0.08,0.44,0.23,0.61
	c0.15,0.16,0.35,0.25,0.57,0.25h3.2c0.38,0,0.69-0.27,0.78-0.63c-0.97-1.13-1.58-2.6-1.58-4.21
	C159.38,98.75,159.58,97.88,159.93,97.08z M171.64,97.08c0.35,0.8,0.55,1.67,0.55,2.6c0.01,1.55-0.55,3.04-1.55,4.21
	c0.08,0.36,0.37,0.63,0.75,0.63h3.2c0.22,0,0.45-0.09,0.6-0.25c0.15-0.16,0.21-0.38,0.2-0.61
	C175.17,99.73,173.11,97.93,171.64,97.08z M163.18,106.01c-2.18,0-4.15,1.35-4.9,3.36l-1.7,4.74c-0.51-1.99-1.05-4.14-1.05-4.14
	c-0.58-2.31-2.67-3.91-5.1-3.91h-6.45c-2.39,0-4.54,1.64-5.1,3.91c0,0-2.46,9.94-2.48,10.02c-0.21,0.96,0.35,1.92,1.28,2.22
	c0.03,0.01,0.07,0.02,0.1,0.03c0.14,0.03,0.29,0.05,0.43,0.05c0.89,0,1.65-0.57,1.82-1.44c0.01-0.05,1.98-7.72,1.98-7.72h0.02v3.51
	h10.4v-3.51h0.03l2,7.72c0.16,0.79,0.81,1.32,1.6,1.41c0.1,0.02,0.2,0.03,0.3,0.03c0.11,0,0.21-0.03,0.32-0.05
	c0.03-0.01,0.07-0.02,0.1-0.02c0.51-0.12,0.95-0.41,1.23-0.91c0.01-0.01,0.02-0.02,0.02-0.03c0.03-0.03,0.05-0.07,0.08-0.1
	c0.02-0.03,0.03-0.04,0.05-0.08s0.03-0.08,0.05-0.13l2.93-7.8h0.03c0.02-0.19,0.18-0.33,0.38-0.33c0.22,0,0.4,0.18,0.4,0.4
	c0,0.05-0.01,0.09-0.03,0.13l-3.55,9.44c-0.1,0.24-0.07,0.52,0.08,0.73c0.15,0.22,0.41,0.35,0.67,0.35h12.58
	c0.26,0,0.52-0.13,0.67-0.35s0.17-0.51,0.08-0.76l-3.55-9.41c-0.02-0.05-0.02-0.1-0.02-0.15c0-0.22,0.18-0.4,0.4-0.4
	c0.2,0,0.37,0.16,0.4,0.35l2.93,7.8c0.02,0.04,0.03,0.09,0.05,0.13c0.02,0.03,0.03,0.05,0.05,0.08c0.03,0.03,0.05,0.07,0.08,0.1
	c0.01,0.01,0.02,0.02,0.02,0.03c0.33,0.61,0.96,0.99,1.65,0.98c0.2,0,0.42-0.04,0.62-0.1c0.5-0.15,0.91-0.51,1.13-0.98
	s0.23-1.02,0.03-1.49c0-0.01-0.02-0.02-0.03-0.03l-3.68-10.32c-0.75-2-2.72-3.36-4.9-3.36
	C167.63,106.01,163.18,106.01,163.18,106.01z M142.03,117.44v5.65h10.4v-5.65H142.03z M142.03,123.9v8.48c0,1.11,0.9,2.02,2,2.02
	s2-0.91,2-2.02v-8.48C146.03,123.9,142.03,123.9,142.03,123.9z M148.43,123.9v8.48c0,1.11,0.9,2.02,2,2.02s2-0.91,2-2.02v-8.48
	C152.43,123.9,148.43,123.9,148.43,123.9z M161.78,124.71v8.07c0,0.89,0.72,1.61,1.6,1.61s1.6-0.73,1.6-1.61v-8.07H161.78z
	 M165.78,124.71v8.07c0,0.89,0.72,1.61,1.6,1.61s1.6-0.73,1.6-1.61v-8.07H165.78z"/>
<path d="M27.68,59.63c-2.32,0-4.2,1.9-4.2,4.24c0,2.34,1.88,4.24,4.2,4.24s4.2-1.9,4.2-4.24C31.88,61.53,29.99,59.63,27.68,59.63z
	 M41.29,59.63c-2.32,0-4.2,1.9-4.2,4.24c0,2.34,1.88,4.24,4.2,4.24s4.2-1.9,4.2-4.24C45.49,61.53,43.61,59.63,41.29,59.63z
	 M36.91,61.92c-1.1,0.64-2.65,1.99-2.81,4.94c-0.01,0.17,0.06,0.33,0.17,0.45c0.11,0.12,0.26,0.19,0.43,0.19h2.4
	c0.28,0,0.52-0.21,0.58-0.47c-0.73-0.85-1.18-1.95-1.18-3.16C36.49,63.18,36.64,62.52,36.91,61.92z M45.68,61.92
	c0.26,0.6,0.41,1.26,0.41,1.95c0,1.16-0.41,2.28-1.16,3.16c0.06,0.27,0.28,0.47,0.56,0.47h2.4c0.16,0,0.34-0.07,0.45-0.19
	s0.16-0.29,0.15-0.45C48.33,63.91,46.79,62.56,45.68,61.92z M39.34,68.62c-1.64,0-3.11,1.01-3.68,2.52l-1.28,3.56
	c-0.38-1.49-0.79-3.1-0.79-3.1c-0.43-1.73-2-2.93-3.83-2.93h-4.84c-1.79,0-3.4,1.23-3.83,2.93c0,0-1.84,7.46-1.86,7.51
	c-0.15,0.72,0.26,1.44,0.96,1.67c0.02,0.01,0.05,0.01,0.08,0.02c0.11,0.02,0.22,0.04,0.32,0.04c0.67,0,1.24-0.43,1.37-1.08
	c0.01-0.04,1.48-5.79,1.48-5.79h0.02v2.63h7.8v-2.63h0.02l1.5,5.79c0.12,0.59,0.61,0.99,1.2,1.06c0.08,0.01,0.15,0.02,0.23,0.02
	s0.16-0.02,0.24-0.04c0.02,0,0.05-0.01,0.08-0.02c0.38-0.09,0.72-0.31,0.92-0.68c0-0.01,0.01-0.01,0.02-0.02
	c0.02-0.02,0.04-0.05,0.06-0.08c0.01-0.02,0.03-0.03,0.04-0.06c0.02-0.03,0.03-0.06,0.04-0.09L37.8,74h0.02
	c0.02-0.14,0.14-0.25,0.28-0.25c0.16,0,0.3,0.14,0.3,0.3c0,0.04-0.01,0.06-0.02,0.1l-2.66,7.08c-0.07,0.18-0.05,0.39,0.06,0.55
	s0.31,0.26,0.51,0.26h9.43c0.2,0,0.39-0.1,0.51-0.27c0.11-0.17,0.13-0.38,0.06-0.57l-2.66-7.06c-0.01-0.04-0.02-0.08-0.02-0.11
	c0-0.17,0.14-0.3,0.3-0.3c0.15,0,0.28,0.12,0.3,0.27l2.19,5.85c0.01,0.03,0.02,0.07,0.04,0.09c0.01,0.02,0.03,0.04,0.04,0.06
	c0.02,0.03,0.04,0.05,0.06,0.08c0,0.01,0.01,0.01,0.02,0.02c0.25,0.46,0.72,0.74,1.24,0.74c0.15,0,0.31-0.03,0.47-0.08
	c0.37-0.11,0.68-0.38,0.84-0.74c0.16-0.35,0.17-0.77,0.02-1.12c0-0.01-0.02-0.01-0.02-0.02l-2.76-7.74
	c-0.57-1.5-2.04-2.52-3.68-2.52H39.34z M23.48,77.19v4.24h7.8v-4.24H23.48z M23.48,82.04v6.36c0,0.83,0.68,1.51,1.5,1.51
	c0.83,0,1.5-0.68,1.5-1.51v-6.36H23.48z M28.28,82.04v6.36c0,0.83,0.68,1.51,1.5,1.51c0.83,0,1.5-0.68,1.5-1.51v-6.36H28.28z
	 M38.29,82.64v6.06c0,0.67,0.54,1.21,1.2,1.21s1.2-0.54,1.2-1.21v-6.06H38.29z M41.29,82.64v6.06c0,0.67,0.54,1.21,1.2,1.21
	s1.2-0.54,1.2-1.21v-6.06H41.29z"/>
<path d="M72.78,60.07c-2.32,0-4.2,1.9-4.2,4.24s1.88,4.24,4.2,4.24s4.2-1.9,4.2-4.24S75.1,60.07,72.78,60.07z M86.4,60.07
	c-2.32,0-4.2,1.9-4.2,4.24s1.88,4.24,4.2,4.24s4.2-1.9,4.2-4.24S88.71,60.07,86.4,60.07z M82.01,62.36
	c-1.1,0.64-2.65,1.99-2.81,4.94c-0.01,0.17,0.06,0.33,0.17,0.45c0.11,0.12,0.26,0.19,0.43,0.19h2.4c0.28,0,0.52-0.21,0.58-0.47
	c-0.73-0.85-1.18-1.95-1.18-3.16C81.6,63.62,81.75,62.96,82.01,62.36z M90.79,62.36c0.26,0.6,0.41,1.26,0.41,1.95
	c0,1.16-0.41,2.28-1.16,3.16c0.06,0.27,0.28,0.47,0.56,0.47H93c0.16,0,0.34-0.07,0.45-0.19s0.16-0.29,0.15-0.45
	C93.44,64.35,91.89,63,90.79,62.36z M84.45,69.06c-1.64,0-3.11,1.01-3.68,2.52l-1.28,3.56c-0.38-1.49-0.79-3.1-0.79-3.1
	c-0.43-1.73-2-2.93-3.83-2.93h-4.84c-1.79,0-3.4,1.23-3.83,2.93c0,0-1.84,7.46-1.86,7.51c-0.15,0.72,0.26,1.44,0.96,1.67
	c0.02,0.01,0.05,0.01,0.08,0.02c0.11,0.02,0.22,0.04,0.32,0.04c0.67,0,1.24-0.43,1.37-1.08c0.01-0.04,1.48-5.79,1.48-5.79h0.02v2.63
	h7.8V74.4h0.02l1.5,5.79c0.12,0.59,0.61,0.99,1.2,1.06c0.08,0.01,0.15,0.02,0.23,0.02s0.16-0.02,0.24-0.04
	c0.02,0,0.05-0.01,0.08-0.02c0.38-0.09,0.72-0.31,0.92-0.68c0-0.01,0.01-0.01,0.02-0.02c0.02-0.02,0.04-0.05,0.06-0.08
	c0.01-0.02,0.03-0.03,0.04-0.06c0.02-0.03,0.03-0.06,0.04-0.09l2.19-5.85h0.02c0.02-0.14,0.14-0.25,0.28-0.25
	c0.16,0,0.3,0.14,0.3,0.3c0,0.04-0.01,0.06-0.02,0.1l-2.66,7.08c-0.07,0.18-0.05,0.39,0.06,0.55s0.31,0.26,0.51,0.26h9.43
	c0.2,0,0.39-0.1,0.51-0.27c0.11-0.17,0.13-0.38,0.06-0.57l-2.66-7.06c-0.01-0.04-0.02-0.08-0.02-0.11c0-0.17,0.14-0.3,0.3-0.3
	c0.15,0,0.28,0.12,0.3,0.27l2.19,5.85c0.01,0.03,0.02,0.07,0.04,0.09c0.01,0.02,0.03,0.04,0.04,0.06c0.02,0.03,0.04,0.05,0.06,0.08
	c0,0.01,0.01,0.01,0.02,0.02c0.25,0.46,0.72,0.74,1.24,0.74c0.15,0,0.31-0.03,0.47-0.08c0.37-0.11,0.68-0.38,0.84-0.74
	c0.16-0.35,0.17-0.77,0.02-1.12c0-0.01-0.02-0.01-0.02-0.02l-2.76-7.74c-0.57-1.5-2.04-2.52-3.68-2.52L84.45,69.06L84.45,69.06z
	 M68.58,77.63v4.24h7.8v-4.24H68.58z M68.58,82.48v6.36c0,0.83,0.68,1.51,1.5,1.51s1.5-0.68,1.5-1.51v-6.36H68.58z M73.38,82.48
	v6.36c0,0.83,0.68,1.51,1.5,1.51c0.83,0,1.5-0.68,1.5-1.51v-6.36H73.38z M83.4,83.08v6.06c0,0.67,0.54,1.21,1.2,1.21
	c0.66,0,1.2-0.54,1.2-1.21v-6.06H83.4z M86.4,83.08v6.06c0,0.67,0.54,1.21,1.2,1.21c0.66,0,1.2-0.54,1.2-1.21v-6.06H86.4z"/>
<path d="M115.41,59.63c-2.32,0-4.2,1.9-4.2,4.24c0,2.34,1.88,4.24,4.2,4.24s4.2-1.9,4.2-4.24
	C119.61,61.53,117.72,59.63,115.41,59.63z M129.02,59.63c-2.32,0-4.2,1.9-4.2,4.24c0,2.34,1.88,4.24,4.2,4.24s4.2-1.9,4.2-4.24
	C133.22,61.53,131.34,59.63,129.02,59.63z M124.63,61.92c-1.1,0.64-2.65,1.99-2.81,4.94c-0.01,0.17,0.06,0.33,0.17,0.45
	c0.11,0.12,0.26,0.19,0.43,0.19h2.4c0.28,0,0.52-0.21,0.58-0.47c-0.73-0.85-1.18-1.95-1.18-3.16
	C124.22,63.18,124.37,62.52,124.63,61.92z M133.41,61.92c0.26,0.6,0.41,1.26,0.41,1.95c0,1.16-0.41,2.28-1.16,3.16
	c0.06,0.27,0.28,0.47,0.56,0.47h2.4c0.16,0,0.34-0.07,0.45-0.19s0.16-0.29,0.15-0.45C136.06,63.91,134.52,62.56,133.41,61.92z
	 M127.07,68.62c-1.64,0-3.11,1.01-3.68,2.52l-1.28,3.56c-0.38-1.49-0.79-3.1-0.79-3.1c-0.43-1.73-2-2.93-3.83-2.93h-4.84
	c-1.79,0-3.4,1.23-3.83,2.93c0,0-1.84,7.46-1.86,7.51c-0.15,0.72,0.26,1.44,0.96,1.67c0.02,0.01,0.05,0.01,0.08,0.02
	c0.11,0.02,0.22,0.04,0.32,0.04c0.67,0,1.24-0.43,1.37-1.08c0.01-0.04,1.48-5.79,1.48-5.79h0.02v2.63h7.8v-2.63h0.02l1.5,5.79
	c0.12,0.59,0.61,0.99,1.2,1.06c0.08,0.01,0.15,0.02,0.23,0.02s0.16-0.02,0.24-0.04c0.02,0,0.05-0.01,0.08-0.02
	c0.38-0.09,0.72-0.31,0.92-0.68c0-0.01,0.01-0.01,0.02-0.02c0.02-0.02,0.04-0.05,0.06-0.08c0.01-0.02,0.03-0.03,0.04-0.06
	c0.02-0.03,0.03-0.06,0.04-0.09l2.19-5.85h0.02c0.02-0.14,0.14-0.25,0.28-0.25c0.16,0,0.3,0.14,0.3,0.3c0,0.04-0.01,0.06-0.02,0.1
	l-2.66,7.08c-0.07,0.18-0.05,0.39,0.06,0.55s0.31,0.26,0.51,0.26h9.43c0.2,0,0.39-0.1,0.51-0.27c0.11-0.17,0.13-0.38,0.06-0.57
	l-2.66-7.06c-0.01-0.04-0.02-0.08-0.02-0.11c0-0.17,0.14-0.3,0.3-0.3c0.15,0,0.28,0.12,0.3,0.27l2.19,5.85
	c0.01,0.03,0.02,0.07,0.04,0.09c0.01,0.02,0.03,0.04,0.04,0.06c0.02,0.03,0.04,0.05,0.06,0.08c0,0.01,0.01,0.01,0.02,0.02
	c0.25,0.46,0.72,0.74,1.24,0.74c0.15,0,0.31-0.03,0.47-0.08c0.37-0.11,0.68-0.38,0.84-0.74c0.16-0.35,0.17-0.77,0.02-1.12
	c0-0.01-0.02-0.01-0.02-0.02l-2.76-7.74c-0.57-1.5-2.04-2.52-3.68-2.52H127.07z M111.2,77.19v4.24h7.8v-4.24H111.2z M111.2,82.04
	v6.36c0,0.83,0.68,1.51,1.5,1.51c0.83,0,1.5-0.68,1.5-1.51v-6.36H111.2z M116.01,82.04v6.36c0,0.83,0.68,1.51,1.5,1.51
	c0.83,0,1.5-0.68,1.5-1.51v-6.36H116.01z M126.02,82.64v6.06c0,0.67,0.54,1.21,1.2,1.21s1.2-0.54,1.2-1.21v-6.06H126.02z
	 M129.02,82.64v6.06c0,0.67,0.54,1.21,1.2,1.21s1.2-0.54,1.2-1.21v-6.06H129.02z"/>
<path d="M160.81,59.63c-2.32,0-4.2,1.9-4.2,4.24c0,2.34,1.88,4.24,4.2,4.24s4.2-1.9,4.2-4.24
	C165.01,61.53,163.13,59.63,160.81,59.63z M174.43,59.63c-2.32,0-4.2,1.9-4.2,4.24c0,2.34,1.88,4.24,4.2,4.24s4.2-1.9,4.2-4.24
	C178.63,61.53,176.74,59.63,174.43,59.63z M170.04,61.92c-1.1,0.64-2.65,1.99-2.81,4.94c-0.01,0.17,0.06,0.33,0.17,0.45
	c0.11,0.12,0.26,0.19,0.43,0.19h2.4c0.28,0,0.52-0.21,0.58-0.47c-0.73-0.85-1.18-1.95-1.18-3.16
	C169.63,63.18,169.78,62.52,170.04,61.92z M178.82,61.92c0.26,0.6,0.41,1.26,0.41,1.95c0,1.16-0.41,2.28-1.16,3.16
	c0.06,0.27,0.28,0.47,0.56,0.47h2.4c0.16,0,0.34-0.07,0.45-0.19s0.16-0.29,0.15-0.45C181.46,63.91,179.92,62.56,178.82,61.92z
	 M172.47,68.62c-1.64,0-3.11,1.01-3.68,2.52l-1.28,3.56c-0.38-1.49-0.79-3.1-0.79-3.1c-0.43-1.73-2-2.93-3.83-2.93h-4.84
	c-1.79,0-3.4,1.23-3.83,2.93c0,0-1.84,7.46-1.86,7.51c-0.15,0.72,0.26,1.44,0.96,1.67c0.02,0.01,0.05,0.01,0.08,0.02
	c0.11,0.02,0.22,0.04,0.32,0.04c0.67,0,1.24-0.43,1.37-1.08c0.01-0.04,1.48-5.79,1.48-5.79h0.02v2.63h7.8v-2.63h0.02l1.5,5.79
	c0.12,0.59,0.61,0.99,1.2,1.06c0.08,0.01,0.15,0.02,0.23,0.02s0.16-0.02,0.24-0.04c0.02,0,0.05-0.01,0.08-0.02
	c0.38-0.09,0.72-0.31,0.92-0.68c0-0.01,0.01-0.01,0.02-0.02c0.02-0.02,0.04-0.05,0.06-0.08c0.01-0.02,0.03-0.03,0.04-0.06
	c0.02-0.03,0.03-0.06,0.04-0.09l2.19-5.85h0.02c0.02-0.14,0.14-0.25,0.28-0.25c0.16,0,0.3,0.14,0.3,0.3c0,0.04-0.01,0.06-0.02,0.1
	l-2.66,7.08c-0.07,0.18-0.05,0.39,0.06,0.55s0.31,0.26,0.51,0.26h9.43c0.2,0,0.39-0.1,0.51-0.27c0.11-0.17,0.13-0.38,0.06-0.57
	l-2.66-7.06c-0.01-0.04-0.02-0.08-0.02-0.11c0-0.17,0.14-0.3,0.3-0.3c0.15,0,0.28,0.12,0.3,0.27l2.19,5.85
	c0.01,0.03,0.02,0.07,0.04,0.09c0.01,0.02,0.03,0.04,0.04,0.06c0.02,0.03,0.04,0.05,0.06,0.08c0,0.01,0.01,0.01,0.02,0.02
	c0.25,0.46,0.72,0.74,1.24,0.74c0.15,0,0.31-0.03,0.47-0.08c0.37-0.11,0.68-0.38,0.84-0.74c0.16-0.35,0.17-0.77,0.02-1.12
	c0-0.01-0.02-0.01-0.02-0.02l-2.76-7.74c-0.57-1.5-2.04-2.52-3.68-2.52H172.47z M156.61,77.19v4.24h7.8v-4.24H156.61z M156.61,82.04
	v6.36c0,0.83,0.68,1.51,1.5,1.51c0.83,0,1.5-0.68,1.5-1.51v-6.36H156.61z M161.41,82.04v6.36c0,0.83,0.68,1.51,1.5,1.51
	s1.5-0.68,1.5-1.51v-6.36H161.41z M171.42,82.64v6.06c0,0.67,0.54,1.21,1.2,1.21s1.2-0.54,1.2-1.21v-6.06H171.42z M174.43,82.64
	v6.06c0,0.67,0.54,1.21,1.2,1.21s1.2-0.54,1.2-1.21v-6.06H174.43z"/>
<path d="M60.41,33.35c-1.54,0-2.8,1.27-2.8,2.83s1.26,2.83,2.8,2.83s2.8-1.27,2.8-2.83S61.96,33.35,60.41,33.35z M69.49,33.35
	c-1.54,0-2.8,1.27-2.8,2.83s1.26,2.83,2.8,2.83s2.8-1.27,2.8-2.83S71.03,33.35,69.49,33.35z M66.56,34.88
	c-0.74,0.43-1.76,1.33-1.88,3.29c-0.01,0.11,0.04,0.22,0.11,0.3c0.07,0.08,0.18,0.13,0.29,0.13h1.6c0.19,0,0.35-0.14,0.39-0.32
	c-0.49-0.57-0.79-1.3-0.79-2.11C66.29,35.72,66.39,35.28,66.56,34.88z M72.42,34.88c0.17,0.4,0.27,0.84,0.27,1.3
	c0,0.77-0.27,1.52-0.78,2.11c0.04,0.18,0.18,0.32,0.37,0.32h1.6c0.11,0,0.23-0.05,0.3-0.13c0.08-0.08,0.11-0.19,0.1-0.3
	C74.18,36.2,73.15,35.31,72.42,34.88z M68.19,39.34c-1.09,0-2.07,0.68-2.45,1.68l-0.85,2.37c-0.25-1-0.52-2.07-0.52-2.07
	c-0.29-1.15-1.34-1.96-2.55-1.96h-3.23c-1.2,0-2.27,0.82-2.55,1.96c0,0-1.23,4.97-1.24,5.01c-0.1,0.48,0.17,0.96,0.64,1.11
	c0.02,0.01,0.03,0.01,0.05,0.01c0.07,0.01,0.14,0.03,0.21,0.03c0.44,0,0.83-0.29,0.91-0.72c0-0.02,0.99-3.86,0.99-3.86h0.01v1.75
	h5.2V42.9h0.01l1,3.86c0.08,0.4,0.41,0.66,0.8,0.71c0.05,0.01,0.1,0.01,0.15,0.01c0.06,0,0.1-0.01,0.16-0.03
	c0.02,0,0.03-0.01,0.05-0.01c0.26-0.06,0.48-0.21,0.61-0.45l0.01-0.01c0.01-0.01,0.03-0.03,0.04-0.05c0.01-0.01,0.02-0.02,0.02-0.04
	c0.01-0.02,0.02-0.04,0.03-0.06l1.46-3.9h0.01c0.01-0.1,0.09-0.17,0.19-0.16c0.11,0,0.2,0.09,0.2,0.2c0,0.02-0.01,0.04-0.01,0.06
	l-1.78,4.72c-0.05,0.12-0.03,0.26,0.04,0.37c0.08,0.11,0.2,0.18,0.34,0.18h6.29c0.13,0,0.26-0.07,0.34-0.18
	c0.08-0.11,0.08-0.25,0.04-0.38l-1.78-4.71c-0.01-0.02-0.01-0.05-0.01-0.08c0-0.11,0.09-0.2,0.2-0.2c0.1,0,0.18,0.08,0.2,0.18
	l1.46,3.9c0.01,0.02,0.01,0.04,0.03,0.06c0.01,0.01,0.02,0.03,0.02,0.04c0.01,0.02,0.03,0.04,0.04,0.05l0.01,0.01
	c0.16,0.31,0.48,0.5,0.83,0.49c0.1,0,0.21-0.02,0.31-0.05c0.25-0.07,0.45-0.25,0.56-0.49s0.11-0.51,0.01-0.74l-0.01-0.01l-1.84-5.16
	c-0.38-1-1.36-1.68-2.45-1.68h-2.2V39.34z M57.61,45.06v2.83h5.2v-2.83C62.81,45.06,57.61,45.06,57.61,45.06z M57.61,48.29v4.24
	c0,0.56,0.45,1.01,1,1.01s1-0.45,1-1.01v-4.24H57.61z M60.81,48.29v4.24c0,0.56,0.45,1.01,1,1.01s1-0.45,1-1.01v-4.24H60.81z
	 M67.49,48.69v4.04c0,0.44,0.36,0.81,0.8,0.81c0.44,0,0.8-0.36,0.8-0.81v-4.04H67.49z M69.49,48.69v4.04c0,0.44,0.36,0.81,0.8,0.81
	s0.8-0.36,0.8-0.81v-4.04H69.49z"/>
<path d="M96.25,32.98c-1.54,0-2.8,1.27-2.8,2.83c0,1.56,1.26,2.83,2.8,2.83s2.8-1.27,2.8-2.83C99.05,34.25,97.79,32.98,96.25,32.98z
	 M105.33,32.98c-1.54,0-2.8,1.27-2.8,2.83c0,1.56,1.26,2.83,2.8,2.83s2.8-1.27,2.8-2.83C108.13,34.25,106.87,32.98,105.33,32.98z
	 M102.4,34.51c-0.74,0.43-1.76,1.33-1.88,3.29c-0.01,0.11,0.04,0.22,0.11,0.3c0.07,0.08,0.18,0.13,0.29,0.13h1.6
	c0.19,0,0.35-0.14,0.39-0.32c-0.49-0.57-0.79-1.3-0.79-2.11C102.13,35.34,102.23,34.91,102.4,34.51z M108.25,34.51
	c0.17,0.4,0.27,0.84,0.27,1.3c0,0.77-0.27,1.52-0.78,2.11c0.04,0.18,0.18,0.32,0.37,0.32h1.6c0.11,0,0.23-0.05,0.3-0.13
	c0.08-0.08,0.11-0.19,0.1-0.3C110.02,35.83,108.99,34.93,108.25,34.51z M104.03,38.97c-1.09,0-2.07,0.68-2.45,1.68l-0.85,2.37
	c-0.25-1-0.52-2.07-0.52-2.07c-0.29-1.15-1.34-1.96-2.55-1.96h-3.23c-1.2,0-2.27,0.82-2.55,1.96c0,0-1.23,4.97-1.24,5.01
	c-0.1,0.48,0.17,0.96,0.64,1.11c0.02,0.01,0.03,0.01,0.05,0.01c0.07,0.01,0.14,0.03,0.21,0.03c0.44,0,0.83-0.29,0.91-0.72
	c0-0.02,0.99-3.86,0.99-3.86h0.01v1.75h5.2v-1.75h0.01l1,3.86c0.08,0.4,0.41,0.66,0.8,0.71c0.05,0.01,0.1,0.01,0.15,0.01
	c0.06,0,0.1-0.01,0.16-0.03c0.02,0,0.03-0.01,0.05-0.01c0.26-0.06,0.48-0.21,0.61-0.45l0.01-0.01c0.01-0.01,0.03-0.03,0.04-0.05
	c0.01-0.01,0.02-0.02,0.02-0.04c0.01-0.02,0.02-0.04,0.03-0.06l1.46-3.9H103c0.01-0.1,0.09-0.17,0.19-0.16c0.11,0,0.2,0.09,0.2,0.2
	c0,0.02-0.01,0.04-0.01,0.06l-1.78,4.72c-0.05,0.12-0.03,0.26,0.04,0.37c0.08,0.11,0.2,0.18,0.34,0.18h6.29
	c0.13,0,0.26-0.07,0.34-0.18c0.08-0.11,0.08-0.25,0.04-0.38l-1.78-4.71c-0.01-0.02-0.01-0.05-0.01-0.08c0-0.11,0.09-0.2,0.2-0.2
	c0.1,0,0.18,0.08,0.2,0.18l1.46,3.9c0.01,0.02,0.01,0.04,0.03,0.06c0.01,0.01,0.02,0.03,0.02,0.04c0.01,0.02,0.03,0.04,0.04,0.05
	l0.01,0.01c0.16,0.31,0.48,0.5,0.83,0.49c0.1,0,0.21-0.02,0.31-0.05c0.25-0.07,0.45-0.25,0.56-0.49s0.11-0.51,0.01-0.74l-0.01-0.01
	l-1.84-5.16c-0.38-1-1.36-1.68-2.45-1.68L104.03,38.97L104.03,38.97z M93.45,44.69v2.83h5.2v-2.83
	C98.65,44.69,93.45,44.69,93.45,44.69z M93.45,47.92v4.24c0,0.56,0.45,1.01,1,1.01s1-0.45,1-1.01v-4.24H93.45z M96.65,47.92v4.24
	c0,0.56,0.45,1.01,1,1.01s1-0.45,1-1.01v-4.24H96.65z M103.33,48.32v4.04c0,0.44,0.36,0.81,0.8,0.81s0.8-0.36,0.8-0.81v-4.04H103.33
	z M105.33,48.32v4.04c0,0.44,0.36,0.81,0.8,0.81s0.8-0.36,0.8-0.81v-4.04H105.33z"/>
<path d="M135.57,33.35c-1.54,0-2.8,1.27-2.8,2.83s1.26,2.83,2.8,2.83s2.8-1.27,2.8-2.83C138.37,34.62,137.11,33.35,135.57,33.35z
	 M144.64,33.35c-1.54,0-2.8,1.27-2.8,2.83s1.26,2.83,2.8,2.83s2.8-1.27,2.8-2.83S146.19,33.35,144.64,33.35z M141.72,34.88
	c-0.74,0.43-1.76,1.33-1.88,3.29c-0.01,0.11,0.04,0.22,0.11,0.3c0.07,0.08,0.18,0.13,0.29,0.13h1.6c0.19,0,0.35-0.14,0.39-0.32
	c-0.49-0.57-0.79-1.3-0.79-2.11C141.44,35.72,141.54,35.28,141.72,34.88z M147.57,34.88c0.17,0.4,0.27,0.84,0.27,1.3
	c0,0.77-0.27,1.52-0.78,2.11c0.04,0.18,0.18,0.32,0.37,0.32h1.6c0.11,0,0.23-0.05,0.3-0.13c0.08-0.08,0.11-0.19,0.1-0.3
	C149.34,36.2,148.31,35.31,147.57,34.88z M143.34,39.34c-1.09,0-2.07,0.68-2.45,1.68l-0.85,2.37c-0.25-1-0.52-2.07-0.52-2.07
	c-0.29-1.15-1.34-1.96-2.55-1.96h-3.23c-1.2,0-2.27,0.82-2.55,1.96c0,0-1.23,4.97-1.24,5.01c-0.1,0.48,0.17,0.96,0.64,1.11
	c0.02,0.01,0.03,0.01,0.05,0.01c0.07,0.01,0.14,0.03,0.21,0.03c0.44,0,0.83-0.29,0.91-0.72c0-0.02,0.99-3.86,0.99-3.86h0.01v1.75
	h5.2V42.9h0.01l1,3.86c0.08,0.4,0.41,0.66,0.8,0.71c0.05,0.01,0.1,0.01,0.15,0.01c0.06,0,0.1-0.01,0.16-0.03
	c0.02,0,0.03-0.01,0.05-0.01c0.26-0.06,0.48-0.21,0.61-0.45l0.01-0.01c0.01-0.01,0.03-0.03,0.04-0.05c0.01-0.01,0.02-0.02,0.02-0.04
	c0.01-0.02,0.02-0.04,0.03-0.06l1.46-3.9h0.01c0.01-0.1,0.09-0.17,0.19-0.16c0.11,0,0.2,0.09,0.2,0.2c0,0.02-0.01,0.04-0.01,0.06
	l-1.78,4.72c-0.05,0.12-0.03,0.26,0.04,0.37c0.08,0.11,0.2,0.18,0.34,0.18h6.29c0.13,0,0.26-0.07,0.34-0.18s0.08-0.25,0.04-0.38
	l-1.78-4.71c-0.01-0.02-0.01-0.05-0.01-0.08c0-0.11,0.09-0.2,0.2-0.2c0.1,0,0.18,0.08,0.2,0.18l1.46,3.9
	c0.01,0.02,0.01,0.04,0.03,0.06c0.01,0.01,0.02,0.03,0.02,0.04c0.01,0.02,0.03,0.04,0.04,0.05l0.01,0.01
	c0.16,0.31,0.48,0.5,0.83,0.49c0.1,0,0.21-0.02,0.31-0.05c0.25-0.07,0.45-0.25,0.56-0.49s0.11-0.51,0.01-0.74l-0.01-0.01l-1.84-5.16
	c-0.38-1-1.36-1.68-2.45-1.68h-2.2V39.34z M132.76,45.06v2.83h5.2v-2.83C137.96,45.06,132.76,45.06,132.76,45.06z M132.76,48.29
	v4.24c0,0.56,0.45,1.01,1,1.01s1-0.45,1-1.01v-4.24H132.76z M135.97,48.29v4.24c0,0.56,0.45,1.01,1,1.01s1-0.45,1-1.01v-4.24H135.97
	z M142.64,48.69v4.04c0,0.44,0.36,0.81,0.8,0.81s0.8-0.36,0.8-0.81v-4.04H142.64z M144.64,48.69v4.04c0,0.44,0.36,0.81,0.8,0.81
	s0.8-0.36,0.8-0.81v-4.04H144.64z"/>
<path d="M22.07,33.72c-1.54,0-2.8,1.27-2.8,2.83s1.26,2.83,2.8,2.83s2.8-1.27,2.8-2.83C24.87,34.99,23.62,33.72,22.07,33.72z
	 M31.15,33.72c-1.54,0-2.8,1.27-2.8,2.83s1.26,2.83,2.8,2.83s2.8-1.27,2.8-2.83C33.95,34.99,32.69,33.72,31.15,33.72z M28.23,35.25
	c-0.74,0.43-1.76,1.33-1.88,3.29c-0.01,0.11,0.04,0.22,0.11,0.3c0.07,0.08,0.18,0.13,0.29,0.13h1.6c0.19,0,0.35-0.14,0.39-0.32
	c-0.49-0.57-0.79-1.3-0.79-2.11C27.95,36.09,28.05,35.65,28.23,35.25z M34.08,35.25c0.17,0.4,0.27,0.84,0.27,1.3
	c0,0.77-0.27,1.52-0.78,2.11c0.04,0.18,0.18,0.32,0.37,0.32h1.6c0.11,0,0.23-0.05,0.3-0.13c0.08-0.08,0.11-0.19,0.1-0.3
	C35.84,36.58,34.81,35.68,34.08,35.25z M29.85,39.72c-1.09,0-2.07,0.68-2.45,1.68l-0.85,2.37c-0.25-1-0.52-2.07-0.52-2.07
	c-0.29-1.15-1.34-1.96-2.55-1.96h-3.23c-1.2,0-2.27,0.82-2.55,1.96c0,0-1.23,4.97-1.24,5.01c-0.1,0.48,0.17,0.96,0.64,1.11
	c0.02,0.01,0.03,0.01,0.05,0.01c0.07,0.01,0.14,0.03,0.21,0.03c0.44,0,0.83-0.29,0.91-0.72c0-0.02,0.99-3.86,0.99-3.86h0.01v1.75
	h5.2v-1.75h0.01l1,3.86c0.08,0.4,0.41,0.66,0.8,0.71c0.05,0.01,0.1,0.01,0.15,0.01c0.06,0,0.1-0.01,0.16-0.03
	c0.02,0,0.03-0.01,0.05-0.01c0.26-0.06,0.48-0.21,0.61-0.45l0.01-0.01c0.01-0.01,0.03-0.03,0.04-0.05c0.01-0.01,0.02-0.02,0.02-0.04
	c0.01-0.02,0.02-0.04,0.03-0.06l1.46-3.9h0.01c0.01-0.1,0.09-0.17,0.19-0.16c0.11,0,0.2,0.09,0.2,0.2c0,0.02-0.01,0.04-0.01,0.06
	l-1.78,4.72c-0.05,0.12-0.03,0.26,0.04,0.37c0.08,0.11,0.2,0.18,0.34,0.18h6.29c0.13,0,0.26-0.07,0.34-0.18s0.08-0.25,0.04-0.38
	L32.7,43.4c-0.01-0.02-0.01-0.05-0.01-0.08c0-0.11,0.09-0.2,0.2-0.2c0.1,0,0.18,0.08,0.2,0.18l1.46,3.9
	c0.01,0.02,0.01,0.04,0.03,0.06c0.01,0.01,0.02,0.03,0.02,0.04c0.01,0.02,0.03,0.04,0.04,0.05l0.01,0.01
	c0.16,0.31,0.48,0.5,0.83,0.49c0.1,0,0.21-0.02,0.31-0.05c0.25-0.07,0.45-0.25,0.56-0.49s0.11-0.51,0.01-0.74l-0.01-0.01l-1.84-5.16
	c-0.38-1-1.36-1.68-2.45-1.68H29.85z M19.27,45.43v2.83h5.2v-2.83H19.27z M19.27,48.66v4.24c0,0.56,0.45,1.01,1,1.01s1-0.45,1-1.01
	v-4.24C21.27,48.66,19.27,48.66,19.27,48.66z M22.47,48.66v4.24c0,0.56,0.45,1.01,1,1.01c0.55,0,1-0.45,1-1.01v-4.24
	C24.47,48.66,22.47,48.66,22.47,48.66z M29.15,49.06v4.04c0,0.44,0.36,0.81,0.8,0.81c0.44,0,0.8-0.36,0.8-0.81v-4.04H29.15z
	 M31.15,49.06v4.04c0,0.44,0.36,0.81,0.8,0.81c0.44,0,0.8-0.36,0.8-0.81v-4.04H31.15z"/>
<path d="M169.46,34.1c-1.54,0-2.8,1.27-2.8,2.83s1.26,2.83,2.8,2.83s2.8-1.27,2.8-2.83S171.01,34.1,169.46,34.1z M178.54,34.1
	c-1.54,0-2.8,1.27-2.8,2.83s1.26,2.83,2.8,2.83s2.8-1.27,2.8-2.83S180.08,34.1,178.54,34.1z M175.61,35.62
	c-0.74,0.43-1.76,1.33-1.88,3.29c-0.01,0.11,0.04,0.22,0.11,0.3c0.07,0.08,0.18,0.13,0.29,0.13h1.6c0.19,0,0.35-0.14,0.39-0.32
	c-0.49-0.57-0.79-1.3-0.79-2.11C175.34,36.46,175.44,36.02,175.61,35.62z M181.47,35.62c0.17,0.4,0.27,0.84,0.27,1.3
	c0,0.77-0.27,1.52-0.78,2.11c0.04,0.18,0.18,0.32,0.37,0.32h1.6c0.11,0,0.23-0.05,0.3-0.13c0.08-0.08,0.11-0.19,0.1-0.3
	C183.23,36.95,182.2,36.05,181.47,35.62z M177.24,40.09c-1.09,0-2.07,0.68-2.45,1.68l-0.85,2.37c-0.25-1-0.52-2.07-0.52-2.07
	c-0.29-1.15-1.34-1.96-2.55-1.96h-3.23c-1.2,0-2.27,0.82-2.55,1.96c0,0-1.23,4.97-1.24,5.01c-0.1,0.48,0.17,0.96,0.64,1.11
	c0.02,0.01,0.03,0.01,0.05,0.01c0.07,0.01,0.14,0.03,0.21,0.03c0.44,0,0.83-0.29,0.91-0.72c0-0.02,0.99-3.86,0.99-3.86h0.01v1.75
	h5.2v-1.75h0.01l1,3.86c0.08,0.4,0.41,0.66,0.8,0.71c0.05,0.01,0.1,0.01,0.15,0.01c0.06,0,0.1-0.01,0.16-0.03
	c0.02,0,0.03-0.01,0.05-0.01c0.26-0.06,0.48-0.21,0.61-0.45l0.01-0.01c0.01-0.01,0.03-0.03,0.04-0.05c0.01-0.01,0.02-0.02,0.02-0.04
	c0.01-0.02,0.02-0.04,0.03-0.06l1.46-3.9h0.01c0.01-0.1,0.09-0.17,0.19-0.16c0.11,0,0.2,0.09,0.2,0.2c0,0.02-0.01,0.04-0.01,0.06
	l-1.78,4.72c-0.05,0.12-0.03,0.26,0.04,0.37c0.08,0.11,0.2,0.18,0.34,0.18h6.29c0.13,0,0.26-0.07,0.34-0.18s0.08-0.25,0.04-0.38
	l-1.78-4.71c-0.01-0.02-0.01-0.05-0.01-0.08c0-0.11,0.09-0.2,0.2-0.2c0.1,0,0.18,0.08,0.2,0.18l1.46,3.9
	c0.01,0.02,0.01,0.04,0.03,0.06c0.01,0.01,0.02,0.03,0.02,0.04c0.01,0.02,0.03,0.04,0.04,0.05l0.01,0.01
	c0.16,0.31,0.48,0.5,0.83,0.49c0.1,0,0.21-0.02,0.31-0.05c0.25-0.07,0.45-0.25,0.56-0.49s0.11-0.51,0.01-0.74l-0.01-0.01l-1.84-5.16
	c-0.38-1-1.36-1.68-2.45-1.68L177.24,40.09L177.24,40.09z M166.66,45.8v2.83h5.2V45.8H166.66z M166.66,49.03v4.24
	c0,0.56,0.45,1.01,1,1.01s1-0.45,1-1.01v-4.24H166.66z M169.86,49.03v4.24c0,0.56,0.45,1.01,1,1.01s1-0.45,1-1.01v-4.24H169.86z
	 M176.54,49.44v4.04c0,0.44,0.36,0.81,0.8,0.81s0.8-0.36,0.8-0.81v-4.04H176.54z M178.54,49.44v4.04c0,0.44,0.36,0.81,0.8,0.81
	s0.8-0.36,0.8-0.81v-4.04H178.54z"/>
<path d="M24.99,11.84c-1.16,0-2.1,0.95-2.1,2.12s0.94,2.12,2.1,2.12s2.1-0.95,2.1-2.12S26.15,11.84,24.99,11.84z M31.8,11.84
	c-1.16,0-2.1,0.95-2.1,2.12s0.94,2.12,2.1,2.12s2.1-0.95,2.1-2.12S32.96,11.84,31.8,11.84z M29.61,12.99
	c-0.55,0.32-1.32,0.99-1.41,2.47c0,0.08,0.03,0.17,0.08,0.23c0.06,0.06,0.13,0.09,0.22,0.09h1.2c0.14,0,0.26-0.1,0.29-0.24
	c-0.36-0.42-0.59-0.98-0.59-1.58C29.4,13.61,29.48,13.29,29.61,12.99z M34,12.99c0.13,0.3,0.21,0.63,0.21,0.97
	c0,0.58-0.2,1.14-0.58,1.58c0.03,0.13,0.14,0.24,0.28,0.24h1.2c0.08,0,0.17-0.03,0.23-0.09s0.08-0.14,0.08-0.23
	C35.32,13.98,34.55,13.31,34,12.99z M30.83,16.34c-0.82,0-1.55,0.51-1.84,1.26l-0.64,1.78c-0.19-0.75-0.39-1.55-0.39-1.55
	c-0.22-0.87-1-1.47-1.91-1.47h-2.42c-0.9,0-1.7,0.62-1.91,1.47c0,0-0.92,3.73-0.93,3.76c-0.08,0.36,0.13,0.72,0.48,0.83
	c0.01,0,0.03,0.01,0.04,0.01c0.05,0.01,0.11,0.02,0.16,0.02c0.33,0,0.62-0.21,0.68-0.54c0-0.02,0.74-2.9,0.74-2.9h0.01v1.32h3.9V19
	h0.01l0.75,2.9c0.06,0.3,0.3,0.5,0.6,0.53c0.04,0.01,0.08,0.01,0.11,0.01c0.04,0,0.08-0.01,0.12-0.02c0.01,0,0.03-0.01,0.04-0.01
	c0.19-0.04,0.36-0.16,0.46-0.34l0.01-0.01c0.01-0.01,0.02-0.02,0.03-0.04c0.01-0.01,0.01-0.02,0.02-0.03
	c0.01-0.02,0.01-0.03,0.02-0.05l1.1-2.92h0.01c0.01-0.07,0.07-0.13,0.14-0.12c0.08,0,0.15,0.07,0.15,0.15c0,0.02,0,0.03-0.01,0.05
	l-1.33,3.54c-0.04,0.09-0.03,0.19,0.03,0.27c0.06,0.08,0.15,0.13,0.25,0.13h4.72c0.1,0,0.2-0.05,0.25-0.13
	c0.06-0.08,0.06-0.19,0.03-0.28l-1.33-3.53c-0.01-0.02-0.01-0.04-0.01-0.06c0-0.08,0.07-0.15,0.15-0.15s0.14,0.06,0.15,0.13
	l1.1,2.92c0.01,0.02,0.01,0.03,0.02,0.05c0.01,0.01,0.01,0.02,0.02,0.03c0.01,0.01,0.02,0.03,0.03,0.04l0.01,0.01
	c0.12,0.23,0.36,0.37,0.62,0.37c0.08,0,0.16-0.01,0.23-0.04c0.19-0.06,0.34-0.19,0.42-0.37c0.08-0.18,0.09-0.38,0.01-0.56
	l-0.01-0.01l-1.38-3.87c-0.28-0.75-1.02-1.26-1.84-1.26h-1.67V16.34z M22.89,20.62v2.12h3.9v-2.12
	C26.79,20.62,22.89,20.62,22.89,20.62z M22.89,23.04v3.18c0,0.42,0.34,0.76,0.75,0.76s0.75-0.34,0.75-0.76v-3.18H22.89z
	 M25.29,23.04v3.18c0,0.42,0.34,0.76,0.75,0.76s0.75-0.34,0.75-0.76v-3.18H25.29z M30.3,23.35v3.03c0,0.33,0.27,0.61,0.6,0.61
	s0.6-0.27,0.6-0.61v-3.03H30.3z M31.8,23.35v3.03c0,0.33,0.27,0.61,0.6,0.61c0.33,0,0.6-0.27,0.6-0.61v-3.03H31.8z"/>
<path d="M53.42,11.68c-1.16,0-2.1,0.95-2.1,2.12s0.94,2.12,2.1,2.12s2.1-0.95,2.1-2.12S54.57,11.68,53.42,11.68z M60.22,11.68
	c-1.16,0-2.1,0.95-2.1,2.12s0.94,2.12,2.1,2.12s2.1-0.95,2.1-2.12S61.38,11.68,60.22,11.68z M58.03,12.82
	c-0.55,0.32-1.32,0.99-1.41,2.47c0,0.08,0.03,0.17,0.08,0.23c0.06,0.06,0.13,0.09,0.22,0.09h1.2c0.14,0,0.26-0.1,0.29-0.24
	c-0.36-0.42-0.59-0.98-0.59-1.58C57.82,13.45,57.9,13.12,58.03,12.82z M62.42,12.82c0.13,0.3,0.21,0.63,0.21,0.97
	c0,0.58-0.2,1.14-0.58,1.58c0.03,0.13,0.14,0.24,0.28,0.24h1.2c0.08,0,0.17-0.03,0.23-0.09s0.08-0.14,0.08-0.23
	C63.74,13.82,62.97,13.14,62.42,12.82z M59.25,16.17c-0.82,0-1.55,0.51-1.84,1.26l-0.64,1.78c-0.19-0.75-0.39-1.55-0.39-1.55
	c-0.22-0.87-1-1.47-1.91-1.47h-2.42c-0.9,0-1.7,0.62-1.91,1.47c0,0-0.92,3.73-0.93,3.76c-0.08,0.36,0.13,0.72,0.48,0.83
	c0.01,0,0.03,0.01,0.04,0.01c0.05,0.01,0.11,0.02,0.16,0.02c0.33,0,0.62-0.21,0.68-0.54c0-0.02,0.74-2.9,0.74-2.9h0.01v1.32h3.9
	v-1.32h0.01l0.75,2.9c0.06,0.3,0.3,0.5,0.6,0.53c0.04,0.01,0.08,0.01,0.11,0.01c0.04,0,0.08-0.01,0.12-0.02
	c0.01,0,0.03-0.01,0.04-0.01c0.19-0.04,0.36-0.16,0.46-0.34l0.01-0.01c0.01-0.01,0.02-0.02,0.03-0.04c0.01-0.01,0.01-0.02,0.02-0.03
	c0.01-0.02,0.01-0.03,0.02-0.05l1.1-2.92h0.01c0.01-0.07,0.07-0.13,0.14-0.12c0.08,0,0.15,0.07,0.15,0.15c0,0.02,0,0.03-0.01,0.05
	l-1.33,3.54c-0.04,0.09-0.03,0.19,0.03,0.27c0.06,0.08,0.15,0.13,0.25,0.13h4.72c0.1,0,0.2-0.05,0.25-0.13
	c0.06-0.08,0.06-0.19,0.03-0.28l-1.33-3.53c-0.01-0.02-0.01-0.04-0.01-0.06c0-0.08,0.07-0.15,0.15-0.15s0.14,0.06,0.15,0.13
	l1.1,2.92c0.01,0.02,0.01,0.03,0.02,0.05c0.01,0.01,0.01,0.02,0.02,0.03c0.01,0.01,0.02,0.03,0.03,0.04l0.01,0.01
	c0.12,0.23,0.36,0.37,0.62,0.37c0.08,0,0.16-0.01,0.23-0.04c0.19-0.06,0.34-0.19,0.42-0.37s0.09-0.38,0.01-0.56l-0.01-0.01
	l-1.38-3.87c-0.28-0.75-1.02-1.26-1.84-1.26H59.25z M51.31,20.46v2.12h3.9v-2.12H51.31z M51.31,22.88v3.18
	c0,0.42,0.34,0.76,0.75,0.76s0.75-0.34,0.75-0.76v-3.18H51.31z M53.72,22.88v3.18c0,0.42,0.34,0.76,0.75,0.76s0.75-0.34,0.75-0.76
	v-3.18H53.72z M58.72,23.18v3.03c0,0.33,0.27,0.61,0.6,0.61c0.33,0,0.6-0.27,0.6-0.61v-3.03H58.72z M60.22,23.18v3.03
	c0,0.33,0.27,0.61,0.6,0.61c0.33,0,0.6-0.27,0.6-0.61v-3.03H60.22z"/>
<path d="M82.84,11.93c-1.16,0-2.1,0.95-2.1,2.12s0.94,2.12,2.1,2.12s2.1-0.95,2.1-2.12S84,11.93,82.84,11.93z M89.64,11.93
	c-1.16,0-2.1,0.95-2.1,2.12s0.94,2.12,2.1,2.12s2.1-0.95,2.1-2.12S90.8,11.93,89.64,11.93z M87.45,13.08
	c-0.55,0.32-1.32,0.99-1.41,2.47c0,0.08,0.03,0.17,0.08,0.23c0.06,0.06,0.13,0.09,0.22,0.09h1.2c0.14,0,0.26-0.1,0.29-0.24
	c-0.36-0.42-0.59-0.98-0.59-1.58C87.24,13.71,87.32,13.38,87.45,13.08z M91.84,13.08c0.13,0.3,0.21,0.63,0.21,0.97
	c0,0.58-0.2,1.14-0.58,1.58c0.03,0.13,0.14,0.24,0.28,0.24h1.2c0.08,0,0.17-0.03,0.23-0.09c0.06-0.06,0.08-0.14,0.08-0.23
	C93.16,14.07,92.39,13.4,91.84,13.08z M88.67,16.43c-0.82,0-1.55,0.51-1.84,1.26l-0.64,1.78c-0.19-0.75-0.39-1.55-0.39-1.55
	c-0.22-0.87-1-1.47-1.91-1.47h-2.42c-0.9,0-1.7,0.62-1.91,1.47c0,0-0.92,3.73-0.93,3.76c-0.08,0.36,0.13,0.72,0.48,0.83
	c0.01,0,0.03,0.01,0.04,0.01c0.05,0.01,0.11,0.02,0.16,0.02c0.33,0,0.62-0.21,0.68-0.54c0-0.02,0.74-2.9,0.74-2.9h0.01v1.32h3.9
	V19.1h0.01L85.4,22c0.06,0.3,0.3,0.5,0.6,0.53c0.04,0.01,0.08,0.01,0.11,0.01c0.04,0,0.08-0.01,0.12-0.02
	c0.01,0,0.03-0.01,0.04-0.01c0.19-0.04,0.36-0.16,0.46-0.34l0.01-0.01c0.01-0.01,0.02-0.02,0.03-0.04c0.01-0.01,0.01-0.02,0.02-0.03
	c0.01-0.02,0.01-0.03,0.02-0.05l1.1-2.92h0.01c0.01-0.07,0.07-0.13,0.14-0.12c0.08,0,0.15,0.07,0.15,0.15c0,0.02,0,0.03-0.01,0.05
	l-1.33,3.54c-0.04,0.09-0.03,0.19,0.03,0.27s0.15,0.13,0.25,0.13h4.72c0.1,0,0.2-0.05,0.25-0.13c0.06-0.08,0.06-0.19,0.03-0.28
	l-1.33-3.53c-0.01-0.02-0.01-0.04-0.01-0.06c0-0.08,0.07-0.15,0.15-0.15s0.14,0.06,0.15,0.13l1.1,2.92
	c0.01,0.02,0.01,0.03,0.02,0.05c0.01,0.01,0.01,0.02,0.02,0.03c0.01,0.01,0.02,0.03,0.03,0.04l0.01,0.01
	c0.12,0.23,0.36,0.37,0.62,0.37c0.08,0,0.16-0.01,0.23-0.04c0.19-0.06,0.34-0.19,0.42-0.37s0.09-0.38,0.01-0.56l-0.01-0.01
	l-1.38-3.87c-0.28-0.75-1.02-1.26-1.84-1.26C90.34,16.43,88.67,16.43,88.67,16.43z M80.74,20.71v2.12h3.9v-2.12H80.74z M80.74,23.14
	v3.18c0,0.42,0.34,0.76,0.75,0.76s0.75-0.34,0.75-0.76v-3.18H80.74z M83.14,23.14v3.18c0,0.42,0.34,0.76,0.75,0.76
	s0.75-0.34,0.75-0.76v-3.18H83.14z M88.14,23.44v3.03c0,0.33,0.27,0.61,0.6,0.61s0.6-0.27,0.6-0.61v-3.03H88.14z M89.65,23.44v3.03
	c0,0.33,0.27,0.61,0.6,0.61s0.6-0.27,0.6-0.61v-3.03H89.65z"/>
<path d="M112.23,11.96c-1.16,0-2.1,0.95-2.1,2.12s0.94,2.12,2.1,2.12s2.1-0.95,2.1-2.12S113.39,11.96,112.23,11.96z M119.04,11.96
	c-1.16,0-2.1,0.95-2.1,2.12s0.94,2.12,2.1,2.12s2.1-0.95,2.1-2.12S120.2,11.96,119.04,11.96z M116.85,13.1
	c-0.55,0.32-1.32,0.99-1.41,2.47c0,0.08,0.03,0.17,0.08,0.23c0.06,0.06,0.13,0.09,0.22,0.09h1.2c0.14,0,0.26-0.1,0.29-0.24
	c-0.36-0.42-0.59-0.98-0.59-1.58C116.64,13.73,116.72,13.4,116.85,13.1z M121.24,13.1c0.13,0.3,0.21,0.63,0.21,0.97
	c0,0.58-0.2,1.14-0.58,1.58c0.03,0.13,0.14,0.24,0.28,0.24h1.2c0.08,0,0.17-0.03,0.23-0.09c0.06-0.06,0.08-0.14,0.08-0.23
	C122.56,14.1,121.79,13.42,121.24,13.1z M118.07,16.45c-0.82,0-1.55,0.51-1.84,1.26l-0.64,1.78c-0.19-0.75-0.39-1.55-0.39-1.55
	c-0.22-0.87-1-1.47-1.91-1.47h-2.42c-0.9,0-1.7,0.62-1.91,1.47c0,0-0.92,3.73-0.93,3.76c-0.08,0.36,0.13,0.72,0.48,0.83
	c0.01,0,0.03,0.01,0.04,0.01c0.05,0.01,0.11,0.02,0.16,0.02c0.33,0,0.62-0.21,0.68-0.54c0-0.02,0.74-2.9,0.74-2.9h0.01v1.32h3.9
	v-1.32h0.01l0.75,2.9c0.06,0.3,0.3,0.5,0.6,0.53c0.04,0.01,0.08,0.01,0.11,0.01c0.04,0,0.08-0.01,0.12-0.02
	c0.01,0,0.03-0.01,0.04-0.01c0.19-0.04,0.36-0.16,0.46-0.34l0.01-0.01c0.01-0.01,0.02-0.02,0.03-0.04c0.01-0.01,0.01-0.02,0.02-0.03
	c0.01-0.02,0.01-0.03,0.02-0.05l1.1-2.92h0.01c0.01-0.07,0.07-0.13,0.14-0.12c0.08,0,0.15,0.07,0.15,0.15c0,0.02,0,0.03-0.01,0.05
	l-1.33,3.54c-0.04,0.09-0.03,0.19,0.03,0.27s0.15,0.13,0.25,0.13h4.72c0.1,0,0.2-0.05,0.25-0.13c0.06-0.08,0.06-0.19,0.03-0.28
	l-1.33-3.53c-0.01-0.02-0.01-0.04-0.01-0.06c0-0.08,0.07-0.15,0.15-0.15s0.14,0.06,0.15,0.13l1.1,2.92
	c0.01,0.02,0.01,0.03,0.02,0.05c0.01,0.01,0.01,0.02,0.02,0.03c0.01,0.01,0.02,0.03,0.03,0.04l0.01,0.01
	c0.12,0.23,0.36,0.37,0.62,0.37c0.08,0,0.16-0.01,0.23-0.04c0.19-0.06,0.34-0.19,0.42-0.37s0.09-0.38,0.01-0.56l-0.01-0.01
	l-1.38-3.87c-0.28-0.75-1.02-1.26-1.84-1.26C119.74,16.45,118.07,16.45,118.07,16.45z M110.13,20.74v2.12h3.9v-2.12
	C114.03,20.74,110.13,20.74,110.13,20.74z M110.13,23.16v3.18c0,0.42,0.34,0.76,0.75,0.76s0.75-0.34,0.75-0.76v-3.18H110.13z
	 M112.53,23.16v3.18c0,0.42,0.34,0.76,0.75,0.76s0.75-0.34,0.75-0.76v-3.18H112.53z M117.54,23.46v3.03c0,0.33,0.27,0.61,0.6,0.61
	s0.6-0.27,0.6-0.61v-3.03H117.54z M119.04,23.46v3.03c0,0.33,0.27,0.61,0.6,0.61s0.6-0.27,0.6-0.61v-3.03H119.04z"/>
<path d="M140.96,11.96c-1.16,0-2.1,0.95-2.1,2.12s0.94,2.12,2.1,2.12s2.1-0.95,2.1-2.12S142.11,11.96,140.96,11.96z M147.76,11.96
	c-1.16,0-2.1,0.95-2.1,2.12s0.94,2.12,2.1,2.12s2.1-0.95,2.1-2.12S148.92,11.96,147.76,11.96z M145.57,13.1
	c-0.55,0.32-1.32,0.99-1.41,2.47c0,0.08,0.03,0.17,0.08,0.23c0.06,0.06,0.13,0.09,0.22,0.09h1.2c0.14,0,0.26-0.1,0.29-0.24
	c-0.36-0.42-0.59-0.98-0.59-1.58C145.36,13.73,145.44,13.4,145.57,13.1z M149.96,13.1c0.13,0.3,0.21,0.63,0.21,0.97
	c0,0.58-0.2,1.14-0.58,1.58c0.03,0.13,0.14,0.24,0.28,0.24h1.2c0.08,0,0.17-0.03,0.23-0.09s0.08-0.14,0.08-0.23
	C151.28,14.1,150.51,13.42,149.96,13.1z M146.79,16.45c-0.82,0-1.55,0.51-1.84,1.26l-0.64,1.78c-0.19-0.75-0.39-1.55-0.39-1.55
	c-0.22-0.87-1-1.47-1.91-1.47h-2.42c-0.9,0-1.7,0.62-1.91,1.47c0,0-0.92,3.73-0.93,3.76c-0.08,0.36,0.13,0.72,0.48,0.83
	c0.01,0,0.03,0.01,0.04,0.01c0.05,0.01,0.11,0.02,0.16,0.02c0.33,0,0.62-0.21,0.68-0.54c0-0.02,0.74-2.9,0.74-2.9h0.01v1.32h3.9
	v-1.32h0.01l0.75,2.9c0.06,0.3,0.3,0.5,0.6,0.53c0.04,0.01,0.08,0.01,0.11,0.01c0.04,0,0.08-0.01,0.12-0.02
	c0.01,0,0.03-0.01,0.04-0.01c0.19-0.04,0.36-0.16,0.46-0.34l0.01-0.01c0.01-0.01,0.02-0.02,0.03-0.04c0.01-0.01,0.01-0.02,0.02-0.03
	c0.01-0.02,0.01-0.03,0.02-0.05l1.1-2.92h0.01c0.01-0.07,0.07-0.13,0.14-0.12c0.08,0,0.15,0.07,0.15,0.15c0,0.02,0,0.03-0.01,0.05
	l-1.33,3.54c-0.04,0.09-0.03,0.19,0.03,0.27s0.15,0.13,0.25,0.13h4.72c0.1,0,0.2-0.05,0.25-0.13c0.06-0.08,0.06-0.19,0.03-0.28
	l-1.33-3.53c-0.01-0.02-0.01-0.04-0.01-0.06c0-0.08,0.07-0.15,0.15-0.15c0.08,0,0.14,0.06,0.15,0.13l1.1,2.92
	c0.01,0.02,0.01,0.03,0.02,0.05c0.01,0.01,0.01,0.02,0.02,0.03c0.01,0.01,0.02,0.03,0.03,0.04l0.01,0.01
	c0.12,0.23,0.36,0.37,0.62,0.37c0.08,0,0.16-0.01,0.23-0.04c0.19-0.06,0.34-0.19,0.42-0.37s0.09-0.38,0.01-0.56l-0.01-0.01
	l-1.38-3.87c-0.28-0.75-1.02-1.26-1.84-1.26C148.46,16.45,146.79,16.45,146.79,16.45z M138.86,20.74v2.12h3.9v-2.12
	C142.76,20.74,138.86,20.74,138.86,20.74z M138.86,23.16v3.18c0,0.42,0.34,0.76,0.75,0.76s0.75-0.34,0.75-0.76v-3.18H138.86z
	 M141.26,23.16v3.18c0,0.42,0.34,0.76,0.75,0.76s0.75-0.34,0.75-0.76v-3.18H141.26z M146.26,23.46v3.03c0,0.33,0.27,0.61,0.6,0.61
	s0.6-0.27,0.6-0.61v-3.03H146.26z M147.76,23.46v3.03c0,0.33,0.27,0.61,0.6,0.61s0.6-0.27,0.6-0.61v-3.03H147.76z"/>
<path d="M168.59,11.96c-1.16,0-2.1,0.95-2.1,2.12s0.94,2.12,2.1,2.12s2.1-0.95,2.1-2.12S169.75,11.96,168.59,11.96z M175.4,11.96
	c-1.16,0-2.1,0.95-2.1,2.12s0.94,2.12,2.1,2.12s2.1-0.95,2.1-2.12S176.56,11.96,175.4,11.96z M173.2,13.1
	c-0.55,0.32-1.32,0.99-1.41,2.47c0,0.08,0.03,0.17,0.08,0.23c0.06,0.06,0.13,0.09,0.22,0.09h1.2c0.14,0,0.26-0.1,0.29-0.24
	c-0.36-0.42-0.59-0.98-0.59-1.58C173,13.73,173.07,13.4,173.2,13.1z M177.59,13.1c0.13,0.3,0.21,0.63,0.21,0.97
	c0,0.58-0.2,1.14-0.58,1.58c0.03,0.13,0.14,0.24,0.28,0.24h1.2c0.08,0,0.17-0.03,0.23-0.09s0.08-0.14,0.08-0.23
	C178.92,14.1,178.14,13.42,177.59,13.1z M174.42,16.45c-0.82,0-1.55,0.51-1.84,1.26l-0.64,1.78c-0.19-0.75-0.39-1.55-0.39-1.55
	c-0.22-0.87-1-1.47-1.91-1.47h-2.42c-0.9,0-1.7,0.62-1.91,1.47c0,0-0.92,3.73-0.93,3.76c-0.08,0.36,0.13,0.72,0.48,0.83
	c0.01,0,0.03,0.01,0.04,0.01c0.05,0.01,0.11,0.02,0.16,0.02c0.33,0,0.62-0.21,0.68-0.54c0-0.02,0.74-2.9,0.74-2.9h0.01v1.32h3.9
	v-1.32h0.01l0.75,2.9c0.06,0.3,0.3,0.5,0.6,0.53c0.04,0.01,0.08,0.01,0.11,0.01c0.04,0,0.08-0.01,0.12-0.02
	c0.01,0,0.03-0.01,0.04-0.01c0.19-0.04,0.36-0.16,0.46-0.34l0.01-0.01c0.01-0.01,0.02-0.02,0.03-0.04c0.01-0.01,0.01-0.02,0.02-0.03
	c0.01-0.02,0.01-0.03,0.02-0.05l1.1-2.92h0.01c0.01-0.07,0.07-0.13,0.14-0.12c0.08,0,0.15,0.07,0.15,0.15c0,0.02,0,0.03-0.01,0.05
	l-1.33,3.54c-0.04,0.09-0.03,0.19,0.03,0.27s0.15,0.13,0.25,0.13h4.72c0.1,0,0.2-0.05,0.25-0.13c0.06-0.08,0.06-0.19,0.03-0.28
	l-1.33-3.53c-0.01-0.02-0.01-0.04-0.01-0.06c0-0.08,0.07-0.15,0.15-0.15c0.08,0,0.14,0.06,0.15,0.13l1.1,2.92
	c0.01,0.02,0.01,0.03,0.02,0.05c0.01,0.01,0.01,0.02,0.02,0.03c0.01,0.01,0.02,0.03,0.03,0.04l0.01,0.01
	c0.12,0.23,0.36,0.37,0.62,0.37c0.08,0,0.16-0.01,0.23-0.04c0.19-0.06,0.34-0.19,0.42-0.37s0.09-0.38,0.01-0.56l-0.01-0.01
	l-1.38-3.87c-0.28-0.75-1.02-1.26-1.84-1.26C176.09,16.45,174.42,16.45,174.42,16.45z M166.49,20.74v2.12h3.9v-2.12
	C170.39,20.74,166.49,20.74,166.49,20.74z M166.49,23.16v3.18c0,0.42,0.34,0.76,0.75,0.76s0.75-0.34,0.75-0.76v-3.18H166.49z
	 M168.89,23.16v3.18c0,0.42,0.34,0.76,0.75,0.76s0.75-0.34,0.75-0.76v-3.18H168.89z M173.9,23.46v3.03c0,0.33,0.27,0.61,0.6,0.61
	s0.6-0.27,0.6-0.61v-3.03H173.9z M175.4,23.46v3.03c0,0.33,0.27,0.61,0.6,0.61s0.6-0.27,0.6-0.61v-3.03H175.4z"/>
</svg>
