<svg xmlns="http://www.w3.org/2000/svg" viewBox="0 0 64 64"><path d="M9 56H7a1 1 0 0 0 0 2H19V39H9zm3-15h4a1 1 0 0 1 0 2H12a1 1 0 0 1 0-2zm0 5h4a1 1 0 0 1 0 2H12a1 1 0 0 1 0-2zm0 5h4a1 1 0 0 1 0 2H12a1 1 0 0 1 0-2zM21 56v2h4V49a3 3 0 0 1 3-3h8a3 3 0 0 1 3 3v9h4V30H21zM32 35a4 4 0 1 1-4 4A4 4 0 0 1 32 35z"/><path d="M27 49v9h4V48H28A1 1 0 0 0 27 49zM36 48H33V58h4V49A1 1 0 0 0 36 48z"/><circle cx="32" cy="39" r="2"/><path d="M57,56H55V38H45V58H57a1,1,0,0,0,0-2ZM48,41h4a1,1,0,0,1,0,2H48a1,1,0,0,1,0-2Zm0,5h4a1,1,0,0,1,0,2H48a1,1,0,0,1,0-2Zm0,5h4a1,1,0,0,1,0,2H48a1,1,0,0,1,0-2Z"/><rect width="11" height="3" x="45" y="33"/><rect width="11" height="3" x="8" y="34"/><polygon points="45 26.55 32 18.19 19 26.55 19 28 45 28 45 26.55"/><path d="M32.54,16.16l.46.3V13h7V7H33a1,1,0,0,0-2,0v9.46l.46-.3A1,1,0,0,1,32.54,16.16Z"/></svg>