<svg xmlns="http://www.w3.org/2000/svg" xmlns:xlink="http://www.w3.org/1999/xlink" width="313.107" height="301.536" viewBox="0 0 313.107 301.536">
  <defs>
    <linearGradient id="linear-gradient" x1="0.5" y1="1" x2="0.5" gradientUnits="objectBoundingBox">
      <stop offset="0" stop-color="gray" stop-opacity="0.251"/>
      <stop offset="0.54" stop-color="gray" stop-opacity="0.122"/>
      <stop offset="1" stop-color="gray" stop-opacity="0.102"/>
    </linearGradient>
    <linearGradient id="linear-gradient-2" x1="0.518" y1="1.092" x2="0.518" y2="-0.251" xlink:href="#linear-gradient"/>
    <linearGradient id="linear-gradient-3" x1="0.5" y1="1" x2="0.5" gradientUnits="objectBoundingBox">
      <stop offset="0" stop-opacity="0.122"/>
      <stop offset="0.55" stop-opacity="0.09"/>
      <stop offset="1" stop-opacity="0.02"/>
    </linearGradient>
    <linearGradient id="linear-gradient-4" x1="0.5" y1="1" x2="0.5" gradientUnits="objectBoundingBox">
      <stop offset="0" stop-color="#b3b3b3" stop-opacity="0.635"/>
      <stop offset="0.54" stop-color="#b3b3b3" stop-opacity="0.102"/>
      <stop offset="1" stop-color="#b3b3b3" stop-opacity="0.051"/>
    </linearGradient>
    <filter id="L95800085934" x="167.736" y="72.442" width="93.856" height="45.331" filterUnits="userSpaceOnUse">
      <feOffset dy="6" input="SourceAlpha"/>
      <feGaussianBlur stdDeviation="3" result="blur"/>
      <feFlood flood-opacity="0.161"/>
      <feComposite operator="in" in2="blur"/>
      <feComposite in="SourceGraphic"/>
    </filter>
    <filter id="Articles_of_Org" x="88.736" y="56.399" width="81.702" height="40.88" filterUnits="userSpaceOnUse">
      <feOffset dy="6" input="SourceAlpha"/>
      <feGaussianBlur stdDeviation="3" result="blur-2"/>
      <feFlood flood-opacity="0.161"/>
      <feComposite operator="in" in2="blur-2"/>
      <feComposite in="SourceGraphic"/>
    </filter>
  </defs>
  <g id="Group_119" data-name="Group 119" transform="translate(-30.891 -196.369)">
    <g id="Group_111" data-name="Group 111" transform="translate(46.713 246.784)" opacity="0.5">
      <rect id="Rectangle_30" data-name="Rectangle 30" width="173.604" height="233.283" fill="url(#linear-gradient)"/>
    </g>
    <rect id="Rectangle_31" data-name="Rectangle 31" width="168.18" height="225.146" transform="translate(48.974 249.95)" fill="#a5a5a5" opacity="0.462"/>
    <rect id="Rectangle_32" data-name="Rectangle 32" width="57.868" height="1.808" transform="translate(62.086 259.443)" fill="#e0e0e0"/>
    <rect id="Rectangle_33" data-name="Rectangle 33" width="57.868" height="1.808" transform="translate(62.086 267.58)" fill="#6c63ff" opacity="0.7"/>
    <rect id="Rectangle_34" data-name="Rectangle 34" width="57.868" height="1.808" transform="translate(128.544 259.443)" fill="#e0e0e0"/>
    <rect id="Rectangle_35" data-name="Rectangle 35" width="57.868" height="1.808" transform="translate(137.584 310.985)" fill="#e0e0e0"/>
    <rect id="Rectangle_36" data-name="Rectangle 36" width="57.868" height="1.808" transform="translate(138.942 315.956)" fill="#e0e0e0"/>
    <rect id="Rectangle_37" data-name="Rectangle 37" width="57.868" height="1.808" transform="translate(141.656 320.93)" fill="#e0e0e0"/>
    <rect id="Rectangle_38" data-name="Rectangle 38" width="57.868" height="1.808" transform="translate(137.584 391.004)" fill="#e0e0e0"/>
    <rect id="Rectangle_39" data-name="Rectangle 39" width="57.868" height="1.808" transform="translate(138.942 395.979)" fill="#e0e0e0"/>
    <rect id="Rectangle_40" data-name="Rectangle 40" width="57.868" height="1.808" transform="translate(141.656 400.95)" fill="#e0e0e0"/>
    <g id="Group_118" data-name="Group 118" transform="translate(72.2 235.258)" opacity="0.5">
      <rect id="Rectangle_47" data-name="Rectangle 47" width="233.283" height="173.604" transform="translate(0 228.809) rotate(-78.76)" fill="url(#linear-gradient-2)"/>
    </g>
    <rect id="Rectangle_48" data-name="Rectangle 48" width="225.146" height="168.18" transform="translate(75.385 459.631) rotate(-78.76)" fill="#fff"/>
    <rect id="Rectangle_49" data-name="Rectangle 49" width="119.355" height="1.808" transform="translate(129.237 314.378) rotate(11.24)" fill="#e0e0e0"/>
    <rect id="Rectangle_50" data-name="Rectangle 50" width="119.355" height="1.808" transform="translate(95.927 418.997) rotate(11.24)" fill="#e0e0e0"/>
    <rect id="Rectangle_51" data-name="Rectangle 51" width="92.229" height="1.808" transform="translate(93.896 429.192) rotate(11.24)" fill="#e0e0e0"/>
    <rect id="Rectangle_52" data-name="Rectangle 52" width="34.358" height="1.808" transform="translate(91.87 439.394) rotate(11.24)" fill="#6c63ff" opacity="0.7"/>
    <rect id="Rectangle_53" data-name="Rectangle 53" width="59.676" height="1.808" transform="translate(127.206 324.579) rotate(11.24)" fill="#6c63ff" opacity="0.7"/>
    <rect id="Rectangle_54" data-name="Rectangle 54" width="107.598" height="1.808" transform="translate(125.184 334.777) rotate(11.24)" fill="#e0e0e0"/>
    <rect id="Rectangle_55" data-name="Rectangle 55" width="26.22" height="1.808" transform="translate(123.156 344.977) rotate(11.24)" fill="#3ad29f" opacity="0.7"/>
    <rect id="Rectangle_56" data-name="Rectangle 56" width="119.355" height="1.808" transform="translate(121.131 355.176) rotate(11.24)" fill="#e0e0e0"/>
    <rect id="Rectangle_59" data-name="Rectangle 59" width="119.355" height="1.808" transform="translate(119.104 365.379) rotate(11.24)" fill="#e0e0e0"/>
    <path id="Path_222" data-name="Path 222" d="M722.7,425.155c-13.066-.294-24.954,6.26-31.276,16.155-2.063,3.229,3.794,6.082,5.846,2.869,5.234-8.192,15.179-13.395,25.938-13.124a33.044,33.044,0,0,1,26.964,15.683c2.06,3.4,7.46.31,5.42-3.066C748.985,432.832,736.195,425.476,722.7,425.155Z" transform="translate(-474.747 -182.621)" fill="url(#linear-gradient-3)"/>
    <path id="Path_225" data-name="Path 225" d="M734.929,419.235c-13.066-.294-24.954,6.26-31.276,16.155-2.063,3.229,3.794,6.082,5.846,2.869,5.234-8.192,15.179-13.395,25.938-13.124A33.044,33.044,0,0,1,762.4,440.817c2.059,3.4,7.46.31,5.42-3.066C761.2,426.881,748.429,419.525,734.929,419.235Z" transform="translate(-482.242 -178.992)" fill="#6379ef"/>
    <rect id="Rectangle_64" data-name="Rectangle 64" width="1.355" height="7.684" transform="translate(34.054 453.394)" fill="#47e6b1"/>
    <rect id="Rectangle_65" data-name="Rectangle 65" width="1.355" height="7.684" transform="translate(38.576 456.557) rotate(90)" fill="#47e6b1"/>
    <path id="Path_226" data-name="Path 226" d="M742.054,63.607a1.661,1.661,0,0,1-.925-2.009.8.8,0,0,0,.035-.186h0a.832.832,0,0,0-1.5-.554h0a.8.8,0,0,0-.093.163,1.661,1.661,0,0,1-2.009.925.8.8,0,0,0-.186-.035h0a.832.832,0,0,0-.546,1.506h0a.8.8,0,0,0,.163.093,1.661,1.661,0,0,1,.925,2.009.8.8,0,0,0-.035.186h0a.832.832,0,0,0,1.51.546h0a.792.792,0,0,0,.093-.163,1.661,1.661,0,0,1,2.009-.925.8.8,0,0,0,.186.035h0a.832.832,0,0,0,.554-1.5h0a.8.8,0,0,0-.182-.093Z" transform="translate(-533.63 135.846)" fill="#4d8af0"/>
    <path id="Path_227" data-name="Path 227" d="M307.629,210.757a1.661,1.661,0,0,1-.925-2.009.8.8,0,0,0,.035-.186h0a.832.832,0,0,0-1.5-.554h0a.8.8,0,0,0-.093.163,1.661,1.661,0,0,1-2.009.925.8.8,0,0,0-.186-.035h0a.832.832,0,0,0-.554,1.5h0a.8.8,0,0,0,.163.093,1.661,1.661,0,0,1,.925,2.009.8.8,0,0,0-.035.186h0a.832.832,0,0,0,1.5.554h0a.8.8,0,0,0,.093-.163,1.661,1.661,0,0,1,2.009-.925.8.8,0,0,0,.186.035h0a.832.832,0,0,0,.554-1.5h0A.8.8,0,0,0,307.629,210.757Z" transform="translate(-267.385 45.662)" fill="#fdd835"/>
    <path id="Path_228" data-name="Path 228" d="M925.409,818.017a1.661,1.661,0,0,1-.925-2.009.8.8,0,0,0,.035-.186h0a.832.832,0,0,0-1.5-.554h0a.8.8,0,0,0-.093.163,1.661,1.661,0,0,1-2.009.925.8.8,0,0,0-.186-.035h0a.832.832,0,0,0-.554,1.5h0a.792.792,0,0,0,.163.093,1.661,1.661,0,0,1,.925,2.009.8.8,0,0,0-.035.186h0a.832.832,0,0,0,1.5.554h0a.8.8,0,0,0,.093-.163,1.661,1.661,0,0,1,2.009-.925.8.8,0,0,0,.186.035h0a.832.832,0,0,0,.554-1.5h0A.792.792,0,0,0,925.409,818.017Z" transform="translate(-646.005 -326.511)" fill="#fdd835"/>
    <circle id="Ellipse_21" data-name="Ellipse 21" cx="2.714" cy="2.714" r="2.714" transform="translate(108.65 222.824)" fill="#f55f44"/>
    <circle id="Ellipse_22" data-name="Ellipse 22" cx="2.714" cy="2.714" r="2.714" transform="translate(303.05 256.729)" fill="#f55f44"/>
    <rect id="Rectangle_68" data-name="Rectangle 68" width="49" height="1.808" transform="translate(62.086 276.443)" fill="#e0e0e0"/>
    <rect id="Rectangle_70" data-name="Rectangle 70" width="24" height="1.808" transform="translate(81.086 309.443)" fill="#e0e0e0"/>
    <rect id="Rectangle_71" data-name="Rectangle 71" width="22" height="1.808" transform="translate(81.086 318.443)" fill="#e0e0e0"/>
    <path id="Path_220" data-name="Path 220" d="M716.182,381.227a60.347,60.347,0,1,0-9.872,91.923l43.625,45.375a2.938,2.938,0,0,0,4.154.081l10.871-10.452a2.938,2.938,0,0,0,.081-4.154l-14.012-14.577-29.6-30.795a60.335,60.335,0,0,0-5.246-77.4Zm-13.588,72.954a43.165,43.165,0,1,1,1.2-61.035A43.165,43.165,0,0,1,702.594,454.181Z" transform="translate(-426.594 -144.352)" fill="url(#linear-gradient-4)"/>
    <path id="Path_229" data-name="Path 229" d="M0,0H20V1.808H0Z" transform="translate(81.086 327.443)" fill="#e0e0e0"/>
    <rect id="Rectangle_72" data-name="Rectangle 72" width="25" height="1.808" transform="translate(81.086 300.58)" fill="#6c63ff" opacity="0.7"/>
    <rect id="Rectangle_73" data-name="Rectangle 73" width="35" height="1.808" transform="translate(62.086 350.443)" fill="#e0e0e0"/>
    <rect id="Rectangle_74" data-name="Rectangle 74" width="34" height="1.808" transform="translate(62.086 358.443)" fill="#e0e0e0"/>
    <rect id="Rectangle_75" data-name="Rectangle 75" width="32" height="1.808" transform="translate(62.086 367.443)" fill="#e0e0e0"/>
    <rect id="Rectangle_76" data-name="Rectangle 76" width="30" height="1.808" transform="translate(62.086 376.443)" fill="#47e6b1"/>
    <g transform="matrix(1, 0, 0, 1, 30.89, 196.37)" filter="url(#L95800085934)">
      <text id="L95800085934-2" data-name="L95800085934" transform="matrix(0.98, 0.21, -0.21, 0.98, 177.15, 85.22)" font-size="11" font-family="Arial-BoldMT, Arial" font-weight="700"><tspan x="0" y="0">L95800085934</tspan></text>
    </g>
    <rect id="Rectangle_66" data-name="Rectangle 66" width="168" height="173" transform="matrix(0.978, 0.208, -0.208, 0.978, 110.959, 289.017)" fill="#030303" opacity="0.356"/>
    <g transform="matrix(1, 0, 0, 1, 30.89, 196.37)" filter="url(#Articles_of_Org)">
      <text id="Articles_of_Org-2" data-name="Articles of Org" transform="matrix(0.98, 0.21, -0.21, 0.98, 98.15, 67.22)" font-size="9" font-family="Arial-BoldMT, Arial" font-weight="700"><tspan x="0" y="0">Articles of Org</tspan></text>
    </g>
    <rect id="Rectangle_67" data-name="Rectangle 67" width="90" height="56" transform="matrix(0.978, 0.208, -0.208, 0.978, 122.424, 234.645)" fill="#030303" opacity="0.356"/>
    <path id="Path_223" data-name="Path 223" d="M728.412,375.307a60.347,60.347,0,1,0-9.872,91.92l43.622,45.379a2.938,2.938,0,0,0,4.154.081l10.871-10.452a2.938,2.938,0,0,0,.081-4.154l-43.625-45.375A60.353,60.353,0,0,0,728.412,375.307ZM714.824,448.23a43.165,43.165,0,1,1,1.2-61.035,43.165,43.165,0,0,1-1.2,61.035Z" transform="translate(-434.089 -141.724)" fill="#6379ef"/>
  </g>
</svg>
