<svg xmlns="http://www.w3.org/2000/svg" enable-background="new 0 0 190.143 186.754" fill="#737373" viewBox="0 0 190.143 186.754"><path d="M43.839,160.95L47,145.143v-10.47H0v47h47v-9.606c-0.461-0.497-0.895-1.024-1.279-1.599
		C43.842,167.65,43.174,164.27,43.839,160.95z"/><rect width="47" height="47" x="131.5" y="134.673"/><path d="M126.729 174.18l-.259-43.759h42.926c4.234 0 7.97-2.111 10.231-5.332 6.869-3.864 12.73-10.251 9.694-23.424-6.665-21.349-13.339-32.753-27.755-48.42-10.551-11.333-23.742-10.538-30.678-5.125-3.703 2.891-5.006 7.78-4.42 12.914l12.66-7.862c1.635-1.015 3.511-1.551 5.427-1.551 3.592 0 6.865 1.819 8.758 4.867 2.996 4.824 1.509 11.187-3.315 14.184l-14.046 8.723c5.404 7.592 11.682 16.557 16.438 26.027h-16.144c.17-.642.337-1.285.517-1.92-1.806-7.388-2.921-14.925-3.37-22.518l-6.873 4.268c-.374 7.431-.381 14.641.06 19.801.079.124.161.245.24.369h-12.923c-3.328 0-6.519 1.327-8.865 3.688-2.346 2.36-3.654 5.559-3.635 8.887l.333 56.333c.041 6.878 5.629 12.427 12.498 12.426.025 0 .051 0 .076 0C121.207 186.713 126.77 181.083 126.729 174.18zM46.607 60.39c-7.243-2.786-18.825-.702-25.328 10.264-8.845 15.129-11.983 25.358-12.82 43.314.437 11.437 7.666 15.004 14.872 16.457 1.281.566 2.696.887 4.187.887h2.223c1.131.086 2.152.099 3.072 0h6.517 12.782l-6.019 30.089c-1.124 5.619 2.521 11.085 8.14 12.209.687.138 1.372.204 2.046.204 4.845 0 9.177-3.411 10.164-8.343l8.5-42.5c.609-3.048-.18-6.209-2.15-8.613-1.971-2.404-4.916-3.798-8.024-3.798H39.104c-9.765-17.351-9.679-34.879-9.663-35.928.058-4.005 2.814-7.468 6.702-8.42.724-.177 1.472-.262 2.223-.251 4.841.07 8.731 4.065 8.673 8.905 0 .113.033 5.326 1.775 12.387.971-2.343 1.908-4.564 2.745-6.616C55.491 73.11 53.849 63.175 46.607 60.39z"/><path d="M38.333,68.26c-3.591-0.05-6.541,2.816-6.593,6.406c-0.015,0.992-0.085,17.207,8.717,33.594h15.396
		c-11.07-15.118-11.118-33.093-11.116-33.422C44.782,71.255,41.917,68.311,38.333,68.26z"/><ellipse cx="63.141" cy="40.758" rx="20.91" ry="20.909" transform="rotate(-80.881 63.137 40.757)"/><path d="M114.305 59.372c2.453-2.265 4.873-6.412 7.194-12.328l-2.793-1.096c-.92 2.346-1.842 4.358-2.762 6.069-.627-2.758-1.053-5.389-1.334-7.875 1.459.414 2.961.682 4.485.794 3.008-7.969 5.115-17.076 5.909-20.767-1.055-.673-1.76-1.847-1.76-3.192 0-2.094 1.698-3.792 3.792-3.792 2.094 0 3.792 1.698 3.792 3.792 0 1.768-1.216 3.241-2.854 3.661-.747 3.511-2.74 12.231-5.683 20.307 2.555-.177 5.122-.796 7.597-1.899 11.349-5.055 16.449-18.353 11.395-29.702-5.057-11.346-18.355-16.448-29.703-11.391-11.349 5.055-16.45 18.352-11.395 29.699 2.334 5.238 6.425 9.141 11.268 11.333.363 3.835 1.068 8.045 2.274 12.545-.488.636-.975 1.19-1.459 1.637-3.798 3.506-9.508 8.772-17.154 12.975l5.335.338C106.439 66.629 111.046 62.379 114.305 59.372zM63.434 76.467c-.499-.059-1.007-.139-1.513-.213.235-4.296-1.123-7.809-3.187-8.018-2.198-.223-3.913 16.69-1.716 16.913 1.849.188 3.67-2.338 4.486-5.923.535.078 1.071.158 1.599.221-.011-.334-.009-.67.012-1.01C63.159 77.76 63.267 77.102 63.434 76.467z"/><path d="M148.784,68.716c3.753-2.331,4.906-7.263,2.575-11.017c-2.33-3.752-7.263-4.906-11.017-2.575l-29.494,18.317l-36.947-2.338
		c-4.416-0.29-8.209,3.069-8.489,7.479c-0.278,4.41,3.069,8.21,7.479,8.489l39.5,2.5c0.168,0.011,0.337,0.016,0.505,0.016
		c1.488,0,2.951-0.416,4.221-1.204L148.784,68.716z"/></svg>