<svg xmlns="http://www.w3.org/2000/svg" xmlns:xlink="http://www.w3.org/1999/xlink" width="290" height="216.578" viewBox="0 0 290 216.578">
  <defs>
    <linearGradient id="linear-gradient" x1="0.5" y1="1" x2="0.5" gradientUnits="objectBoundingBox">
      <stop offset="0" stop-color="gray" stop-opacity="0.251"/>
      <stop offset="0.54" stop-color="gray" stop-opacity="0.122"/>
      <stop offset="1" stop-color="gray" stop-opacity="0.102"/>
    </linearGradient>
    <linearGradient id="linear-gradient-2" x1="0.5" y1="1" x2="0.5" y2="-0.001" xlink:href="#linear-gradient"/>
    <linearGradient id="linear-gradient-3" x1="0.499" y1="1" x2="0.499" y2="-0.001" xlink:href="#linear-gradient"/>
    <linearGradient id="linear-gradient-4" x1="0.5" y1="1" x2="0.5" y2="0" xlink:href="#linear-gradient"/>
    <linearGradient id="linear-gradient-5" x1="0.5" y1="1" x2="0.5" y2="0" xlink:href="#linear-gradient"/>
    <linearGradient id="linear-gradient-6" x1="0.5" y1="1" x2="0.5" y2="0" xlink:href="#linear-gradient"/>
    <linearGradient id="linear-gradient-7" x1="0.5" y1="0.995" x2="0.5" y2="0" xlink:href="#linear-gradient"/>
    <linearGradient id="linear-gradient-8" x1="0.5" y1="0.999" x2="0.5" y2="0.001" xlink:href="#linear-gradient"/>
    <linearGradient id="linear-gradient-9" x1="0.5" y1="0.998" x2="0.5" y2="0" xlink:href="#linear-gradient"/>
    <linearGradient id="linear-gradient-10" x1="0.5" y1="1" x2="0.5" y2="0" xlink:href="#linear-gradient"/>
    <linearGradient id="linear-gradient-11" x1="0.5" y1="1" x2="0.5" y2="0" xlink:href="#linear-gradient"/>
    <linearGradient id="linear-gradient-12" x1="0.5" y1="1" x2="0.5" y2="0" xlink:href="#linear-gradient"/>
    <linearGradient id="linear-gradient-13" x1="0.5" y1="0.999" x2="0.5" y2="-0.001" xlink:href="#linear-gradient"/>
    <linearGradient id="linear-gradient-14" x1="0.5" y1="1" x2="0.5" y2="0" xlink:href="#linear-gradient"/>
    <linearGradient id="linear-gradient-15" x1="0.5" y1="1" x2="0.5" y2="-0.002" xlink:href="#linear-gradient"/>
    <linearGradient id="linear-gradient-16" x1="0.5" y1="0.998" x2="0.5" y2="-0.002" xlink:href="#linear-gradient"/>
    <linearGradient id="linear-gradient-17" x1="0.498" y1="1" x2="0.498" y2="0" xlink:href="#linear-gradient"/>
    <linearGradient id="linear-gradient-18" x1="0.499" y1="0.999" x2="0.499" y2="-0.002" xlink:href="#linear-gradient"/>
    <linearGradient id="linear-gradient-19" x1="0.5" y1="1" x2="0.5" y2="0.001" xlink:href="#linear-gradient"/>
    <linearGradient id="linear-gradient-20" x1="0.5" y1="1" x2="0.5" y2="0" xlink:href="#linear-gradient"/>
    <linearGradient id="linear-gradient-21" x1="0.498" y1="1.001" x2="0.498" y2="0" xlink:href="#linear-gradient"/>
    <linearGradient id="linear-gradient-22" x1="0.498" y1="1" x2="0.498" y2="0" xlink:href="#linear-gradient"/>
    <linearGradient id="linear-gradient-23" x1="0.511" y1="1.001" x2="0.511" y2="0" xlink:href="#linear-gradient"/>
    <linearGradient id="linear-gradient-24" x1="0.5" y1="1.001" x2="0.5" y2="0.006" xlink:href="#linear-gradient"/>
    <linearGradient id="linear-gradient-25" x1="0.5" y1="1" x2="0.5" y2="0" xlink:href="#linear-gradient"/>
    <linearGradient id="linear-gradient-26" x1="0.5" y1="0.984" x2="0.5" y2="0" xlink:href="#linear-gradient"/>
    <linearGradient id="linear-gradient-27" x1="0.5" y1="1" x2="0.5" y2="0" xlink:href="#linear-gradient"/>
    <linearGradient id="linear-gradient-28" x1="0.5" y1="1" x2="0.5" y2="0" xlink:href="#linear-gradient"/>
    <linearGradient id="linear-gradient-29" x1="0.497" y1="1" x2="0.497" y2="0" xlink:href="#linear-gradient"/>
    <linearGradient id="linear-gradient-30" x1="0.499" y1="1" x2="0.499" y2="0" xlink:href="#linear-gradient"/>
    <linearGradient id="linear-gradient-31" x1="0.5" y1="0.999" x2="0.5" y2="-0.001" xlink:href="#linear-gradient"/>
    <linearGradient id="linear-gradient-32" x1="0.501" y1="1" x2="0.501" y2="0" xlink:href="#linear-gradient"/>
    <linearGradient id="linear-gradient-33" x1="0.501" y1="1" x2="0.501" y2="0" xlink:href="#linear-gradient"/>
    <linearGradient id="linear-gradient-34" x1="0.5" y1="1.001" x2="0.5" y2="0" xlink:href="#linear-gradient"/>
    <linearGradient id="linear-gradient-35" x1="0.5" y1="1.001" x2="0.5" y2="0.001" xlink:href="#linear-gradient"/>
  </defs>
  <g id="Group_361" data-name="Group 361" transform="translate(0.457 0.006)">
    <path id="Path_370" data-name="Path 370" d="M247.6,83.392c-17.618-.61-33.977-6.777-50-13s-31.8-12.714-49-16c-11.06-2.123-24.09-2.932-33,3-8.572,5.706-11.511,15.87-13,25-1.122,6.876-1.071,14.562,2,21,2.134,4.47,5.381,7.721,8,12,9.111,14.9,2.871,33.455-7,48-4.628,6.822-10.426,12.745-14,20s-5.128,15.59-2,23c3.1,7.35,11,13.121,19,17,16.249,7.881,35.323,10.721,54,12,41.332,2.826,82.559,1.228,124,0,15.337-.452,30.913-.629,46-3,8.379-1.318,16.916-3.953,23-9,7.72-6.405,10.175-16.967,5-25-8.679-13.472-32.927-16.542-39-31-3.337-7.96.146-16.62,5-24,10.41-15.835,28.083-29.9,29-48,.632-12.43-8.031-25.117-21-31-13.592-6.166-32.977-5.2-43,5C281.27,79.9,263.153,83.934,247.6,83.392Z" transform="translate(-83.058 -52.82)" fill="#6c63ff" opacity="0.1"/>
    <rect id="Rectangle_202" data-name="Rectangle 202" width="71" height="71" transform="translate(-0.457 33.572)" fill="#e8e9ed"/>
    <rect id="Rectangle_203" data-name="Rectangle 203" width="71" height="71" transform="translate(218.543 33.572)" fill="#e8e9ed"/>
    <path id="Path_371" data-name="Path 371" d="M191.473,82.643l-1-1c-.028-.032.043,0,0,0s.028-.032,0,0l-5,5-2-1c-.029-.031.042,0,0,0s.029-.031,0,0h0c-.031.03-1-.043-1,0s.969-.03,1,0l2,3c.12.133-.179-.014,0,0,.177-.015.876.127,1,0h0l5-6C191.531,82.577,191.531,82.708,191.473,82.643Z" transform="translate(-151.93 -74.07)" fill="#3acc6c" opacity="0.5"/>
    <path id="Path_372" data-name="Path 372" d="M176.753,64.23a7.333,7.333,0,0,1,7,6,6.951,6.951,0,0,1-4,8c-3.166,1.31-7.1.85-9-2a7.1,7.1,0,0,1,1-9c1.346-1.352,3.092-3.006,5-3m0-1a9.535,9.535,0,0,0-9,9c0,4.589,4.41,8,9,8a7.79,7.79,0,0,0,8-8,8.231,8.231,0,0,0-2-6C181.194,64.671,178.957,63.228,176.753,63.23Z" transform="translate(-141.21 -60.658)" fill="#6c63ff" opacity="0.5"/>
    <path id="Path_373" data-name="Path 373" d="M386.419,167.212l-1-1c-.036-.039.053,0,0,0a7.859,7.859,0,0,0-1,0l-6,7-2-3c-.036-.038.053,0,0,0s.037-.038,0,0l-1,1c-.039.037,0-.054,0,0a8.454,8.454,0,0,0,0,1l3,2c.152.167-.225.984,0,1,.22-.019.844-.843,1-1h0l7-6A2.6,2.6,0,0,0,386.419,167.212Z" transform="translate(-291.876 -135.64)" fill="#3acc6c" opacity="0.8"/>
    <path id="Path_374" data-name="Path 374" d="M366.917,144.321c4.316,0,8.157,3.765,9,8s-1.011,8.348-5,10a8.939,8.939,0,0,1-11-3,9.85,9.85,0,0,1,1-12c1.694-1.7,3.6-3.008,6-3m0-1c-5.778,0-10,5.222-10,11a9.691,9.691,0,0,0,10,10c5.778,0,11-4.222,11-10A11.4,11.4,0,0,0,366.917,143.321Z" transform="translate(-278.374 -118.749)" fill="#6c63ff" opacity="0.8"/>
    <path id="Path_375" data-name="Path 375" d="M978.786,64.23a7.333,7.333,0,0,1,7,6,6.951,6.951,0,0,1-4,8c-3.166,1.31-7.1.85-9-2a7.1,7.1,0,0,1,1-9c1.346-1.352,3.092-3.006,5-3m0-1c-4.59,0-8,4.41-8,9a7.79,7.79,0,0,0,8,8c4.589,0,9-3.41,9-8,0-2.2-1.441-4.441-3-6S980.991,63.228,978.786,63.23Z" transform="translate(-725.243 -60.658)" fill="#6c63ff" opacity="0.5"/>
    <path id="Path_376" data-name="Path 376" d="M775.141,144.321c4.319-.006,8.153,3.765,9,8a8.631,8.631,0,0,1-5,10,8.936,8.936,0,0,1-11-3,9.846,9.846,0,0,1,1-12c1.695-1.7,3.6-3.006,6-3m0-1c-5.778,0-10,5.222-10,11a9.691,9.691,0,0,0,10,10c5.778,0,11-4.222,11-10a10.324,10.324,0,0,0-11-11Z" transform="translate(-575.598 -118.749)" fill="#6c63ff" opacity="0.8"/>
    <path id="Path_377" data-name="Path 377" d="M561.8,204.485c5.706,0,9.89,4.4,11,10a11.4,11.4,0,0,1-7,13c-5.272,2.182-10.831.745-14-4s-3.035-10.965,1-15a13.669,13.669,0,0,1,9-4m0-2a14,14,0,0,0,0,28c7.639,0,13-6.361,13-14S569.438,202.482,561.8,202.485Z" transform="translate(-417.256 -161.913)" fill="#6c63ff"/>
    <rect id="Rectangle_204" data-name="Rectangle 204" width="79" height="78" transform="translate(49.543 52.572)" fill="#f3f5f7"/>
    <rect id="Rectangle_205" data-name="Rectangle 205" width="79" height="78" transform="translate(160.543 52.572)" fill="#f3f5f7"/>
    <rect id="Rectangle_206" data-name="Rectangle 206" width="26" height="3" transform="translate(7.543 46.572)" opacity="0.1"/>
    <rect id="Rectangle_207" data-name="Rectangle 207" width="26" height="3" transform="translate(231.543 46.572)" opacity="0.1"/>
    <path id="Path_378" data-name="Path 378" d="M770.352,592.916s6.726-11.518,17-15a21.969,21.969,0,0,0,11-8,38.225,38.225,0,0,0,3-6" transform="translate(-579.309 -424.844)" fill="none" stroke="#535461" stroke-miterlimit="10" stroke-width="2"/>
    <path id="Path_379" data-name="Path 379" d="M889.989,541.9c-1.171,1.135-7,3-7,3s1.829-5.862,3-7a2.828,2.828,0,0,1,4,4Z" transform="translate(-661.446 -405.331)" fill="#6c63ff"/>
    <path id="Path_380" data-name="Path 380" d="M878.256,576.049c-1.6.319-7-2-7-2s3.4-3.676,5-4c1.581-.276,3.688,1.426,4,3A2.352,2.352,0,0,1,878.256,576.049Z" transform="translate(-652.713 -429.477)" fill="#6c63ff"/>
    <path id="Path_381" data-name="Path 381" d="M840.944,615.72c-1.541-.544-5-5-5-5s5.467-1.534,7-1a3.162,3.162,0,0,1-2,6Z" transform="translate(-627.401 -458.148)" fill="#6c63ff"/>
    <path id="Path_382" data-name="Path 382" d="M801.418,637.685c-1.612-.272-6-4-6-4s5.391-2.264,7-2a2.311,2.311,0,0,1,2,3C804.153,636.294,803.027,637.95,801.418,637.685Z" transform="translate(-597.875 -474.112)" fill="#6c63ff"/>
    <path id="Path_383" data-name="Path 383" d="M854.066,562.025c0,1.633,3,7,3,7s3-5.369,3-7a3,3,0,0,0-6,0Z" transform="translate(-640.523 -421.453)" fill="#6c63ff"/>
    <path id="Path_384" data-name="Path 384" d="M809.747,587.176c.487,1.557,5,5,5,5s1.487-5.443,1-7a3.162,3.162,0,0,0-6,2Z" transform="translate(-608.204 -438.604)" fill="#6c63ff"/>
    <path id="Path_385" data-name="Path 385" d="M771.567,619.692c.218,1.617,3,6,3,6s2.215-5.383,2-7-1.383-2.217-3-2S771.35,618.075,771.567,619.692Z" transform="translate(-580.024 -463.119)" fill="#6c63ff"/>
    <path id="Path_386" data-name="Path 386" d="M889.989,541.9c-1.171,1.135-7,3-7,3s1.829-5.862,3-7a2.828,2.828,0,0,1,4,4Z" transform="translate(-661.446 -405.331)" opacity="0.25"/>
    <path id="Path_387" data-name="Path 387" d="M878.256,576.049c-1.6.319-7-2-7-2s3.4-3.676,5-4c1.581-.276,3.688,1.426,4,3A2.352,2.352,0,0,1,878.256,576.049Z" transform="translate(-652.713 -429.477)" opacity="0.25"/>
    <path id="Path_388" data-name="Path 388" d="M840.944,615.72c-1.541-.544-5-5-5-5s5.467-1.534,7-1a3.162,3.162,0,0,1-2,6Z" transform="translate(-627.401 -458.148)" opacity="0.25"/>
    <path id="Path_389" data-name="Path 389" d="M801.418,637.685c-1.612-.272-6-4-6-4s5.391-2.264,7-2a2.311,2.311,0,0,1,2,3C804.153,636.294,803.027,637.95,801.418,637.685Z" transform="translate(-597.875 -474.112)" opacity="0.25"/>
    <path id="Path_390" data-name="Path 390" d="M854.066,562.025c0,1.633,3,7,3,7s3-5.369,3-7a3,3,0,0,0-6,0Z" transform="translate(-640.523 -421.453)" opacity="0.25"/>
    <path id="Path_391" data-name="Path 391" d="M809.747,587.176c.487,1.557,5,5,5,5s1.487-5.443,1-7a3.162,3.162,0,0,0-6,2Z" transform="translate(-608.204 -438.604)" opacity="0.25"/>
    <path id="Path_392" data-name="Path 392" d="M771.567,619.692c.218,1.617,3,6,3,6s2.215-5.383,2-7-1.383-2.217-3-2S771.35,618.075,771.567,619.692Z" transform="translate(-580.024 -463.119)" opacity="0.25"/>
    <path id="Path_393" data-name="Path 393" d="M771.4,565.508s2.021-13.653,10-21c3.367-3.063,5.142-7.53,6-12a31.488,31.488,0,0,0,1-6" transform="translate(-580.357 -397.436)" fill="none" stroke="#535461" stroke-miterlimit="10" stroke-width="2"/>
    <path id="Path_394" data-name="Path 394" d="M834.96,498.72c-.61,1.514-5,4-5,4s-.61-5.486,0-7,2.487-1.61,4-1S835.569,497.207,834.96,498.72Z" transform="translate(-622.417 -374.148)" fill="#6c63ff"/>
    <path id="Path_395" data-name="Path 395" d="M835.769,532.64c-1.334.939-7,1-7,1s2.674-5.064,4-6a2.915,2.915,0,0,1,3,5Z" transform="translate(-622.226 -398.068)" fill="#6c63ff"/>
    <path id="Path_396" data-name="Path 396" d="M814.654,583.169c-1.633.136-6-2-6-2s4.375-3.864,6-4a3,3,0,0,1,0,6Z" transform="translate(-607.111 -434.597)" fill="#6c63ff"/>
    <path id="Path_397" data-name="Path 397" d="M788.251,619.477c-1.582.408-7-1-7-1s4.421-4.589,6-5,2.59.421,3,2S789.83,619.067,788.251,619.477Z" transform="translate(-587.708 -460.904)" fill="#6c63ff"/>
    <path id="Path_398" data-name="Path 398" d="M807.393,532.695c.661,1.492,5,5,5,5s.659-5.508,0-7-2.508-2.661-4-2S806.732,531.2,807.393,532.695Z" transform="translate(-605.85 -399.123)" fill="#6c63ff"/>
    <path id="Path_399" data-name="Path 399" d="M776.784,573.449c1.089,1.225,6,2,6,2s-.925-4.775-2-6-2.774-2.076-4-1S775.708,572.223,776.784,573.449Z" transform="translate(-583.241 -427.877)" fill="#6c63ff"/>
    <path id="Path_400" data-name="Path 400" d="M753.948,619.291c.852,1.391,6,4,6,4s-.14-5.609-1-7a2.915,2.915,0,0,0-5,3Z" transform="translate(-567.405 -461.719)" fill="#6c63ff"/>
    <rect id="Rectangle_208" data-name="Rectangle 208" width="26" height="3" transform="translate(59.543 68.572)" opacity="0.1"/>
    <rect id="Rectangle_209" data-name="Rectangle 209" width="16" height="3" transform="translate(107.543 94.572)" opacity="0.1"/>
    <rect id="Rectangle_210" data-name="Rectangle 210" width="24" height="3" transform="translate(107.543 114.572)" opacity="0.1"/>
    <rect id="Rectangle_211" data-name="Rectangle 211" width="26" height="3" transform="translate(59.543 79.572)" opacity="0.1"/>
    <rect id="Rectangle_212" data-name="Rectangle 212" width="26" height="3" transform="translate(177.543 68.572)" opacity="0.1"/>
    <rect id="Rectangle_213" data-name="Rectangle 213" width="26" height="3" transform="translate(177.543 79.572)" opacity="0.1"/>
    <path id="Path_401" data-name="Path 401" d="M584.828,245.339l1-1a2.387,2.387,0,0,0,2,1c1.241,0,2-.017,2-1,0-1.067-.555-2-3-2v-1c2.178,0,3-1.055,3-2,0-.855-.914-1-2-1a2.921,2.921,0,0,0-2,1l-1-1a4.278,4.278,0,0,1,3-1c1.881,0,4,.416,4,2,0,1.116-.824,1.6-2,2h0a2.975,2.975,0,0,1,2,3c0,1.72-2.073,2-4,2C586.189,246.336,585.547,246.071,584.828,245.339Z" transform="translate(-444.285 -186.767)" fill="#6c63ff"/>
    <g id="Group_339" data-name="Group 339" transform="translate(196.2 30.539)" opacity="0.8">
      <path id="Path_402" data-name="Path 402" d="M794.073,168.034c0-.523-.027-1.477,0-2h0c-.3.463-.7,1.54-1,2l-2,3h6v1h-7v-1l4-6h2v9h-2Z" transform="translate(-789.73 -165)" fill="#6c63ff"/>
    </g>
    <g id="Group_340" data-name="Group 340" transform="translate(250.949 8.317)" opacity="0.5">
      <path id="Path_403" data-name="Path 403" d="M990.444,89.625l1-1a3.423,3.423,0,0,0,2,1c.876,0,1-1.142,1-2s-.1-1-1-1c-.456,0-1.619-.25-2,0h0v-3h4v1h-3v1c.355-.161.61,0,1,0a2,2,0,0,1,0,4C992.554,89.651,991.09,90.237,990.444,89.625Z" transform="translate(-990.85 -83.37)" fill="#6c63ff"/>
    </g>
    <rect id="Rectangle_214" data-name="Rectangle 214" width="97" height="97" transform="translate(94.543 77.572)" fill="#6c63ff" opacity="0.1"/>
    <rect id="Rectangle_215" data-name="Rectangle 215" width="98" height="97" transform="translate(97.543 72.572)" fill="#fff"/>
    <rect id="Rectangle_216" data-name="Rectangle 216" width="77" height="3" transform="translate(107.543 83.572)" fill="#6c63ff" opacity="0.5"/>
    <rect id="Rectangle_217" data-name="Rectangle 217" width="49" height="3" transform="translate(107.543 104.572)" opacity="0.1"/>
    <rect id="Rectangle_218" data-name="Rectangle 218" width="48" height="3" transform="translate(107.543 123.572)" opacity="0.1"/>
    <rect id="Rectangle_219" data-name="Rectangle 219" width="65" height="3" transform="translate(107.543 133.572)" opacity="0.1"/>
    <path id="Path_404" data-name="Path 404" d="M685.332,436.152h0c-.015-.014.02,0,0,0s.014-.014,0,0l-2,2-1-1c-.015-.013.02,0,0,0s.014-.013,0,0l-1,1c-.015.014,0-.02,0,0s-.015-.014,0,0l1,1a5.938,5.938,0,0,0,1,0c.084-.007-.058.061,0,0h0l2-3C685.358,436.12,685.358,436.184,685.332,436.152Z" transform="translate(-514.789 -331.58)" fill="#3acc6c" opacity="0.5"/>
    <path id="Path_405" data-name="Path 405" d="M678.219,427.747a4.4,4.4,0,0,1,4,3c.32,1.6-.488,2.373-2,3s-4.091.361-5-1-.157-2.843,1-4a2.515,2.515,0,0,1,2-1m0-1a4,4,0,1,0,4,4A4.027,4.027,0,0,0,678.219,426.747Z" transform="translate(-509.676 -325.175)" fill="#3acc6c" opacity="0.5"/>
    <path id="Path_406" data-name="Path 406" d="M685.332,508.515v-1c-.014-.015.02,0,0,0s.013-.015,0,0l-2,3-1-1c-.014-.015.021,0,0,0s.013-.015,0,0h-1c-.015.014,0-.02,0,0s-.015-.014,0,0l1,1a5.931,5.931,0,0,0,1,0c.084-.008-.059.06,0,0h0l2-2C685.358,508.483,685.358,508.547,685.332,508.515Z" transform="translate(-514.789 -383.943)" fill="#3acc6c" opacity="0.5"/>
    <path id="Path_407" data-name="Path 407" d="M678.219,499.111a4.4,4.4,0,0,1,4,3,3.6,3.6,0,0,1-2,4c-1.512.627-4.091.361-5-1s-.157-3.843,1-5a2.514,2.514,0,0,1,2-1m0,0a4,4,0,1,0,4,4A4.027,4.027,0,0,0,678.219,499.111Z" transform="translate(-509.676 -377.539)" fill="#3acc6c" opacity="0.5"/>
    <ellipse id="Ellipse_41" data-name="Ellipse 41" cx="19" cy="3.5" rx="19" ry="3.5" transform="translate(120.543 209.572)" fill="#6c63ff" opacity="0.1"/>
    <path id="Path_408" data-name="Path 408" d="M192.356,746.01a3.454,3.454,0,0,1,0,4c-1.481,2-3.5,2.75-3,4,0,0,2.179-2.948,4-3S194.357,748.247,192.356,746.01Z" transform="translate(-156.813 -557.438)" fill="#6c63ff"/>
    <path id="Path_409" data-name="Path 409" d="M192.509,746.01c.088.128-.049.852,0,1,1.775,2.088,2.707,3.951,1,4-1.59.046-3.543,2.281-4,3,.014.056-.022-.053,0,0,0,0,2.179-2.948,4-3S194.51,748.247,192.509,746.01Z" transform="translate(-156.966 -557.438)" opacity="0.1"/>
    <path id="Path_410" data-name="Path 410" d="M206.227,751.729a4.489,4.489,0,0,1,0,1,4.488,4.488,0,0,1,0-1c0-.468-.065,0,0,0S206.227,751.263,206.227,751.729Z" transform="translate(-168.684 -561.156)" fill="#ffd037"/>
    <path id="Path_411" data-name="Path 411" d="M207.447,753.148c-.411.223-.97,1.057-1,1a3.415,3.415,0,0,1,1-1c.414-.237-.025-.06,0,0S207.855,752.925,207.447,753.148Z" transform="translate(-168.904 -562.575)" fill="#ffd037"/>
    <path id="Path_412" data-name="Path 412" d="M174.412,746.01a3.449,3.449,0,0,0,0,4c1.484,2,2.493,2.75,2,4,0,0-2.182-2.948-4-3S172.408,748.247,174.412,746.01Z" transform="translate(-143.869 -557.438)" fill="#6c63ff"/>
    <path id="Path_413" data-name="Path 413" d="M174.412,746.01c-.088.128.049.852,0,1-1.778,2.088-2.707,3.951-1,4,1.59.046,2.543,2.281,3,3-.016.054.022-.055,0,0,0,0-2.182-2.948-4-3S172.408,748.247,174.412,746.01Z" transform="translate(-143.869 -557.438)" opacity="0.1"/>
    <path id="Path_414" data-name="Path 414" d="M173.45,751.729a4.487,4.487,0,0,0,0,1,4.489,4.489,0,0,0,0-1c0-.468.065,0,0,0S173.45,751.263,173.45,751.729Z" transform="translate(-144.907 -561.156)" fill="#ffd037"/>
    <path id="Path_415" data-name="Path 415" d="M170.072,753.148c.408.223.967,1.057,1,1a3.379,3.379,0,0,0-1-1c-.414-.237.025-.06,0,0S169.66,752.925,170.072,753.148Z" transform="translate(-142.529 -562.575)" fill="#ffd037"/>
    <ellipse id="Ellipse_42" data-name="Ellipse 42" cx="10.5" cy="2" rx="10.5" ry="2" transform="translate(22.543 203.572)" fill="#6c63ff" opacity="0.1"/>
    <path id="Path_416" data-name="Path 416" d="M181.042,768.686h0v1h0v1h0l-1,7c-.071.593-.829,1-2,1h-5c-1.171,0-1.929-.407-2-1l-1-7h0v-1h0v-1h0a1.034,1.034,0,0,1,1-1h9A1.03,1.03,0,0,1,181.042,768.686Z" transform="translate(-142.499 -573.114)" fill="#65617d"/>
    <path id="Path_417" data-name="Path 417" d="M112.194,718.624v1h-11v-1Z" transform="translate(-73.651 -523.052)" fill="#9d9cb5"/>
    <path id="Path_418" data-name="Path 418" d="M112.47,721.844Z" transform="translate(-73.928 -525.272)" fill="#9d9cb5"/>
    <path id="Path_419" data-name="Path 419" d="M112.74,725.057Z" transform="translate(-74.197 -527.484)" fill="#9d9cb5"/>
    <path id="Path_420" data-name="Path 420" d="M565.376,458.435c-.182-.373-1-5-1-5l-3-7s-1.468-9.33-4-7,1,8,1,8,2.082,4.183,2,5,0,3,0,3v2c-.411-.027-1,0-1,0s.24.975,0,1c-.041.006.038.016,0,0a8.634,8.634,0,0,0-2-1c-.427-.058-.619.2-1,0a3.541,3.541,0,0,0-2-1,11.751,11.751,0,0,1-1-4c-.058-.425-.213-.627,0-1,.053-.08-.067-.931,0-1,.221-.223.755.207,1,0,.122-.1-.106.109,0,0,2.077-2.014,1.884-5.841,0-8-2.178-2.5-12.027-7.6-15-3a5.663,5.663,0,0,0-1,2c-.3,1.744-.768,3.73-2,5-.985,1.048-2.434,1.813-3,3h0c-.135.257.06.716,0,1-.286,1.445.488,2.593,1,4,.174.478-.076.5,0,1h0c.125.719,1.04,1.272,1,2-3.566.73-4,7-4,7s-.074,2.126,0,3,0,3.535,0,4-.951,2.657-1,3c-.063.378-.617,2.592,1,3,.112.03.878-.022,1,0a45.75,45.75,0,0,1,0,5,30.851,30.851,0,0,0,1,5,14.436,14.436,0,0,0,1,2c-.034.251.129.782,0,1-.248.362-.416.872,0,1-.013.125.02-.158,0,0-.177,1.6-.444,5.394,0,7,.623,2.2,0,2,0,2,0,.358.832.684,1,1,.272.367,0,4.45,0,5s1.368,4.827,1,6a7.544,7.544,0,0,0,0,3,20.609,20.609,0,0,1,0,4,84.519,84.519,0,0,0,0,13,17.635,17.635,0,0,1,0,5,12.762,12.762,0,0,0,0,3c.234.34,1.294,1.891,1,2s-1,1-1,1c.155.236.821.781,1,1-.114-.04-.893-.946-1-1,.117.166.788.75,1,1v3c-.018.213-.207-.055,0,0a4.292,4.292,0,0,0,4-1c1.832-1.87,2.662-1.862,3-3,.033-.123-.024.114,0,0,.1-.448-.64-.715-1-1s-.588-.2-1,0a14.468,14.468,0,0,0,0-3,15.325,15.325,0,0,1,0-3v-14a15.7,15.7,0,0,1,1-3c.55-1.026,0-5,0-5l1-12v-6s1.268-1.2,2,1c0,0-1.185,3.936-1,5s1.182,6.862,1,8-1.515,7.424-1,9a14.66,14.66,0,0,1,1,4c-.109.623,0,14,0,14s.732,2.156,0,3,0,4,0,4-.152.91,0,1h0v3c-.017.213-.206-.056,0,0a4.3,4.3,0,0,0,4-1c1.832-1.87,2.662-.865,3-2,.033-.123-.027-.886,0-1,.113-.5-.565-.732-1-1s-.607-.325-1,0c-.012.013.015-.01,0,0-.046.041.049-.035,0,0h0a9.8,9.8,0,0,0,0-3,28.271,28.271,0,0,1,0-4,32.422,32.422,0,0,0,1-5c.024-1.429,1-11,1-11s-.147-4.865,0-6,.827-11.079,2-14c.9-2.249,1.24-8.09,1-11-.014-.147.014.142,0,0a6.515,6.515,0,0,0,2-3,21.161,21.161,0,0,0-3-4,3.024,3.024,0,0,1-1-3,4.949,4.949,0,0,0-1-2s-.608-1.8-1-2c-.032-.016.023.027,0,0-.272-.289,0-1,0-1h0a9.8,9.8,0,0,0,0-2,14.216,14.216,0,0,1,0-2,13.715,13.715,0,0,0,1-5,1.766,1.766,0,0,1,2-2h7a7.422,7.422,0,0,0,1-1c.495.093.6.311,1,0A4.5,4.5,0,0,0,565.376,458.435Zm-29,19v-1h0a2.234,2.234,0,0,1,0,1c-.078.279.266.887,0,1-.031.016-.972-.021-1,0v-1C535.635,477.419,536.376,477.435,536.376,477.435Z" transform="translate(-404.833 -332.863)" opacity="0.1"/>
    <path id="Path_421" data-name="Path 421" d="M629.474,461.538s3.633,2.233,5,1a4.423,4.423,0,0,0,1-4c-.185-.376-2-5-2-5l-3-7s-1.425-9.338-4-7,1,8,1,8,2.093,4.175,2,5a19.217,19.217,0,0,0,1,4Z" transform="translate(-473.931 -333.966)" fill="url(#linear-gradient)"/>
    <path id="Path_422" data-name="Path 422" d="M595.692,826.615c-.027.117.038.877,0,1-.335,1.146-1.138.116-3,2a4.258,4.258,0,0,1-4,1c-.209-.055-.016.215,0,0v-5s3.489,1.054,5,0c.049-.035-.046.041,0,0h0c.4-.326.56-.268,1,0S595.8,826.112,595.692,826.615Z" transform="translate(-447.149 -615.043)" fill="url(#linear-gradient-2)"/>
    <path id="Path_423" data-name="Path 423" d="M561.83,822.525c-.025.117-.965-.122-1,0-.335,1.146-.138,1.116-2,3a4.27,4.27,0,0,1-4,1c-.21-.054-.019.216,0,0v-5s2.492,1.053,4,0c.052-.035.951.041,1,0h0c.4-.328.56-.269,1,0S561.941,822.022,561.83,822.525Z" transform="translate(-422.287 -611.953)" fill="url(#linear-gradient-3)"/>
    <g id="Group_341" data-name="Group 341" transform="translate(131.83 211.009)" opacity="0.1">
      <path id="Path_424" data-name="Path 424" d="M556.983,827.513l1,2c-1.7,1.688-4.4-1.167-5-2C554.543,828.313,556.983,827.513,556.983,827.513Z" transform="translate(-553.27 -827.95)" fill="url(#linear-gradient-4)"/>
    </g>
    <g id="Group_342" data-name="Group 342" transform="translate(141.682 210.721)" opacity="0.1">
      <path id="Path_425" data-name="Path 425" d="M593.321,827.741h1c-1.557,2.347-4.281,1.419-5,1v-2s3.489,1.054,5,0C594.2,827.316,593.321,827.741,593.321,827.741Z" transform="translate(-589.46 -826.89)" fill="url(#linear-gradient-5)"/>
    </g>
    <path id="Path_426" data-name="Path 426" d="M563.944,633.607c-1.192,2.956-1.85,12.854-2,14s0,6,0,6l-1,11a33.438,33.438,0,0,1-1,5,27.851,27.851,0,0,0,0,4c.185,1-1,4-1,4h1c-1.865,2.807-5,0-5,0s-.743-3.151,0-4,0-3,0-3-.114-14.371,0-15a13.486,13.486,0,0,0-1-4c-.544-1.59.812-7.854,1-9s-.8-5.927-1-7,1-6,1-6c-.746-2.216-2,0-2,0v6l-1,12s.561,2.966,0,4a18.559,18.559,0,0,0-1,4v14a14.866,14.866,0,0,0,0,3,27.279,27.279,0,0,1,0,4c-2.085,4.878-6,0-6,0s.7-.891,1-1-.777-1.657-1-2a13.381,13.381,0,0,1,0-3,17.223,17.223,0,0,0,0-5,83.121,83.121,0,0,1,0-13,20.387,20.387,0,0,0,0-4,7.422,7.422,0,0,1,0-3c.373-1.184-1-5.445-1-6a29.564,29.564,0,0,0-1-5c-.175-.317,0-.638,0-1,0,0,.634-.784,0-3a18.488,18.488,0,0,1,0-6,4.1,4.1,0,0,0,0-1s21.142-3.779,22-3c.2.18-.076,1.113,0,2C565.186,625.509,564.856,631.342,563.944,633.607Z" transform="translate(-413.401 -466.035)" fill="url(#linear-gradient-6)"/>
    <g id="Group_343" data-name="Group 343" transform="translate(142.686 183.888)" opacity="0.1">
      <path id="Path_427" data-name="Path 427" d="M593.007,728a16.593,16.593,0,0,0,3,0C596.886,727.83,593.007,728,593.007,728Z" transform="translate(-593.15 -728.32)" fill="url(#linear-gradient-7)"/>
    </g>
    <g id="Group_344" data-name="Group 344" transform="translate(142.86 185.327)" opacity="0.1">
      <path id="Path_428" data-name="Path 428" d="M593.473,733.854s3.837.294,4,0S593.473,733.854,593.473,733.854Z" transform="translate(-593.79 -733.609)" fill="url(#linear-gradient-8)"/>
    </g>
    <g id="Group_345" data-name="Group 345" transform="translate(132.9 184.737)" opacity="0.1">
      <path id="Path_429" data-name="Path 429" d="M556.843,731.275a29.471,29.471,0,0,1,3,1A29.461,29.461,0,0,1,556.843,731.275Z" transform="translate(-557.2 -731.44)" fill="url(#linear-gradient-9)"/>
    </g>
    <path id="Path_430" data-name="Path 430" d="M534.439,579.333s.147,5.091,0,6a30.63,30.63,0,0,0,1,5c.444.845,1.4,1.255,2,2l1-10v-3Z" transform="translate(-407.896 -435.761)" fill="url(#linear-gradient-10)"/>
    <circle id="Ellipse_43" data-name="Ellipse 43" cx="5.5" cy="5.5" r="5.5" transform="translate(136.543 108.572)" fill="url(#linear-gradient-11)"/>
    <path id="Path_431" data-name="Path 431" d="M570.617,481.136a33.261,33.261,0,0,1-4,5c-1.788,1.628,10.7,4,11,4s-2.446-7.113-2-8S570.617,481.136,570.617,481.136Z" transform="translate(-431.074 -364.564)" fill="url(#linear-gradient-12)"/>
    <g id="Group_346" data-name="Group 346" transform="translate(129.078 154.542)" opacity="0.1">
      <path id="Path_432" data-name="Path 432" d="M565.625,622.549c-.281.213-.671-.126-1,0-2.284.887-4.31,2.487-6,2a16.105,16.105,0,0,0-5,0s-7.56-.346-9,0a1.291,1.291,0,0,1-1,0,4.1,4.1,0,0,0,0-1s21.143-3.779,22-3C565.827,620.723,565.549,621.654,565.625,622.549Z" transform="translate(-543.16 -620.518)" fill="url(#linear-gradient-13)"/>
    </g>
    <path id="Path_433" data-name="Path 433" d="M560.34,528.481s-.713,3.1-3,4-4.31,1.487-6,1a16.105,16.105,0,0,0-5,0s-7.56-.346-9,0-2.438-.358-2-1a6.848,6.848,0,0,0,1-3c0-.887-.446-4.36,0-5s.1-3.605,1-4c.272-.113.919.283,1,0a2.163,2.163,0,0,0,0-1s.21-.815,0-1c-.525-.466-2.286-.717-2-1,.4-.395,0-3,0-3a8.385,8.385,0,0,1,0-3c.348-.738-3-5-3-5s-.083-6.7,4-7c0,0,2.652.282,3-1s3-2,3-2l5,1s4.161,1.591,5,1,2,1,2,1,2.7-.591,3,0-1,7-1,7a1.755,1.755,0,0,0-2,2,13.544,13.544,0,0,1-1,5,13.047,13.047,0,0,0,0,2,2.268,2.268,0,0,1,0,1h0s-.27,1.7,0,2c.026.026-.032-.018,0,0,.4.2,1,2,1,2,.311.372,1.022.516,1,1-.049.789-.29,2.914,1,4A37.937,37.937,0,0,1,560.34,528.481Z" transform="translate(-406.797 -375.908)" fill="url(#linear-gradient-14)"/>
    <path id="Path_434" data-name="Path 434" d="M535.649,543.739h0v3s-3.334-.581-5-1-1.065-1.619-1-2h0c.049-.346,1-3.532,1-4s-.926-2.123-1-3a19.567,19.567,0,0,1,1-4h0l4,1Z" transform="translate(-404.106 -402.167)" fill="url(#linear-gradient-15)"/>
    <g id="Group_347" data-name="Group 347" transform="translate(125.341 141.388)" opacity="0.1">
      <path id="Path_435" data-name="Path 435" d="M535.635,572.384v3s-3.334-.581-5-1-1.065-1.619-1-2Z" transform="translate(-529.432 -572.2)" fill="url(#linear-gradient-16)"/>
    </g>
    <g id="Group_348" data-name="Group 348" transform="translate(131.125 141.023)" opacity="0.1">
      <path id="Path_436" data-name="Path 436" d="M551.1,574.409a2.163,2.163,0,0,0,0-1s.21-.815,0-1c2.632-.362,12.488-1.848,16-2h0s-.27,1.7,0,2Z" transform="translate(-550.68 -570.86)" fill="url(#linear-gradient-17)"/>
    </g>
    <g id="Group_349" data-name="Group 349" transform="translate(146.29 145.962)" opacity="0.1">
      <path id="Path_437" data-name="Path 437" d="M608.643,588.611s.409,3.723-2,5A10.4,10.4,0,0,0,608.643,588.611Z" transform="translate(-606.39 -589)" fill="url(#linear-gradient-18)"/>
    </g>
    <g id="Group_350" data-name="Group 350" transform="translate(132.279 150.442)" opacity="0.1">
      <path id="Path_438" data-name="Path 438" d="M555.184,605.588s5.857-.762,7,0S555.184,605.588,555.184,605.588Z" transform="translate(-554.92 -605.458)" fill="url(#linear-gradient-19)"/>
    </g>
    <g id="Group_351" data-name="Group 351" transform="translate(145.568 128.507)" opacity="0.1">
      <path id="Path_439" data-name="Path 439" d="M603.711,524.946s-.67,3.162,0,4S603.711,524.946,603.711,524.946Z" transform="translate(-603.735 -524.88)" fill="url(#linear-gradient-20)"/>
    </g>
    <g id="Group_352" data-name="Group 352" transform="translate(129.169 125.523)" opacity="0.1">
      <path id="Path_440" data-name="Path 440" d="M543.871,513.969a5.462,5.462,0,0,1,0,3C543.378,518.368,543.871,513.969,543.871,513.969Z" transform="translate(-543.497 -513.92)" fill="url(#linear-gradient-21)"/>
    </g>
    <path id="Path_441" data-name="Path 441" d="M537.433,557.722s1.348.039,1,1S537.433,557.722,537.433,557.722Z" transform="translate(-409.89 -420.15)" fill="url(#linear-gradient-22)"/>
    <g id="Group_353" data-name="Group 353" transform="translate(127.401 134.591)" opacity="0.1">
      <path id="Path_442" data-name="Path 442" d="M537.142,547.211s.88.238,1,1S537.142,547.211,537.142,547.211Z" transform="translate(-537 -547.23)" fill="url(#linear-gradient-23)"/>
    </g>
    <g id="Group_354" data-name="Group 354" transform="translate(141.769 163.245)" opacity="0.1">
      <path id="Path_443" data-name="Path 443" d="M589.554,652.817s6.783,1.435,8,0A74.687,74.687,0,0,1,589.554,652.817Z" transform="translate(-589.78 -652.49)" fill="url(#linear-gradient-24)"/>
    </g>
    <g id="Group_355" data-name="Group 355" transform="translate(131.261 163.719)" opacity="0.1">
      <path id="Path_444" data-name="Path 444" d="M551.462,654.083s6.71,1.209,8,0C559.462,654.083,553.673,654.821,551.462,654.083Z" transform="translate(-551.18 -654.23)" fill="url(#linear-gradient-25)"/>
    </g>
    <g id="Group_356" data-name="Group 356" transform="translate(142.24 166.06)" opacity="0.1">
      <path id="Path_445" data-name="Path 445" d="M591.813,662.342a22.581,22.581,0,0,0,4,1C597.09,663.416,591.813,662.342,591.813,662.342Z" transform="translate(-591.51 -662.83)" fill="url(#linear-gradient-26)"/>
    </g>
    <g id="Group_357" data-name="Group 357" transform="translate(131.707 167.217)" opacity="0.1">
      <path id="Path_446" data-name="Path 446" d="M552.656,667.435a4.241,4.241,0,0,0,3,1C557.169,668.166,552.656,667.435,552.656,667.435Z" transform="translate(-552.82 -667.08)" fill="url(#linear-gradient-27)"/>
    </g>
    <path id="Path_447" data-name="Path 447" d="M546.345,436.032a5.4,5.4,0,0,0-1,2c-.3,1.766-.747,3.719-2,5-1.192,1.258-2.692,2.465-3,4-.291,1.459.48,2.582,1,4,1.361,3.743-.442,8.137-1,12-.152,1.067-.328,1.646,1,2,.414.112.63.826,1,1a1.606,1.606,0,0,1,1,1c.332,1.586,1.106,3.383,1,5-.06.909-.863,1.377,0,2a9.254,9.254,0,0,0,2,1c1.361.365,3.083.852,4,0,.386-.357.535-1.717,1-2,.719-.422,1.094-.044,2,0,1.745.075,4.088-.511,5-2,.732-1.309.272-2.59,0-4s-.965-2.574-1-4c-.042-.5.749-1.566,1-2a7.39,7.39,0,0,1,2-2c1.65-1.252,1.588-3.282,1-5a19.041,19.041,0,0,1-1-5c-.059-.43-.217-.625,0-1a5.18,5.18,0,0,1,1-1c2.409-2.017,1.993-5.732,0-8C559.135,436.508,549.353,431.385,546.345,436.032Z" transform="translate(-411.802 -330.46)" fill="url(#linear-gradient-28)"/>
    <g id="Group_358" data-name="Group 358" transform="translate(128.15 111.484)" opacity="0.1">
      <path id="Path_448" data-name="Path 448" d="M541.147,484.544a11.67,11.67,0,0,0,0-5c-.272-.716-.725-1.284-1-2-.138.257.06.715,0,1-.294,1.456.48,2.579,1,4A13.477,13.477,0,0,1,541.147,484.544Z" transform="translate(-539.754 -473.456)" fill="url(#linear-gradient-29)"/>
      <path id="Path_449" data-name="Path 449" d="M543.494,542a19.024,19.024,0,0,0,0-5,1.613,1.613,0,0,0-1-1c-.373-.177-.586.109-1,0a1.541,1.541,0,0,1-1-1c-.073.376.054.627,0,1-.155,1.067-.331,1.646,1,2,.414.112.627.826,1,1a1.613,1.613,0,0,1,1,1,14.138,14.138,0,0,1,0,2C543.488,541.881,543.494,542.118,543.494,542Z" transform="translate(-540.101 -514.91)" fill="url(#linear-gradient-30)"/>
      <path id="Path_450" data-name="Path 450" d="M568.4,555.866c-.911,1.489-3.256,3.074-5,3-.906-.044-1.281-.422-2,0-.479.272-.616.643-1,1-.917.852-2.639.365-4,0a9.181,9.181,0,0,1-2-1c-.376-.271.076-.543,0-1,0,.506-.967,1.494-1,2a1.925,1.925,0,0,0,1,2,9.183,9.183,0,0,0,2,1c1.361.367,3.083.852,4,0,.384-.357.534-.717,1-1,.719-.425,1.094-1.046,2-1,1.745.075,4.091-.509,5-2,.705-1.258.245-2.639,0-4C568.307,555.247,568.593,555.524,568.4,555.866Z" transform="translate(-550.009 -529.779)" fill="url(#linear-gradient-31)"/>
      <path id="Path_451" data-name="Path 451" d="M614.411,464.438a5.178,5.178,0,0,0-1,1c-.216.375-.059.571,0,1a10.017,10.017,0,0,0,0,2,9.352,9.352,0,0,1,1-1c1.633-1.361,1.528-3.173,1-5C615.132,463.3,615.109,463.865,614.411,464.438Z" transform="translate(-593.019 -462.35)" fill="url(#linear-gradient-32)"/>
      <path id="Path_452" data-name="Path 452" d="M607.345,510.949a7.28,7.28,0,0,0-2,2c-.253.434-1.044,1.5-1,2,.021.577-.121.436,0,1,.033-.066.96.062,1,0a7.394,7.394,0,0,1,2-2c1.505-1.143,2.446-2.386,2-4C609.117,510.592,607.891,510.541,607.345,510.949Z" transform="translate(-586.952 -496.861)" fill="url(#linear-gradient-33)"/>
    </g>
    <path id="Path_453" data-name="Path 453" d="M630.4,510.552a9.883,9.883,0,0,1-3,4h-7l-1-2,1-5h1c.387.2.566.942,1,1a10.847,10.847,0,0,1,2,0c.038.017-.042.007,0,0,.242-.025,1-1,1-1S631.42,507.987,630.4,510.552Z" transform="translate(-469.859 -383.979)" fill="url(#linear-gradient-34)"/>
    <g id="Group_359" data-name="Group 359" transform="translate(154.658 124.012)" opacity="0.1">
      <path id="Path_454" data-name="Path 454" d="M643.015,510.93a9.884,9.884,0,0,1-3,4h0c.381-1.015.684-3.521,1-4s-2.421-1.388-4-2c.242-.024,1-1,1-1S644.033,508.366,643.015,510.93Z" transform="translate(-637.13 -508.37)" fill="url(#linear-gradient-35)"/>
    </g>
    <path id="Path_455" data-name="Path 455" d="M628.126,464.932s3.639,2.23,5,1a4.448,4.448,0,0,0,1-4c-.182-.373-1-5-1-5l-3-7s-1.468-9.33-4-7,1,8,1,8,2.082,4.183,2,5,0,3,0,3Z" transform="translate(-473.583 -336.36)" fill="#efb7b9"/>
    <path id="Path_456" data-name="Path 456" d="M595.772,826.735c-.027.114.033.878,0,1-.332,1.135-1.168.13-3,2a4.3,4.3,0,0,1-4,1c-.206-.056-.016.213,0,0v-5s3.516,1.037,5,0c.049-.035-.046.041,0,0,.015-.01-.012.013,0,0,.393-.325.565-.268,1,0S595.885,826.237,595.772,826.735Z" transform="translate(-447.229 -615.163)" fill="#6c63ff"/>
    <path id="Path_457" data-name="Path 457" d="M562.289,822.677c-.024.114.033-.122,0,0-.332,1.138-1.168,1.13-3,3a4.292,4.292,0,0,1-4,1c-.207-.055-.018.213,0,0v-5s3.516,1.037,5,0c.05-.034-.046.039,0,0h0c.394-.324.566-.268,1,0S562.4,822.179,562.289,822.677Z" transform="translate(-422.746 -612.104)" fill="#6c63ff"/>
    <path id="Path_458" data-name="Path 458" d="M558.478,828.637v1c-1.674,1.672-4.412-1.183-5-2A17.562,17.562,0,0,0,558.478,828.637Z" transform="translate(-421.935 -617.064)" opacity="0.1"/>
    <path id="Path_459" data-name="Path 459" d="M593.387,827.858h1c-1.53,2.325-4.3,1.416-5,1v-2s3.516,1.037,5,0C594.27,827.427,593.387,827.858,593.387,827.858Z" transform="translate(-447.844 -616.286)" opacity="0.1"/>
    <path id="Path_460" data-name="Path 460" d="M564.6,634.826c-1.173,2.932-1.856,12.873-2,14s0,6,0,6l-1,11a33.835,33.835,0,0,1-1,5,28.23,28.23,0,0,0,0,4c.182,1-1,4-1,4h1c-1.832,2.785-5,0-5,0s-.732-3.156,0-4,0-3,0-3-.109-13.371,0-14a14.716,14.716,0,0,0-1-4c-.512-1.576.818-7.865,1-9s-.818-6.938-1-8,1-5,1-5c-.732-2.2-2-1-2-1v6l-1,12s.55,3.963,0,5a15.955,15.955,0,0,0-1,3v14a28.132,28.132,0,0,0,0,4,15.325,15.325,0,0,1,0,3c-2.053,4.837-6,0-6,0s.709-.9,1-1-.779-1.671-1-2a13.554,13.554,0,0,1,0-3,18.244,18.244,0,0,0,0-5,86.305,86.305,0,0,1,0-13,20.609,20.609,0,0,0,0-4,7.543,7.543,0,0,1,0-3c.367-1.173-1-5.45-1-6s.259-4.633,0-5c-.168-.316-1-.642-1-1,0,0,.623.2,0-2-.455-1.606-.188-5.4,0-7a4.124,4.124,0,0,0,0-1s21.156-2.77,22-2c.2.18-.073.126,0,1C565.829,626.75,565.5,632.564,564.6,634.826Z" transform="translate(-414.06 -467.254)" fill="#444053"/>
    <path id="Path_461" data-name="Path 461" d="M593.036,729.707a16.914,16.914,0,0,0,3,0C596.883,729.535,593.036,729.707,593.036,729.707Z" transform="translate(-450.493 -545.134)" opacity="0.1"/>
    <path id="Path_462" data-name="Path 462" d="M593.495,734.523s3.828.291,4,0S593.495,734.523,593.495,734.523Z" transform="translate(-450.952 -548.951)" opacity="0.1"/>
    <path id="Path_463" data-name="Path 463" d="M558.295,731.959s1.1.586,2,1S558.295,731.959,558.295,731.959Z" transform="translate(-424.752 -547.387)" opacity="0.1"/>
    <path id="Path_464" data-name="Path 464" d="M535.152,580.927s1.15,5.1,1,6a30.845,30.845,0,0,0,1,5c.438.837.413,2.26,1,3l2-10-1-4Z" transform="translate(-408.61 -437.355)" fill="#efb7b9"/>
    <circle id="Ellipse_44" data-name="Ellipse 44" cx="5.5" cy="5.5" r="5.5" transform="translate(136.543 109.572)" fill="#efb7b9"/>
    <path id="Path_465" data-name="Path 465" d="M570.952,484.305a34.484,34.484,0,0,1-4,5c-1.761,1.614,10.706,4,11,4s-2.438-8.121-2-9S570.952,484.305,570.952,484.305Z" transform="translate(-431.409 -366.733)" fill="#efb7b9"/>
    <path id="Path_466" data-name="Path 466" d="M566.237,623.877c-.276.211-.676.874-1,1-2.249.879-4.337,1.49-6,1a16.05,16.05,0,0,0-5,0s-7.573-.34-9,0a1.291,1.291,0,0,1-1,0,4.113,4.113,0,0,0,0-1s21.156-2.77,22-2C566.433,623.057,566.163,622.982,566.237,623.877Z" transform="translate(-414.694 -467.305)" opacity="0.1"/>
    <path id="Path_467" data-name="Path 467" d="M561.054,531.526a5.455,5.455,0,0,1-3,3c-2.254.874-4.337,2.487-6,2a16.14,16.14,0,0,0-5,0s-7.573-.343-9,0-1.438-.363-1-1,0-3.107,0-4-.441-4.363,0-5,1.1-2.608,2-3c.266-.113-.078-.721,0-1a2.231,2.231,0,0,0,0-1h0c-.517-.463-1.283-1.72-1-2,.389-.392,0-3,0-3s-1.343-1.268-1-2-3-5-3-5-.01-6.706,4-7c0,0,2.657.271,3-1s3-2,3-2l5,1s4.17,1.585,5,1a2.189,2.189,0,0,1,2,0s2.706.415,3,1-1,6-1,6a1.766,1.766,0,0,0-2,2,13.713,13.713,0,0,1-1,5,13.4,13.4,0,0,0,0,2,9.413,9.413,0,0,1,0,2h0s-.264.709,0,1c.024.027-.032-.016,0,0,.392.193,1,2,1,2a4.948,4.948,0,0,1,1,2,3.024,3.024,0,0,0,1,3A21.154,21.154,0,0,1,561.054,531.526Z" transform="translate(-407.511 -377.953)" fill="#6c63ff"/>
    <path id="Path_468" data-name="Path 468" d="M536.478,546.573h0v2a18.9,18.9,0,0,1-5,0c-1.633-.417-1.063-2.622-1-3,.049-.343,1-2.537,1-3s.073-2.121,0-3,0-4,0-4h0l4,1Z" transform="translate(-404.935 -404.001)" fill="#6c63ff"/>
    <path id="Path_469" data-name="Path 469" d="M536.456,575v2a18.9,18.9,0,0,1-5,0c-1.633-.417-1.063-2.622-1-3Z" transform="translate(-404.913 -432.428)" opacity="0.1"/>
    <path id="Path_470" data-name="Path 470" d="M551.593,576.083a2.232,2.232,0,0,0,0-1h0c2.592-.359,12.545-1.861,16-2h0s-.264.709,0,1Z" transform="translate(-420.05 -431.51)" opacity="0.1"/>
    <path id="Path_471" data-name="Path 471" d="M607.512,591.11s1.371,3.729-1,5A30.925,30.925,0,0,0,607.512,591.11Z" transform="translate(-459.969 -444.538)" opacity="0.1"/>
    <path id="Path_472" data-name="Path 472" d="M555.657,608.02s5.873-.757,7,0S555.657,608.02,555.657,608.02Z" transform="translate(-423.114 -456.447)" opacity="0.1"/>
    <path id="Path_473" data-name="Path 473" d="M603.613,527.852s-.659,3.17,0,4S603.613,527.852,603.613,527.852Z" transform="translate(-458.07 -398.28)" opacity="0.1"/>
    <path id="Path_474" data-name="Path 474" d="M544.473,516.949s.5.606,0,2S544.473,516.949,544.473,516.949Z" transform="translate(-414.93 -390.377)" opacity="0.1"/>
    <path id="Path_475" data-name="Path 475" d="M538.117,559.44s1.343,1.047,1,2S538.117,559.44,538.117,559.44Z" transform="translate(-410.574 -421.867)" fill="#6c63ff"/>
    <path id="Path_476" data-name="Path 476" d="M537.87,549.995s.878.243,1,1S537.87,549.995,537.87,549.995Z" transform="translate(-410.327 -414.422)" opacity="0.1"/>
    <path id="Path_477" data-name="Path 477" d="M589.62,654.953s5.8.429,7-1C596.62,653.964,591.4,655.211,589.62,654.953Z" transform="translate(-448.077 -490.38)" opacity="0.1"/>
    <path id="Path_478" data-name="Path 478" d="M551.979,656.219s6.729,1.2,8,0C559.979,656.23,554.154,656.954,551.979,656.219Z" transform="translate(-420.436 -491.647)" opacity="0.1"/>
    <path id="Path_479" data-name="Path 479" d="M591.857,664.427s2.753-.073,4,0S591.857,664.427,591.857,664.427Z" transform="translate(-449.314 -497.855)" opacity="0.1"/>
    <path id="Path_480" data-name="Path 480" d="M553.158,668.5a4.3,4.3,0,0,0,3,1C557.647,669.229,553.158,668.5,553.158,668.5Z" transform="translate(-421.615 -500.926)" opacity="0.1"/>
    <path id="Path_481" data-name="Path 481" d="M546.952,439.467a5.662,5.662,0,0,0-1,2c-.3,1.744-.768,3.73-2,5-1.17,1.247-2.7,2.478-3,4-.286,1.445.488,2.593,1,4,1.361,3.71-.455,7.17-1,11-.152,1.059-.3,2.649,1,3,.408.109,1.632-.177,2,0,.49.234-.09.562,0,1,.328,1.574,1.1,3.4,1,5-.06.9-.849,2.379,0,3,.434.267,1.5-.1,2,0,1.339.362,3.1.844,4,0,.378-.354.526-.72,1-1,.708-.419,1.11-.044,2,0,1.72.071,4.109-.527,5-2,.721-1.3.267-2.6,0-4a37.272,37.272,0,0,1-1-5c-.043-.495.752-.57,1-1a7.51,7.51,0,0,1,2-2c1.633-1.241,1.588-3.285,1-5a19.025,19.025,0,0,1-1-5c-.058-.425-.213-.627,0-1a5.405,5.405,0,0,1,1-1c2.371-2,1.96-5.751,0-8C559.78,439.962,549.919,434.871,546.952,439.467Z" transform="translate(-412.409 -332.894)" fill="#e3787d"/>
    <g id="Group_360" data-name="Group 360" transform="translate(128.395 112.339)" opacity="0.1">
      <path id="Path_482" data-name="Path 482" d="M541.8,486.734a7.658,7.658,0,0,0,0-4c-.256-.711-.725-1.289-1-2-.135.257.06.716,0,1-.286,1.445.488,2.593,1,4C541.973,486.212,541.723,486.232,541.8,486.734Z" transform="translate(-540.651 -476.501)"/>
      <path id="Path_483" data-name="Path 483" d="M545.129,543.846c.1-1.6-.672-2.426-1-4-.09-.438.49-1.766,0-2-.368-.177-1.592.109-2,0a1.567,1.567,0,0,1-1-1c-.074.37.054.63,0,1-.153,1.059-.3,2.649,1,3,.408.109,1.632-.177,2,0,.49.237-.09,1.559,0,2,.151.729.941,1.257,1,2C545.134,544.727,545.121,543.963,545.129,543.846Z" transform="translate(-540.981 -517.613)"/>
      <path id="Path_484" data-name="Path 484" d="M568.9,558.569c-.89,1.474-3.28,2.072-5,2-.89-.044-1.3-.419-2,0-.471.272-.622.646-1,1a4.68,4.68,0,0,1-4,1,9.323,9.323,0,0,1-2-1c-.369-.272.078-.548,0-1,0,.5.03.5,0,1-.06.9-.852,2.379,0,3,.433.268,1.5-.1,2,0,1.339.362,3.1.841,4,0,.378-.357.529-.72,1-1,.708-.419,1.11-.044,2,0,1.72.072,4.11-.526,5-2,.694-1.25.242-2.65,0-4C568.81,557.947,569.09,558.229,568.9,558.569Z" transform="translate(-550.755 -532.336)"/>
      <path id="Path_485" data-name="Path 485" d="M614.2,467.723a5.253,5.253,0,0,0-1,1c-.213.373-1.058.575-1,1,.048.535.824,1.492,1,2a9.074,9.074,0,0,1,1-1c1.6-1.361,1.52-3.19,1-5C614.929,466.573,614.891,467.154,614.2,467.723Z" transform="translate(-593.054 -465.49)"/>
      <path id="Path_486" data-name="Path 486" d="M607.237,513.95a7.549,7.549,0,0,0-2,2c-.247.432-1.042.5-1,1a13.706,13.706,0,0,0,0,2c.03-.066.959.06,1,0a7.509,7.509,0,0,1,2-2c1.481-1.135,1.438-2.4,1-4C608.012,513.586,607.774,513.544,607.237,513.95Z" transform="translate(-587.088 -499.717)"/>
    </g>
    <path id="Path_487" data-name="Path 487" d="M629.118,513.539c-1,2.543-2,3-2,3h-7l-1-2,1-4h1c.381.2.573-.058,1,0a8.53,8.53,0,0,1,2,1c.038.016-.041.005,0,0,.24-.025,0-1,0-1S630.117,511,629.118,513.539Z" transform="translate(-469.575 -385.966)" fill="#6c63ff"/>
    <path id="Path_488" data-name="Path 488" d="M641.527,513.975c-1,2.543-2,3-2,3h-1a17.637,17.637,0,0,1,2-3c.31-.466-2.448-1.4-4-2,.24-.024,0-1,0-1S642.526,511.433,641.527,513.975Z" transform="translate(-481.984 -386.403)" opacity="0.1"/>
  </g>
</svg>
